<svg width="292" height="568" viewBox="0 0 292 568" fill="none" xmlns="http://www.w3.org/2000/svg">
<g clip-path="url(#clip0_22_1329)">
<path d="M233.796 85.3755C234.767 84.4147 235.834 84.4203 236.811 84.2451C246.06 82.5722 255.117 80.0741 264.237 77.8417C265.742 77.4743 267.314 77.1522 267.668 75.2701C268.021 73.4051 267.101 72.0543 265.624 71.1387C264.063 70.1723 263.181 68.748 262.367 67.1712C259.975 62.5255 258.868 57.6141 258.638 52.3806C258.352 45.7907 258.722 39.2573 259.391 32.7182C259.683 29.8641 260.721 27.6655 263.187 26.0887C264.984 24.9357 266.657 23.5624 268.297 22.1777C269.903 20.8213 270.666 19.0749 269.948 16.9555C269.24 14.87 267.685 13.9092 265.545 13.734C258.228 13.1406 250.917 12.3098 243.589 11.9593C233.902 11.4959 224.272 10.4334 214.608 9.73256C206.982 9.17869 199.345 8.68699 191.714 8.16137C183.678 7.61316 175.648 7.12145 167.641 6.07023C155.411 4.45948 143.107 3.37435 130.838 2.03489C125.767 1.48101 120.657 1.34537 115.62 0.486309C113.334 0.0963392 111.257 0.593692 109.089 1.45276C90.1766 8.98653 72.2916 18.6736 54.0472 27.6316C40.1098 34.4702 26.0377 41.0262 11.9936 47.6331C4.86765 50.9846 4.62619 51.0977 2.38004 58.7897C1.19519 62.8363 0.397806 66.9621 0.453959 71.2235C0.493267 74.202 0.453959 77.1804 0.453959 80.1589C0.453959 83.6799 1.05481 87.1049 2.10488 90.4564C2.44181 91.5302 2.78996 92.6153 2.94719 93.7231C3.31219 96.2777 3.26727 96.2833 5.76612 96.8881C9.98327 97.8997 9.85411 97.8997 9.81481 102.353C9.72496 112.639 8.37727 122.83 7.72027 133.071C7.66412 133.992 7.45073 134.902 7.38896 135.823C7.25419 137.699 6.47927 139.09 4.80588 140.073C3.39081 140.904 1.86904 142.023 2.32388 143.922C2.80681 145.94 4.74412 145.838 6.36135 145.928C16.4466 146.471 26.4644 147.754 36.516 148.669C40.8847 149.071 45.2591 149.387 49.6335 149.658C54.3167 149.947 59.0056 150.133 63.6888 150.37C64.1942 150.399 64.7164 150.416 65.205 150.54C66.446 150.862 66.766 151.586 65.9237 152.512C64.475 154.112 63.1385 155.779 61.8919 157.537C61.19 158.52 60.0613 158.814 58.9438 158.995C56.956 159.323 55.6027 160.402 54.8053 162.25C53.8844 164.381 52.2447 165.964 50.605 167.495C47.6063 170.287 45.523 173.633 44.254 177.51C43.6363 179.398 42.4851 180.907 41.3564 182.512C38.2567 186.903 34.7864 191.176 34.792 197.031C34.792 199.055 34.0283 200.818 32.574 202.276C30.5749 204.277 29.9179 206.724 29.8561 209.55C29.7607 213.947 29.654 218.367 28.0199 222.577C27.6212 223.6 27.6156 224.787 27.4808 225.906C27.3573 226.952 27.1607 227.992 26.2904 228.653C24.398 230.094 24.1958 232.117 24.4148 234.208C24.8135 237.984 25.3638 241.742 25.8074 245.512C26.4027 250.61 26.9305 255.708 26.807 260.862C26.6778 266.118 27.6212 271.301 28.2557 276.489C28.733 280.394 28.587 284.266 28.4467 288.166C28.0199 299.814 28.5028 311.377 32.4729 322.494C34.3765 327.818 37.4088 332.402 42.1538 335.623C43.5071 336.544 44.3326 337.714 44.6864 339.303C45.4725 342.824 47.0224 345.842 50.1838 347.848C50.852 348.272 51.3518 348.99 51.8684 349.623C52.9634 350.951 54.3223 351.674 56.035 351.945C58.5844 352.347 58.9438 352.646 59.3257 355.19C60.2971 361.582 61.1563 367.996 61.6897 374.445C62.459 383.753 63.2564 393.062 63.8741 402.376C64.3346 409.339 64.7333 416.308 65.4577 423.254C65.6486 425.09 65.0533 426.136 63.3575 427.17C59.6177 429.448 57.2367 433.121 55.0636 436.857C52.1324 441.899 50.8127 447.522 49.656 453.151C47.567 463.313 46.0565 473.565 45.3827 483.936C45.231 486.265 45.7083 488.435 46.7079 490.498C48.4992 494.189 50.2287 497.919 52.1941 501.513C56.2316 508.894 59.9714 516.428 63.5765 524.024C68.5405 534.491 71.6177 545.523 72.7071 557.098C72.971 559.879 72.9486 562.62 72.3084 565.361C72.14 566.09 71.7244 567.294 72.7296 567.503C73.8863 567.746 74.0997 566.474 74.2233 565.604C74.695 562.134 75.5092 558.743 76.3571 555.357C77.1826 552.062 78.3281 548.892 79.7769 545.812C80.973 543.274 82.8766 541.838 85.5495 541.251C88.9693 540.499 92.4115 540.256 95.893 540.606C96.3984 540.657 96.9094 540.81 97.4092 540.787C107.972 540.352 118.304 542.652 128.771 543.37C135.021 543.799 141.204 542.986 147.369 542.143C155.057 541.092 162.671 539.662 170.179 537.639C180.214 534.932 189.597 530.727 198.497 525.409C208.425 519.474 217.972 513.014 226.468 505.057C231.168 500.66 234.627 495.375 238.12 490.063C244.982 479.635 250.496 468.575 253.843 456.486C254.365 454.609 254.82 452.71 255.297 450.823C255.802 448.805 255.263 447.273 253.455 446.07C248.474 442.758 244.925 438.18 242.292 432.844C241.343 430.912 240.495 428.928 239.596 426.972C237.036 421.434 233.425 416.856 228.029 413.832C225.069 412.176 224.85 411.566 226.215 408.429C228.22 403.817 230.252 399.222 232.448 394.701C233.998 391.508 234.778 388.156 235.289 384.68C236.592 375.779 239.355 367.313 242.971 359.112C244.336 356.015 245.734 352.929 247.132 349.849C249.581 344.457 250.777 338.754 251.304 332.888C251.664 328.909 251.653 328.994 255.763 328.932C262.698 328.824 269.627 328.604 276.562 328.4C277.478 328.372 278.387 328.219 279.292 328.067C282.172 327.592 284.07 325.987 285.03 323.178C286.159 319.872 287.176 316.52 287.816 313.095C289.253 305.437 291.185 297.858 291.589 290.019C291.746 287.03 292.044 284.079 290.444 281.321C289.59 279.858 288.523 278.71 286.996 277.947C284.227 276.568 281.341 275.63 278.286 275.138C272.649 274.234 267.039 273.155 261.328 272.691C257.403 272.369 257.335 272.188 256.824 268.3C256.516 265.943 256.027 263.637 254.881 261.535C254.022 259.946 253.91 258.466 255.123 256.968C256.465 255.312 256.802 253.323 257.015 251.226C257.324 248.174 257.785 245.122 258.414 242.121C259.582 236.571 260.469 231.026 259.52 225.335C259.318 224.109 259.486 222.871 259.739 221.662C260.783 216.688 260.559 211.647 260.508 206.622C260.491 205.277 260.267 203.966 259.851 202.689C258.7 199.168 258.419 195.454 257.487 191.877C255.836 185.53 254.528 179.047 249.805 174.034C249.333 173.531 248.946 172.83 248.806 172.158C248.087 168.778 246.374 165.862 244.757 162.895C244.364 162.177 244.038 161.42 243.701 160.674C243.134 159.402 243.522 158.469 244.763 157.921C246.447 157.181 248.154 156.503 249.839 155.768C255.926 153.123 261.805 150.009 268.05 147.72C270.161 146.946 271.655 145.499 272.637 143.441C274.951 138.609 276.849 133.67 277.753 128.34C278.73 122.564 279.707 116.788 279.932 110.933C280.162 104.857 279.449 98.8436 278.073 92.9149C277.68 91.2194 276.607 90.2473 274.906 90.0268C273.491 89.846 272.07 89.6708 270.649 89.5917C259.34 88.9474 248.092 87.6701 236.845 86.3645C235.868 86.2515 234.801 86.2684 233.807 85.3755H233.796ZM217.651 349.097C217.91 349.798 218.449 349.866 218.937 349.775C222.711 349.063 226.198 347.712 229.084 345.067C230.617 343.66 231.229 341.874 231.123 339.8C231.033 338.127 230.533 336.573 229.814 335.086C228.568 332.498 227.282 329.932 226.058 327.332C225.637 326.434 224.704 325.439 225.373 324.501C226.187 323.365 227.456 324.162 228.484 324.422C232.841 325.507 237.131 326.869 241.607 327.417C243.123 327.603 244.65 327.728 246.166 327.954C249.047 328.389 249.648 329.079 249.715 331.95C249.771 334.329 249.339 336.646 248.907 338.975C247.885 344.496 245.571 349.527 243.168 354.523C238.333 364.571 234.857 375.044 233.302 386.133C232.998 388.275 232.65 390.423 231.679 392.367C226.956 401.828 223.014 411.634 219.184 421.484C217.382 426.119 214.541 429.906 210.896 433.133C208.678 435.1 206.353 436.948 204.034 438.796C200.839 441.345 197.155 442.826 193.146 443.396C187.149 444.25 181.14 444.142 175.165 443.074C169.634 442.085 164.154 440.847 158.774 439.237C148.139 436.06 138.171 431.465 129.131 424.892C118.035 416.822 107.444 408.163 97.28 398.923C88.0933 390.569 81.7535 380.521 78.154 368.663C77.3791 366.109 76.7783 363.509 76.0764 360.932C74.4928 355.082 72.7127 349.289 70.2701 343.733C67.5971 337.652 66.6313 336.46 59.8254 338.183C55.4904 339.28 51.4136 338.438 47.3424 336.59C39.3124 332.95 35.0335 326.366 32.748 318.25C30.165 309.077 29.6371 299.633 29.8617 290.161C29.9572 286.171 30.1987 282.124 31.6474 278.326C33.4837 273.505 38.8632 269.006 44.5235 273.392C48.634 276.574 53.261 279.021 57.029 282.7C58.9663 284.594 60.8811 286.804 63.6495 287.538C65.8957 288.132 67.7656 289.268 69.54 290.686C70.6575 291.585 71.8199 292.433 73.2069 292.873C75.2846 293.535 76.5312 292.964 77.3735 290.975C77.7722 290.031 78.0305 289.019 78.4797 288.109C79.2603 286.538 79.76 286.295 81.0291 287.306C83.0338 288.912 85.2968 289.172 87.6721 289.081C94.3151 288.827 100.919 289.658 107.551 289.703C112.43 289.731 113.138 290.409 113.138 295.23C113.138 300.068 115.429 303.097 119.506 305.194C124.7 307.868 130.074 310.055 135.639 311.818C145.134 314.819 154.95 316.164 164.755 317.498C171.549 318.419 178.389 318.131 185.217 317.543C188.03 317.3 190.248 316.051 192.27 314.22C193.573 313.039 194.668 311.688 195.577 310.196C197.122 307.658 198.604 305.081 200.115 302.521C201.434 300.289 203.057 298.316 205.163 296.801C207.785 294.919 210.25 294.982 212.839 296.751C214.35 297.785 214.771 299.356 215.102 300.961C217.208 311.185 220.527 320.951 225.58 330.107C226.715 332.164 227.585 334.374 228.523 336.539C230.37 340.795 229.567 343.18 225.524 345.497C223.828 346.469 221.992 347.091 220.15 347.712C219.235 348.023 218.101 348.006 217.646 349.091L217.651 349.097ZM132.039 189.345C128.378 189.057 124.975 189.554 121.864 191.809C120.415 192.86 118.596 193.471 116.749 193.742C113.346 194.234 112.818 194.697 112.672 198.19C112.531 201.615 111.925 204.955 110.779 208.137C109.432 211.884 109.044 215.733 109.05 219.633C109.05 221.481 108.685 223.074 107.534 224.493C106.096 226.262 105.057 228.251 104.232 230.365C103.513 232.208 102.502 233.869 100.857 235.034C98.9534 236.384 97.6956 238.216 96.8533 240.358C96.0447 242.415 94.6633 244.031 93.0966 245.54C91.5917 246.987 89.7779 247.908 87.9304 248.79C85.162 250.118 82.3824 251.401 80.5799 254.114C80.0071 254.979 79.0132 255.414 78.1035 255.877C76.6435 256.618 75.3464 257.646 73.9369 258.443C70.8821 260.161 68.5124 262.964 64.649 263.434C58.6574 264.157 53.5755 266.774 50.0547 272.013C48.9709 273.624 48.3925 273.584 46.7135 272.589C46.2755 272.329 45.8768 272.002 45.4444 271.725C41.0363 268.899 36.2577 269.481 32.6919 273.285C32.2033 273.805 31.7878 274.409 31.26 274.884C30.3671 275.692 29.7101 275.523 29.5922 274.364C29.3058 271.612 28.4635 268.955 28.5084 266.141C28.66 256.781 28.0648 247.473 26.543 238.227C26.296 236.712 26.178 235.169 26.077 233.638C25.9983 232.473 26.2791 231.377 27.2057 230.574C28.6376 229.337 29.0531 227.698 29.1767 225.9C29.2384 224.985 29.3002 224.018 29.6315 223.182C31.333 218.887 31.4284 214.348 31.5183 209.855C31.5688 207.221 32.2258 205.012 34.0733 203.18C35.6905 201.575 36.3868 199.637 36.4823 197.376C36.617 194.268 37.0214 191.238 39.3686 188.842C39.8403 188.361 40.0312 187.582 40.2839 186.915C40.7275 185.745 41.3564 184.693 42.2605 183.834C44.0069 182.162 45.0682 180.116 45.815 177.821C46.9157 174.453 48.7294 171.542 51.481 169.208C53.3565 167.62 54.8951 165.67 56.0463 163.466C56.8605 161.911 57.9555 160.883 59.7637 160.628C61.701 160.357 63.1497 159.266 64.11 157.548C65.2387 155.525 66.8671 154.005 68.7876 152.772C69.9949 151.993 71.146 151.128 72.0445 149.997C73.2462 148.494 74.7174 147.511 76.6603 147.262C77.789 147.115 78.8953 146.731 79.7095 145.928C82.2477 143.424 85.2631 143.114 88.5201 143.871C91.1537 144.481 93.5065 144.001 95.8144 142.543C100.144 139.802 104.878 138.372 110.055 138.632C111.785 138.717 113.52 138.604 115.193 138.033C120.483 136.23 126.003 136.168 131.478 136.145C136.167 136.122 140.867 136.326 145.544 135.936C148.509 135.687 151.429 135.766 154.394 135.885C160.217 136.122 165.962 137.151 171.763 137.422C179.618 137.784 186.907 140.525 194.387 142.498C195.156 142.701 195.886 143.153 196.577 143.583C198.447 144.741 200.463 145.414 202.658 145.42C205.309 145.425 207.628 146.211 209.723 147.889C213.592 150.992 217.882 152.818 222.997 152.23C224.85 152.015 226.647 152.609 228.259 153.586C230.05 154.671 231.971 155.259 234.065 155.265C235.705 155.271 237.025 155.898 237.979 157.283C238.327 157.786 238.704 158.294 239.158 158.69C243.145 162.183 245.257 166.789 246.812 171.717C247.278 173.198 247.677 174.69 248.845 175.786C250.85 177.668 251.815 180.133 252.888 182.591C254.915 187.242 255.83 192.188 256.813 197.105C257.695 201.507 258.958 205.808 258.941 210.432C258.913 217.491 257.015 224.482 258.245 231.569C258.279 231.767 258.228 231.982 258.2 232.179C257.526 236.95 257.021 241.753 256.094 246.473C255.673 248.615 255.757 250.751 255.404 252.859C255.224 253.922 254.999 255.459 253.646 255.369C252.343 255.278 252.641 253.769 252.618 252.82C252.444 245.405 251.411 238.091 250.007 230.829C248.502 223.063 246.79 215.382 243.505 208.097C240.444 201.321 235.654 195.929 230.797 190.515C228.815 188.305 225.794 188.288 223.542 186.711C223.458 186.655 223.362 186.615 223.272 186.564C221.436 185.592 219.493 185.016 217.404 185.067C215.843 185.106 214.327 184.88 212.968 184.106C209.139 181.941 204.983 181.619 200.783 182.116C196.364 182.636 192.012 182.207 187.688 181.512C184.734 181.037 181.876 180.573 178.956 181.698C178.142 182.015 177.142 181.902 176.227 181.885C168.135 181.749 160.184 183.224 152.182 184.083C151.289 184.179 150.34 184.45 149.571 184.903C147.139 186.327 144.534 187.084 141.765 187.395C141.164 187.463 140.485 187.553 140.008 187.875C137.542 189.531 134.802 189.475 132.039 189.356V189.345ZM6.93973 94.9891C7.42827 93.6157 8.56258 93.4914 9.4442 93.107C19.6305 88.6252 29.8112 84.1321 40.0368 79.7463C45.1019 77.5704 50.24 75.5527 55.3893 73.5803C58.3991 72.4273 59.3369 72.919 60.6004 75.9031C61.9705 79.1529 62.6893 82.5609 62.9195 86.0706C63.627 97.0859 61.218 107.457 56.737 117.466C54.9007 121.569 52.093 124.158 47.8984 125.78C36.662 130.126 25.9759 135.795 14.6777 140.022C13.7007 140.39 12.5439 140.717 12.016 142.452C14.644 142.192 16.7891 141.362 18.878 140.44C29.6147 135.682 40.3007 130.81 51.0823 126.158C54.0023 124.898 55.9508 122.982 57.3378 120.207C60.7239 113.448 62.9083 106.293 64.0819 98.8549C65.2443 91.4737 65.0253 84.1151 62.6387 76.9318C62.5096 76.5418 62.3467 76.1575 62.2737 75.7562C61.9705 74.1285 62.4029 73.5125 64.1156 73.309C65.0253 73.2016 65.9518 73.2977 66.8671 73.2355C70.4834 73.0038 73.9257 74.3941 77.4858 74.445C87.178 74.5919 96.8477 75.1515 106.517 75.7618C115.373 76.3214 124.245 76.6548 133.056 77.7795C148.442 79.7407 163.879 81.2214 179.338 82.3687C195.415 83.5612 211.413 85.562 227.456 87.0936C242.477 88.5291 257.425 90.7333 272.536 91.242C275.692 91.3493 276.405 91.9936 277.062 95.153C278.051 99.8891 278.573 104.721 278.371 109.537C278.051 117.24 276.978 124.87 275.147 132.375C274.485 135.083 273.294 137.586 272.289 140.163C271.082 143.249 269.167 144.51 265.753 144.351C258.621 144.024 251.501 143.475 244.375 143.063C237.552 142.667 230.73 142.283 223.924 141.672C205.427 140.011 187.025 137.485 168.584 135.32C153.782 133.579 138.918 132.635 124.077 131.482C113.806 130.685 103.524 130.069 93.3156 128.583C83.4213 127.142 73.5326 125.633 63.5316 125.147C62.577 125.102 61.5325 124.616 60.5723 125.593C61.4707 127.068 62.9027 126.803 64.138 126.882C70.8597 127.323 77.542 128.159 84.2074 129.109C90.1653 129.956 96.0784 131.318 102.064 131.691C109.089 132.127 116.086 132.918 123.122 133.138C124.06 133.167 125.127 133.059 125.963 134.178C124.369 134.998 122.841 134.958 121.336 135.003C119.494 135.06 117.647 135.054 115.929 135.846C113.829 136.818 111.622 137.055 109.353 136.925C104.277 136.631 99.6441 138.072 95.427 140.802C93.3268 142.159 91.2604 142.735 88.7784 142.142C86.476 141.593 83.9828 141.412 81.8658 142.537C79.1817 143.967 76.7109 145.764 73.6 146.25C73.0609 146.335 72.5162 146.849 72.1287 147.302C71.0113 148.601 69.6187 148.867 67.9958 148.777C62.4984 148.477 56.9784 148.415 51.4978 147.952C46.107 147.494 40.705 147.398 35.3199 146.832C26.0882 145.866 16.834 145.16 7.59112 144.346C6.88358 144.284 6.17043 144.221 5.4685 144.097C4.95189 144.007 4.48581 143.747 4.39035 143.159C4.3005 142.577 4.65427 142.159 5.08665 141.893C5.86719 141.418 6.68143 140.983 7.5125 140.599C16.2332 136.58 25.2908 133.353 33.916 129.109C38.588 126.808 43.2263 124.435 47.9713 122.298C50.1389 121.321 51.7561 119.975 52.8848 117.913C58.7473 107.219 60.9148 95.8255 59.3313 83.7195C59.1067 81.9901 58.8877 80.2437 58.2363 78.6103C57.5961 76.9939 56.7931 76.5927 55.1197 76.9544C54.5245 77.0844 53.9461 77.3048 53.3846 77.5421C44.8211 81.148 36.2577 84.7594 27.6998 88.3822C22.6235 90.5299 17.5584 92.7171 12.4765 94.8534C10.6908 95.6051 8.8658 96.1025 6.97903 94.9778L6.93973 94.9891ZM73.7291 261.111C74.6837 260.054 75.7507 259.144 77.0141 258.517C79.4175 257.324 81.6524 255.968 83.2191 253.667C83.7975 252.814 84.7971 252.39 85.7124 251.927C87.1724 251.192 88.6267 250.452 90.098 249.739C93.9277 247.891 96.8196 245.161 98.3638 241.087C98.9085 239.645 99.5767 238.159 100.908 237.317C103.378 235.751 104.726 233.4 105.855 230.834C106.725 228.856 107.758 226.974 109.117 225.284C110.465 223.611 111.021 221.786 110.774 219.57C110.471 216.807 110.746 213.975 111.538 211.341C112.846 207.001 113.969 202.655 114.261 198.116C114.351 196.709 114.929 195.81 116.479 195.72C118.68 195.596 120.775 194.731 122.448 193.516C125.879 191.029 129.636 190.73 133.533 191.108C135.959 191.346 138.171 191.278 140.221 189.763C140.76 189.362 141.546 189.204 142.237 189.119C144.994 188.763 147.611 188.096 150.042 186.626C150.958 186.073 152.17 185.909 153.271 185.773C161.357 184.773 169.41 183.36 177.608 183.586C178.512 183.608 179.478 183.518 180.315 183.213C182.331 182.478 184.285 182.744 186.334 183.071C190.962 183.817 195.617 184.569 200.328 183.902C204.601 183.298 208.661 183.772 212.474 185.909C214.03 186.779 215.664 187.192 217.472 186.903C219.145 186.632 220.717 187.129 222.183 187.915C223.716 188.734 225.26 189.514 226.939 190.006C227.827 190.266 228.674 190.69 229.303 191.38C231.926 194.245 234.818 196.924 237.047 200.078C240.54 205.023 243.263 210.477 244.897 216.355C248.233 228.348 250.591 240.516 250.928 253.012C251.018 256.341 251.591 259.534 253.36 262.433C254.056 263.575 254.455 264.858 254.758 266.163C255.881 270.973 254.983 272.188 250.035 271.855C244.942 271.516 239.86 271.301 234.756 271.301C231.448 271.301 228.371 272.103 226.018 274.381C222.632 277.665 218.707 278.608 214.226 278.128C213.316 278.032 212.39 278.066 211.475 278.049C208.532 277.998 206.168 276.772 204.315 274.494C202.636 272.431 200.951 270.368 199.244 268.328C197.683 266.463 195.695 265.31 193.359 264.666C183.325 261.908 173.335 259.014 163.014 257.426C151.62 255.674 140.221 254.074 128.704 253.311C123.459 252.967 119.427 254.17 117.653 259.703C117.119 261.365 115.805 262.083 114.087 262.038C113.273 262.015 112.453 262.038 111.644 261.953C99.8463 260.777 88.0371 260.698 76.2167 261.546C75.4587 261.602 74.6164 262.021 73.7235 261.099L73.7291 261.111ZM202.945 442.65C203.085 443.905 202.439 444.634 201.973 445.397C196.431 454.406 190.49 463.166 183.179 470.796C173.694 480.698 164.26 490.645 154.855 500.62C145.786 510.234 135.768 518.836 125.671 527.33C121.213 531.083 116.619 534.678 111.622 537.707C110.106 538.628 108.533 539.295 106.742 539.295C103.378 539.301 100.009 539.436 96.6567 539.024C92.7372 538.538 92.5407 538.306 92.9674 534.435C92.9787 534.333 92.9955 534.231 93.0067 534.129C94.1635 523.781 94.3207 513.489 92.2037 503.192C90.0867 492.877 87.3184 482.84 82.1915 473.582C79.7095 469.1 77.2219 464.619 74.723 460.148C73.7235 458.351 72.6678 456.559 72.314 454.513C71.0113 447.03 69.3435 439.621 68.2373 432.104C65.862 415.934 65.57 399.59 64.0763 383.341C62.9195 370.76 61.8301 358.196 59.0954 345.836C58.8315 344.638 58.6406 343.417 58.4777 342.196C58.3767 341.456 58.5676 340.783 59.2077 340.286C62.0379 338.07 66.1091 338.896 67.7937 342.1C69.9051 346.107 71.3875 350.374 72.6117 354.726C73.9762 359.564 75.1442 364.458 76.5986 369.274C79.7881 379.859 84.9655 389.36 92.8832 397.103C105.125 409.073 118.27 420.015 132.679 429.227C149.767 440.147 168.534 445.776 188.901 445.55C192.624 445.51 196.189 444.86 199.632 443.413C200.62 442.995 201.575 442.238 202.939 442.656L202.945 442.65ZM73.7797 71.297C74.476 70.3757 75.6496 70.2853 76.6772 70.014C85.7629 67.6064 94.5903 64.3792 103.479 61.3556C104.153 61.1238 104.827 60.8752 105.473 60.5756C105.849 60.4004 106.169 60.0613 105.984 59.6035C105.804 59.1627 105.338 59.0949 104.939 59.1966C103.755 59.5018 102.575 59.8239 101.413 60.2083C91.7264 63.4297 82.1073 66.8547 72.2691 69.6071C68.8101 70.5736 65.3341 71.2744 61.7122 71.0822C59.3481 70.9522 57.0234 71.2065 54.7884 72.0769C44.8941 75.9201 34.9493 79.6333 25.3582 84.2564C19.4789 87.0936 13.375 89.4673 7.34404 91.988C5.31689 92.8358 4.73288 92.5419 3.90181 90.3546C2.72819 87.2575 2.15542 84.0247 2.12734 80.7071C2.09926 77.4235 2.16103 74.1341 2.1105 70.8505C2.04873 66.5891 3.03142 62.5255 3.97481 58.4053C5.01365 53.8783 7.60235 51.2955 11.8195 49.4417C30.5187 41.2128 49.072 32.6391 67.103 23.0198C81.2818 15.4578 96.0783 9.30302 110.6 2.52094C112.234 1.75795 113.84 1.58275 115.642 1.94446C118.237 2.46442 120.887 2.7244 123.521 3.00699C136.605 4.39166 149.728 5.4881 162.767 7.19492C172.796 8.51178 182.825 9.44432 192.916 9.90211C199.839 10.2186 206.746 10.8855 213.659 11.4337C222.099 12.1006 230.528 12.9371 238.973 13.4457C247.222 13.9431 255.46 14.497 263.681 15.3108C264.697 15.4126 265.725 15.4973 266.646 15.9834C267.578 16.4807 268.459 17.0968 268.201 18.3402C267.971 19.4366 267.005 19.7192 266.067 19.7418C263.726 19.7927 261.362 19.917 259.037 19.7079C250.097 18.9053 241.169 18.0067 232.24 17.0911C221.38 15.9777 210.526 14.8361 199.671 13.6662C188.513 12.4623 177.322 11.6428 166.147 10.6594C157.309 9.8795 148.526 8.51178 139.665 7.924C134.173 7.56229 128.67 7.29666 123.178 6.9519C120.634 6.79365 118.096 6.52237 115.553 6.35847C113.941 6.25674 112.481 6.62975 111.622 8.18398C110.033 11.0607 108.365 13.9205 107.859 17.2324C106.175 28.372 106.826 39.342 110.398 50.0803C110.886 51.5441 111.526 52.9345 112.312 54.2683C113.542 56.3651 115.311 57.5972 117.737 57.7837C120.988 58.0323 124.228 58.4336 127.496 58.5579C132.59 58.7501 137.677 59.1401 142.759 59.5357C149.166 60.0331 155.551 60.7339 161.975 61.0391C169.814 61.4121 177.642 62.1468 185.481 62.565C194.46 63.0454 203.338 64.4018 212.261 65.357C220.875 66.2839 229.573 66.4591 238.086 68.3072C240.675 68.8724 243.308 69.2228 245.925 69.6749C251.26 70.5849 256.69 70.7544 261.996 71.8395C262.996 72.043 264.018 72.1786 264.905 72.7269C265.534 73.1168 266.084 73.6085 266.05 74.4167C266.017 75.2814 265.343 75.6149 264.635 75.8297C263.855 76.067 263.057 76.2422 262.266 76.457C250.642 79.622 238.827 81.9901 227.108 84.7425C225.895 85.0251 224.688 85.042 223.463 84.929C206.297 83.3578 189.187 81.1932 171.976 80.0289C152.333 78.7064 132.865 75.4849 113.183 74.4733C102.895 73.942 92.6361 72.9473 82.3263 72.8851C79.9678 72.8738 77.6487 72.5404 75.3183 72.2578C74.7399 72.1899 74.0492 72.2295 73.7628 71.2913L73.7797 71.297ZM257.032 46.7289C256.684 53.6296 257.442 60.7 260.699 67.3521C261.569 69.138 261.008 69.771 258.947 69.6014C256.813 69.4319 254.685 69.1663 252.562 68.878C240.349 67.2108 228.27 64.7014 215.911 63.848C203.411 62.9889 191.012 60.9147 178.462 60.3835C160.74 59.6261 143.107 57.4728 125.379 56.7098C122.639 56.5911 119.91 56.1277 117.175 55.8056C115.407 55.6021 114.21 54.6017 113.368 53.0532C112.385 51.2389 111.7 49.3174 111.139 47.3336C108.803 39.1386 108.37 30.7627 108.865 22.3133C108.971 20.4822 109.297 18.6341 109.752 16.8538C110.297 14.7344 111.1 14.2031 113.25 14.1296C113.958 14.107 114.677 14.1692 115.384 14.2483C120.657 14.8078 125.924 15.373 131.197 15.9495C142.349 17.1702 153.586 17.272 164.738 18.4306C176.3 19.6288 187.89 20.6065 199.407 22.1212C210.834 23.6302 222.279 24.9131 233.756 25.9304C240.663 26.5408 247.553 27.2756 254.443 28.0725C257.779 28.4568 258.077 28.875 257.751 32.2208C257.296 36.9231 256.808 41.614 257.032 46.7232V46.7289ZM239.956 272.951C243.437 272.793 246.88 273.347 250.339 273.59C259.907 274.262 269.448 275.184 278.87 277.088C281.088 277.535 283.189 278.258 285.289 279.083C288.445 280.321 289.843 282.729 290.045 285.967C290.191 288.324 290.146 290.686 289.82 293.037C288.68 301.283 286.945 309.41 284.986 317.492C284.621 318.985 284.037 320.42 283.632 321.906C282.824 324.851 280.796 326.298 277.91 326.699C275.484 327.038 273.053 327.242 270.599 327.315C264.574 327.496 258.565 327.044 252.557 326.761C243.656 326.343 234.964 324.597 226.434 321.969C223.98 321.211 222.374 319.827 221.447 317.436C220.403 314.751 219.493 312.039 218.786 309.247C217.932 305.861 216.905 302.515 216.253 299.09C215.574 295.513 210.11 292.557 206.454 294.286C203.669 295.603 201.496 297.497 199.884 300.079C198.099 302.951 196.408 305.878 194.623 308.749C191.383 313.966 186.795 316.221 180.573 316.413C169.033 316.758 157.803 314.814 146.566 312.773C137.986 311.213 129.776 308.359 122.016 304.375C114.559 300.549 114.946 300.645 114.766 293.201C114.677 289.364 114.171 288.793 110.33 288.471C103.013 287.849 95.6853 287.273 88.3404 287.448C85.2463 287.521 82.7699 286.549 80.636 284.407C79.4063 283.175 78.1821 281.937 76.9074 280.75C73.482 277.563 69.5344 275.251 65.0758 273.889C61.1226 272.68 57.2255 272.776 53.4969 274.811C52.9634 275.104 52.4131 275.427 51.8347 275.562C51.0823 275.737 50.6106 275.325 50.8464 274.539C51.2058 273.347 51.9077 272.318 52.7107 271.38C55.0467 268.661 57.9387 266.864 61.4202 265.966C72.6903 263.055 84.213 262.541 95.7358 262.744C101.525 262.846 107.354 262.97 113.144 263.614C117.265 264.072 117.771 263.558 119.427 259.833C121.353 255.504 123.481 254.221 128.047 254.673C134.443 255.312 140.827 256.013 147.201 256.855C162.396 258.873 177.417 261.67 192.113 266.158C195.072 267.062 197.509 268.464 199.334 270.99C200.412 272.482 201.642 273.861 202.782 275.314C205.062 278.224 207.869 279.988 211.716 279.688C212.828 279.603 213.968 279.654 215.08 279.773C219.476 280.236 223.301 279.14 226.642 276.093C229.157 273.799 232.302 272.912 235.694 272.945C237.12 272.957 238.552 272.945 239.978 272.945L239.956 272.951ZM132.539 541.872C128.03 541.465 123.251 541.058 118.484 540.601C117.372 540.493 116.249 540.307 115.176 540.007C113.728 539.6 113.593 538.877 114.716 537.893C115.019 537.628 115.39 537.43 115.721 537.193C127.553 528.721 138.407 519.073 148.88 508.996C161.492 496.862 172.785 483.428 185.268 471.158C185.925 470.513 186.48 469.773 187.081 469.072C194.64 460.368 200.732 450.647 206.505 440.706C207.752 438.558 209.24 436.693 211.149 435.06C215.484 431.364 218.988 427.001 220.965 421.535C221.52 419.992 222.211 418.5 222.885 417.003C224.12 414.262 224.901 414.002 227.608 415.409C231.87 417.619 234.61 421.264 236.867 425.379C237.878 427.221 237.957 429.063 237.215 431.008C236.373 433.212 235.531 435.416 234.363 437.473C227.299 449.907 219.038 461.516 209.807 472.367C198.335 485.858 186.2 498.761 173.739 511.342C164.086 521.085 154.422 530.812 143.579 539.261C142.057 540.448 140.519 541.205 138.604 541.318C136.672 541.437 134.746 541.663 132.533 541.872H132.539ZM58.124 90.1512C58.1184 100.121 56.0238 108.446 51.6719 116.358C50.824 117.901 49.8862 119.303 48.2297 120.151C36.763 125.989 25.0943 131.386 13.229 136.36C9.68565 137.846 9.09604 137.394 9.35996 133.551C10.1012 122.705 11.4882 111.893 11.3703 100.997C11.3422 98.2162 12.5888 96.7581 15.082 95.7181C23.2805 92.3158 31.406 88.7213 39.5651 85.2059C44.254 83.1882 48.9203 81.1197 53.6485 79.1925C56.0126 78.226 56.7875 78.7064 57.3378 81.1875C58.0285 84.3073 58.2194 87.4836 58.124 90.1399V90.1512ZM171.403 535.384C170.668 535.429 170.1 535.548 169.876 534.926C169.724 534.502 170.005 534.141 170.269 533.83C170.533 533.519 170.808 533.214 171.1 532.925C181.415 522.82 190.984 511.997 200.985 501.598C209.29 492.956 217.32 484.089 224.631 474.566C231.14 466.094 237.35 457.458 241.365 447.432C241.938 446.002 242.561 444.594 243.218 443.204C244.28 440.96 244.83 440.825 246.47 442.549C248.031 444.193 249.71 445.714 251.574 446.946C253.629 448.302 254 449.964 253.41 452.236C252.096 457.317 250.4 462.251 248.457 467.122C244.51 477.013 238.743 485.858 233.032 494.737C231.308 497.416 229.247 499.823 227.012 502.095C221.818 507.385 215.939 511.811 209.885 516.004C198.744 523.713 187.115 530.495 174.115 534.581C173.144 534.887 172.161 535.158 171.403 535.384ZM92.434 519.141C92.1476 524.346 91.9342 528.653 91.659 532.954C91.3334 538.108 90.7943 538.673 85.791 539.335C83.2247 539.674 82.6014 539.233 82.5004 536.684C82.4049 534.327 82.4554 531.959 82.4723 529.597C82.506 524.663 82.5284 519.734 81.3941 514.885C79.513 506.865 76.8793 499.1 73.6674 491.532C69.8938 482.648 65.0983 474.266 60.9654 465.562C58.4216 460.199 55.4623 455.022 54.0304 449.155C53.3565 446.409 53.6036 443.911 54.6368 441.35C56.2765 437.292 58.7473 433.8 61.628 430.573C62.504 429.595 63.4305 428.295 64.913 428.741C66.4404 429.199 66.3337 430.844 66.5583 432.121C67.8217 439.299 69.0627 446.482 70.2813 453.671C70.6126 455.621 71.2247 457.447 72.1849 459.17C74.5265 463.381 76.7951 467.637 79.221 471.796C87.9023 486.7 91.3614 503.022 92.434 519.147V519.141ZM146.555 539.911C146.735 538.679 147.661 538.295 148.33 537.724C151.272 535.192 154.394 532.846 157.174 530.145C163.85 523.668 170.347 516.999 176.962 510.454C187.581 499.948 197.605 488.87 207.516 477.697C217.719 466.195 226.821 453.829 234.498 440.44C235.828 438.123 236.907 435.693 238.058 433.291C238.675 432.002 239.462 431.855 240.102 432.85C241.994 435.8 243.718 438.643 241.904 442.526C238.294 450.241 234.644 457.893 229.702 464.884C220.571 477.798 210.116 489.56 199.239 500.976C191.899 508.674 184.672 516.485 177.327 524.177C173.655 528.02 170.005 531.886 165.934 535.333C164.154 536.836 162.261 537.854 159.976 538.232C156.455 538.809 152.945 539.465 149.419 540.035C148.543 540.177 147.628 540.51 146.549 539.917L146.555 539.911ZM264.888 21.7821C264.933 22.0251 264.978 22.2681 265.023 22.5111C262.445 25.2635 259.559 27.0325 255.449 26.62C244.892 25.5631 234.385 24.0145 223.8 23.2798C211.475 22.4264 199.328 20.0752 187.031 18.9053C170.982 17.385 154.95 15.8308 138.856 14.8587C130.821 14.3783 122.824 13.2479 114.811 12.3776C113.84 12.2702 112.56 12.2306 112.548 10.829C112.537 9.59692 113.368 8.74915 114.519 8.34223C115.71 7.924 116.934 8.13876 118.158 8.24615C122.729 8.65872 127.289 9.22955 131.888 9.22955C136.386 9.22955 140.85 9.693 145.314 10.1677C156.068 11.315 166.804 12.6149 177.591 13.4005C191.838 14.4348 206.022 16.1303 220.223 17.5885C231.993 18.7923 243.752 20.0696 255.55 21.0021C258.666 21.2452 261.783 21.5221 264.899 21.7821H264.888ZM74.7624 553.074C73.7684 552.396 73.8302 551.627 73.7123 550.943C71.6683 539.453 67.979 528.54 62.7454 518.112C58.517 509.686 53.9742 501.44 49.6616 493.058C48.7238 491.233 47.7636 489.373 47.6063 487.299C47.2189 482.275 47.2975 477.256 48.1735 472.277C48.2746 471.689 48.3139 470.909 49.027 470.779C49.9648 470.609 50.1389 471.519 50.4084 472.135C51.7393 475.142 53.4464 477.934 55.1029 480.76C58.9326 487.288 63.2171 493.544 66.1764 500.586C71.1854 512.517 73.7965 525.007 75.1835 537.814C75.5822 541.488 76.0595 545.15 75.8068 548.852C75.7113 550.254 75.7844 551.712 74.7567 553.068L74.7624 553.074ZM77.9968 544.009C76.9917 542.392 77.0141 540.832 76.8681 539.329C76.2055 532.377 75.2509 525.471 73.7179 518.649C71.7525 509.895 68.8999 501.434 64.7333 493.51C61.875 488.079 58.5114 482.908 55.2377 477.702C53.4744 474.899 52.3008 471.864 50.998 468.852C48.6845 463.505 50.2624 458.368 51.436 453.179C51.5484 452.693 51.773 452.145 52.3907 452.151C52.9859 452.156 53.233 452.676 53.4014 453.163C54.3617 455.875 55.5184 458.492 56.8044 461.064C61.1114 469.683 65.4071 478.307 69.6692 486.949C73.8583 495.443 76.9299 504.35 79.3221 513.506C81.4222 521.549 81.4952 529.749 81.1695 537.973C81.074 540.301 80.316 542.375 77.9912 544.003L77.9968 544.009ZM197.105 140.712C219.639 143.08 241.775 145.307 264.04 145.566C264.624 145.572 265.287 145.646 265.59 146.363C265.427 147.234 264.63 147.341 264.006 147.618C262.232 148.404 260.441 149.138 258.661 149.901C253.5 152.106 248.345 154.31 243.19 156.52C241.657 157.175 240.259 157.305 239.074 155.813C237.844 154.259 236.154 153.671 234.222 153.626C232.886 153.592 231.51 153.468 230.376 152.756C227.102 150.715 223.514 150.342 219.791 150.421C218.146 150.455 216.399 150.365 215.125 149.257C210.958 145.629 206.224 143.634 200.687 143.436C199.368 143.385 197.913 142.882 197.116 140.712H197.105ZM60.0557 274.748C65.5194 275.189 70.3262 277.297 74.2738 281.056C77.3173 283.955 77.6599 286.775 75.9753 289.878C75.2003 291.308 74.4423 291.658 73.0103 290.952C72.022 290.466 71.146 289.725 70.2476 289.053C69.0234 288.137 67.9228 286.883 66.4291 286.566C62.0491 285.645 59.3874 282.254 56.1867 279.643C55.642 279.196 55.1984 278.608 54.766 278.043C54.036 277.094 54.3055 276.32 55.3107 275.788C56.7875 275.008 58.3935 274.777 60.0557 274.737V274.748ZM57.8151 347.266C57.905 348.419 57.9555 349.487 56.8268 350.041C55.9059 350.499 54.9681 350.267 54.2606 349.623C52.2334 347.763 50.2231 345.875 48.3083 343.897C47.6962 343.264 47.3817 342.315 47.0055 341.478C46.7079 340.829 46.4384 340.082 46.9269 339.433C47.466 338.715 48.2128 339.065 48.9035 339.229C49.9929 339.495 51.071 339.902 52.1717 339.992C56.8212 340.359 56.6808 341.326 57.4782 345.248C57.6186 345.949 57.7197 346.661 57.8151 347.266Z" fill="black"/>
<path d="M90.3901 561.321C93.619 561.349 96.7636 558.75 97.342 555.573C97.8754 552.663 94.9947 549.475 91.6704 549.3C88.4247 549.13 84.7354 552.092 84.1739 555.319C83.8089 557.421 84.9544 558.806 86.4256 560.016C87.5712 560.954 88.9245 561.332 90.3901 561.327V561.321ZM90.4687 559.597C88.6943 559.552 86.7457 558.467 86.1786 557.139C85.3924 555.291 86.4986 554.03 87.6273 552.827C88.1103 552.312 88.6718 551.86 89.2165 551.414C90.3564 550.475 91.5918 550.419 92.9114 551.018C94.9723 551.945 96.0392 553.737 95.6012 555.602C95.079 557.828 92.7205 559.665 90.4631 559.603L90.4687 559.597Z" fill="black"/>
<path d="M205.241 399.116C214.203 399.139 220.986 395.617 226.551 389.485C227.517 388.423 228.264 387.191 228.926 385.908C230.201 383.432 230.661 380.968 229.527 378.233C228.707 376.249 228.151 374.135 227.112 372.248C223.665 365.985 218.386 362.51 211.243 362.521C206.925 362.532 202.702 362.357 198.53 361.164C196.138 360.475 193.707 360.616 191.258 361.097C182.246 362.854 173.856 366.291 165.894 370.772C160.025 374.079 159.829 377.362 165.04 381.528C167.533 383.517 170.279 385.105 173.182 386.394C178.332 388.677 183.262 391.362 188.013 394.38C193.476 397.85 199.518 398.958 205.246 399.11L205.241 399.116ZM204.685 397.533C200.198 397.477 195.61 396.573 191.449 394.171C184.284 390.028 176.939 386.23 169.532 382.556C167.696 381.646 166.028 380.443 164.518 379.052C162.642 377.317 162.637 375.91 164.389 374.062C165.248 373.157 166.292 372.513 167.37 371.931C175.052 367.805 183.037 364.488 191.595 362.679C193.319 362.317 195.043 362.193 196.75 362.657C201.613 363.973 206.549 364.205 211.58 364.273C217.28 364.352 221.986 367.003 225.119 371.959C226.714 374.48 227.674 377.317 228.443 380.205C228.949 382.098 228.674 383.839 227.517 385.461C221.974 393.238 214.585 397.477 204.69 397.528L204.685 397.533Z" fill="black"/>
<path d="M62.6116 299.281C61.6794 300.033 61.7917 300.807 61.685 301.491C61.1796 304.735 59.8151 307.471 57.4342 309.788C54.6546 312.495 54.5366 314.219 56.4402 317.723C56.4908 317.813 56.5469 317.898 56.5919 317.989C58.765 321.967 57.7879 323.889 53.2956 324.273C48.2699 324.708 43.9404 322.764 39.8299 320.125C39.0606 319.633 38.2857 319.147 37.4939 318.701C37.3648 318.627 37.1233 318.763 36.8875 318.808C36.5225 319.808 37.2918 320.323 37.8814 320.775C42.9352 324.663 48.5506 326.72 54.9802 325.731C59.4276 325.048 60.8034 322.182 58.7482 318.198C58.5629 317.836 58.327 317.497 58.1249 317.141C56.356 314.049 56.3785 313.145 58.8549 310.686C61.2189 308.341 62.3869 305.476 63.0271 302.311C63.2236 301.333 63.437 300.327 62.6059 299.281H62.6116Z" fill="black"/>
<path d="M33.3834 310.336C34.2875 308.821 33.9618 307.357 33.9505 305.973C33.8775 299.157 34.5963 292.471 37.0222 286.05C37.4938 284.807 37.9768 283.552 38.6169 282.399C40.1219 279.692 42.1209 279.308 44.704 281.054C45.7428 281.755 46.3886 283.077 47.8992 283.298C47.2253 280.658 44.9062 278.601 42.368 278.319C39.9028 278.042 38.2463 279.33 37.2131 281.393C35.5622 284.699 34.3717 288.192 33.5687 291.804C32.3782 297.139 32.1817 302.559 32.3558 308.001C32.3782 308.77 32.2098 309.68 33.389 310.336H33.3834Z" fill="black"/>
<path d="M46.6128 319.421C46.6353 318.138 45.8772 317.884 45.3269 317.488C44.4958 316.9 43.5805 316.426 42.7832 315.793C38.5379 312.452 38.2908 307.558 42.3002 303.992C45.2258 301.386 48.7411 299.725 52.3293 298.233C53.3906 297.792 55.5132 297.515 55.0528 296.435C54.4126 294.926 52.7617 296.373 51.6274 296.729C47.9886 297.865 44.7261 299.781 41.7948 302.195C36.2974 306.722 36.5782 313.328 42.3957 317.398C43.6142 318.251 44.7878 319.302 46.6128 319.421Z" fill="black"/>
<path d="M203.371 348.199C205.263 349.103 207.072 348.809 208.818 348.47C211.311 347.984 213.737 347.216 216.039 346.097C218.841 344.74 221.408 342.79 225.091 342.949C224.159 341.389 223.12 341.592 222.166 341.683C220.824 341.813 219.639 342.423 218.471 343.039C214.203 345.294 209.761 346.939 204.887 347.17C204.387 347.193 203.871 347.255 203.377 348.193L203.371 348.199Z" fill="black"/>
<path d="M204.31 342.989C201.002 337.558 190.782 335.834 185.768 339.717C185.981 340.644 186.688 340.338 187.239 340.254C188.648 340.045 190.041 339.694 191.45 339.547C195.218 339.146 198.75 339.756 201.844 342.175C202.451 342.65 203.08 343.3 204.31 342.995V342.989Z" fill="black"/>
<path d="M174.941 333.051C173.846 336.504 175.441 339.138 177.777 341.376C180.062 343.563 182.847 344.445 186.009 343.817C184.712 342.337 182.757 342.585 181.202 341.794C179.506 340.929 178.226 339.68 177.164 338.137C176.103 336.594 175.8 334.758 174.941 333.051Z" fill="black"/>
<path d="M115.361 61.2275C116.024 62.3239 117.023 62.1204 117.894 62.1882C122.976 62.5726 128.063 62.9343 133.151 63.2903C143.326 64.0025 153.512 64.5055 163.687 65.0989C174.182 65.7149 184.65 66.5627 195.083 67.7609C202.175 68.5747 209.194 69.982 216.275 70.9202C229.017 72.6044 241.747 74.396 254.555 75.4981C255.622 75.5885 256.768 75.8881 257.666 74.9555C257.251 73.9439 256.431 74.1191 255.768 74.0569C242.864 72.8587 230.056 70.8524 217.208 69.219C209.823 68.2808 202.495 66.8396 195.1 65.9749C185.582 64.8672 176.041 63.9459 166.444 63.5334C155.135 63.0473 143.848 62.1374 132.55 61.414C127.867 61.1144 123.189 60.8036 118.5 60.5605C117.456 60.5097 116.271 60.2384 115.361 61.2275Z" fill="black"/>
<path d="M175.704 310.569C177.131 310.569 178.568 310.473 179.983 310.586C183.336 310.852 185.924 309.495 188.008 306.98C192.994 300.978 195.993 294.021 196.577 286.284C197.043 280.14 194.572 274.992 188.008 272.544C184.156 271.109 180.208 270.159 176.21 269.362C167.91 267.712 159.65 265.847 151.227 264.881C148.071 264.519 144.915 264.468 141.759 264.592C137.256 264.768 134.094 266.746 132.528 271.267C131.034 275.574 130.119 279.982 129.793 284.486C129.535 288.058 129.72 291.664 129.675 295.259C129.647 297.627 130.68 299.362 132.606 300.667C134.482 301.933 136.419 303.047 138.553 303.799C150.576 308.06 162.952 310.366 175.699 310.569H175.704ZM188.783 284.73C190.198 284.73 190.911 284.69 191.624 284.735C194.527 284.933 195.229 285.792 194.763 288.669C194.415 290.805 193.696 292.84 192.854 294.829C192.231 296.304 191.152 297.045 189.558 297.152C187.828 297.271 186.093 297.389 184.391 297.678C177.524 298.848 171.369 301.792 165.687 305.726C163.626 307.156 161.604 307.913 159.111 307.314C157.028 306.811 154.911 306.472 152.816 306.025C151.822 305.811 150.811 305.601 149.862 305.24C148.638 304.771 148.565 304.081 149.61 303.245C150.166 302.804 150.806 302.459 151.429 302.114C153.131 301.182 154.928 300.402 156.539 299.334C158.443 298.068 158.493 296.841 157 295.044C155.893 293.716 155.899 293.445 157.331 292.495C158.089 291.986 158.931 291.596 159.768 291.212C169.213 286.9 179.242 285.295 188.794 284.724L188.783 284.73ZM180.697 281.768C178.759 283.537 178.411 283.78 174.862 284.498C169.539 285.572 164.423 287.284 159.42 289.375C157.432 290.206 155.545 291.246 153.984 292.749C152.373 294.304 152.485 295.084 154.349 296.259C155.882 297.231 155.933 297.587 154.394 298.486C151.749 300.029 149.037 301.459 146.37 302.956C145.224 303.601 144.056 303.68 142.826 303.301C140.092 302.459 137.363 301.589 134.931 300.029C133.932 299.39 132.359 298.961 132.427 297.599C132.505 296.05 134.28 296.355 135.313 295.847C135.672 295.671 136.088 295.603 136.487 295.507C141.389 294.287 145.977 292.393 149.924 289.121C151.064 288.177 152.389 287.719 153.872 287.68C156.567 287.606 158.735 286.34 160.689 284.583C162.913 282.576 164.693 280.219 166.287 277.699C167.27 276.145 168.41 274.692 169.415 273.149C171.01 270.702 173.189 270.227 175.817 271.098C176.474 271.318 177.35 271.346 177.445 272.228C177.524 272.912 176.828 273.234 176.35 273.596C174.958 274.647 173.559 275.709 172.667 277.241C171.527 279.191 172.313 281.005 174.497 281.412C175.48 281.593 176.524 281.452 177.541 281.48C178.518 281.508 179.534 280.892 180.708 281.779L180.697 281.768ZM155.012 283.028C155.13 280.739 154.08 279.779 152.002 280.304C150.929 280.576 149.913 281.107 148.902 281.593C144.567 283.684 140.036 285.261 135.425 286.572C132.011 287.544 131.135 286.719 131.528 283.124C131.697 281.598 131.994 280.084 132.275 278.569C132.488 277.439 132.926 276.421 133.808 275.625C136.065 273.59 138.699 272.307 141.636 271.634C142.321 271.476 143.113 271.307 143.584 272.053C144.073 272.833 143.489 273.437 143.034 273.963C141.759 275.432 140.401 276.823 139.154 278.309C138.576 278.993 137.874 279.835 138.536 280.79C139.154 281.683 140.17 281.48 141.074 281.288C142.804 280.92 144.264 279.982 145.724 279.027C149.475 276.585 152.215 273.127 154.984 269.707C156 268.453 157.056 267.435 158.841 267.791C161.542 268.328 164.266 268.769 166.939 269.402C168.758 269.832 169 270.481 168.039 271.996C166.338 274.675 164.603 277.337 162.767 279.92C161.458 281.757 159.875 283.379 157.977 284.628C157.146 285.176 156.197 285.979 155.18 285.391C154.108 284.769 155.045 283.724 155.017 283.023L155.012 283.028ZM175.598 308.959V308.93C174.986 308.93 174.379 308.959 173.767 308.93C172.043 308.834 170.319 308.755 168.601 308.586C168.023 308.529 167.326 308.382 167.203 307.63C167.085 306.913 167.669 306.557 168.146 306.184C168.303 306.059 168.477 305.946 168.652 305.844C173.857 302.787 179.214 300.114 185.251 299.164C186.346 298.989 187.48 298.87 188.581 298.949C190.102 299.062 190.473 299.791 189.956 301.255C188.401 305.652 183.953 308.862 179.248 308.959C178.029 308.981 176.811 308.959 175.592 308.959H175.598ZM177.114 279.892C176.783 279.892 176.575 279.909 176.373 279.892C175.48 279.818 174.396 280.005 174.031 278.908C173.728 277.998 174.531 277.427 175.081 276.845C179.085 272.612 182.387 271.957 187.66 274.37C188.676 274.833 189.698 275.308 190.653 275.89C192.354 276.93 193.612 278.4 194.246 280.31C194.836 282.09 194.376 282.853 192.528 283C190.097 283.192 187.66 283.254 185.223 283.334C184.347 283.362 183.74 282.994 183.353 282.09C182.179 279.36 182.14 279.377 179.411 279.637C178.602 279.716 177.793 279.818 177.114 279.892ZM130.911 292.105C130.944 290.223 131.573 289.483 133.92 288.872C139.468 287.431 144.781 285.334 150.031 283.068C150.901 282.695 151.996 281.61 152.76 282.661C153.496 283.678 152.232 284.47 151.575 285.187C146.746 290.477 140.507 293.105 133.707 294.592C131.747 295.021 130.871 294.162 130.911 292.105ZM134.695 271.126C135.066 269.475 136.071 268.266 137.598 267.475C140.131 266.164 142.843 266.017 145.606 266.214C146.392 266.271 147.397 266.181 147.644 267.158C147.897 268.159 147.15 268.865 146.476 269.492C145.915 270.018 145.19 270.08 144.477 270.035C141.776 269.86 139.238 270.419 136.824 271.618C136.464 271.798 136.065 271.934 135.672 271.996C135.083 272.092 134.701 271.832 134.695 271.114V271.126ZM141.922 278.688C142.08 278.055 142.063 277.699 142.231 277.501C144.971 274.353 147.835 271.307 150.003 267.695C150.199 267.373 150.576 267.057 150.929 266.955C151.923 266.667 153.035 266.497 153.726 267.452C154.332 268.289 153.552 268.967 153.058 269.589C150.957 272.222 148.801 274.805 146.022 276.761C144.876 277.563 143.832 278.58 141.922 278.693V278.688Z" fill="black"/>
<path d="M245.076 279.836C241.915 279.898 238.759 279.949 235.62 280.429C233.958 280.684 232.43 281.192 231.195 282.34C229.55 283.866 227.882 285.392 226.382 287.059C224.698 288.93 223.681 291.264 223.524 293.739C223.204 298.854 223.086 303.975 223.923 309.084C224.546 312.91 226.585 315.38 230.111 316.793C235.828 319.087 241.785 320.41 247.839 321.388C253.297 322.269 258.789 322.399 264.303 322.264C268.172 322.167 271.087 320.444 273.428 317.443C276.466 313.554 278.027 309.005 279.24 304.325C280.296 300.244 280.796 296.062 280.745 291.829C280.694 287.703 278.898 285.109 275.017 283.685C273.776 283.227 272.49 282.865 271.193 282.617C262.568 280.955 253.87 279.955 245.087 279.836H245.076ZM260.041 320.63C250.804 320.506 241.825 318.822 233.037 316.018C231.88 315.651 230.762 315.114 229.679 314.549C226.293 312.769 224.294 308.383 225.102 304.675C225.304 303.743 225.798 303.443 226.63 303.912C227.157 304.212 227.64 304.608 228.112 304.998C233.205 309.174 239.045 312.124 244.835 315.125C248.12 316.827 251.68 317.77 255.33 318.302C262.669 319.364 270.587 314.425 272.867 307.405C273.058 306.823 273.215 306.218 273.479 305.67C273.95 304.698 274.619 303.856 275.848 304.28C276.915 304.647 276.983 305.625 276.842 306.591C276.769 307.094 276.635 307.597 276.477 308.078C275.607 310.717 274.433 313.215 272.889 315.527C270.699 318.81 267.773 320.749 263.708 320.636C262.489 320.602 261.265 320.636 260.041 320.636V320.63ZM279.049 291.388C279.049 291.976 279.055 292.287 279.049 292.592C278.954 295.859 278.695 296.045 275.568 295.141C272.81 294.338 270.312 295.525 269.149 298.351C268.61 299.662 268.408 301.115 267.97 302.471C267.116 305.111 265.028 306.122 262.45 305.184C260.614 304.517 259.384 303.206 258.727 301.375C258.098 299.611 257.924 297.78 258.244 295.926C258.766 292.891 260.103 291.382 263.152 290.879C266.016 290.41 268.155 289.252 268.953 286.262C269.177 285.431 269.593 284.798 270.542 284.606C274.461 283.832 278.976 287.573 279.044 291.394L279.049 291.388ZM225.523 299.323C226.293 298.961 226.669 299.148 226.983 299.402C228.499 300.612 229.971 301.883 231.515 303.053C235.227 305.868 239.275 307.982 243.942 308.592C247.67 309.078 250.86 307.976 252.96 304.704C255.094 301.386 254.948 297.91 253.084 294.502C252.151 292.795 251.056 291.19 249.675 289.794C249.26 289.376 248.67 288.935 249.029 288.234C249.288 287.726 249.883 287.72 250.383 287.743C253.067 287.85 255.06 286.607 256.672 284.566C257.464 283.566 258.429 282.882 259.772 282.843C261.625 282.786 263.427 283.069 265.202 283.566C266.145 283.832 266.83 284.425 266.97 285.465C267.122 286.601 266.628 287.454 265.729 288.093C264.78 288.766 263.652 288.896 262.562 289.144C258.929 289.981 257.138 291.885 256.627 295.604C256.239 298.419 256.683 301.098 258.064 303.63C259.339 305.964 259.249 306.896 257.071 308.219C251.36 311.683 245.228 312.684 238.967 310.022C234.727 308.225 231.06 305.371 227.612 302.302C226.725 301.51 225.725 300.747 225.523 299.323ZM228.797 287.375C229.342 288.698 229.044 289.625 229.095 290.523C229.375 295.271 231.773 298.102 236.389 299.091C241.606 300.21 245.402 298.645 248.428 294.129C249.361 292.733 249.799 292.637 250.725 293.609C252.96 295.96 253.6 299.945 252.208 302.799C250.866 305.546 247.934 307.134 244.604 306.885C243.178 306.778 241.785 306.461 240.438 305.958C235.064 303.963 230.667 300.521 226.646 296.537C225.911 295.808 225.192 294.977 225.344 293.869C225.681 291.422 226.405 289.139 228.797 287.375ZM247.086 313.752C247.974 312.791 248.968 312.995 249.832 312.803C253.145 312.079 256.363 311.096 258.963 308.795C260.344 307.569 261.726 307.021 263.641 307.173C266.684 307.422 268.627 305.84 269.503 302.895C269.851 301.719 270.053 300.487 270.491 299.351C271.227 297.447 272.603 296.509 274.147 296.667C275.601 296.814 277.061 298.238 277.471 299.883C277.758 301.047 277.578 302.019 276.18 302.098C273.164 302.268 271.957 304.201 271.446 306.84C271.058 308.841 269.963 310.378 268.537 311.768C262.529 317.623 254.662 318.415 247.092 313.746L247.086 313.752ZM244.307 281.769C247.356 281.582 250.422 281.351 253.432 282.04C254.021 282.176 254.678 282.272 254.892 282.967C255.156 283.809 254.589 284.323 254.033 284.77C252.758 285.804 251.292 285.917 249.703 285.77C246.401 285.465 245.941 286.064 246.632 289.393C246.693 289.693 246.783 289.986 246.834 290.292C247.328 293.101 246.424 295.084 243.959 296.452C241.516 297.808 238.916 297.927 236.249 297.289C232.582 296.407 230.381 293.666 230.712 289.924C231.122 285.29 232.908 281.984 236.979 281.786C239.416 281.667 241.858 281.763 244.296 281.763L244.307 281.769Z" fill="black"/>
<path d="M169.201 376.875C170.251 377.943 171.43 377.706 172.497 377.717C176.67 377.768 180.842 377.785 185.014 377.734C189.388 377.683 193.724 377.593 198.059 378.672C201.018 379.413 204.146 379.13 207.172 378.633C212.091 377.83 216.679 378.695 221.014 381.142C221.946 381.668 222.862 382.414 224.041 382.159C224.4 381.198 223.693 380.967 223.232 380.65C218.594 377.434 213.462 376.084 207.88 376.852C203.691 377.429 199.586 377.451 195.47 376.361C194.212 376.027 192.848 376.005 191.528 376.005C185.014 375.999 178.5 376.033 171.986 376.084C171.105 376.089 170.145 375.886 169.207 376.875H169.201Z" fill="black"/>
<path d="M178.703 289.21C176.777 289.142 174.615 289.588 172.604 290.685C171.706 291.171 170.869 291.747 170.229 292.556C169.376 293.629 168.707 294.816 169.319 296.207C169.988 297.716 171.448 297.733 172.734 297.501C176.827 296.761 180.747 295.37 184.633 293.901C185.402 293.607 186.042 293.025 186.036 292.081C186.036 290.996 185.25 290.481 184.402 290.086C182.701 289.283 180.881 289.215 178.703 289.215V289.21ZM183.571 292.228C179.815 293.935 176.389 294.771 172.986 295.658C172.391 295.811 171.728 295.76 171.363 295.144C170.909 294.359 171.414 293.793 171.914 293.262C174.3 290.747 179.523 290.097 183.566 292.233L183.571 292.228Z" fill="black"/>
<path d="M233.42 289.606C233.431 292.37 235.548 294.524 238.227 294.484C240.883 294.45 242.753 292.461 242.697 289.725C242.64 286.696 240.742 284.345 238.373 284.367C235.75 284.39 233.414 286.865 233.42 289.606ZM238.159 286.283C239.805 286.295 241.034 287.691 241.062 289.584C241.096 291.5 239.9 292.811 238.154 292.788C236.441 292.766 235.144 291.364 235.183 289.573C235.217 287.804 236.604 286.272 238.159 286.283Z" fill="black"/>
<path d="M221.431 317.434C220.387 314.75 219.477 312.037 218.77 309.245C217.916 305.859 216.889 302.514 216.237 299.089C215.558 295.511 210.094 292.555 206.433 294.285C203.647 295.602 201.474 297.495 199.863 300.078C198.077 302.949 196.387 305.876 194.601 308.747C191.361 313.964 186.773 316.219 180.551 316.411C169.012 316.756 157.781 314.812 146.545 312.771C137.964 311.212 129.755 308.357 121.994 304.373C114.537 300.547 114.924 300.643 114.745 293.2C114.655 289.362 114.149 288.791 110.309 288.469C102.992 287.847 95.6636 287.271 88.3187 287.446C85.2246 287.52 82.7482 286.547 80.6144 284.405C79.3846 283.173 78.1605 281.936 76.8858 280.749C73.4604 277.561 69.5128 275.25 65.0542 273.888C61.1009 272.678 57.2039 272.774 53.4752 274.809C52.9418 275.103 52.3915 275.425 51.8131 275.56C51.0606 275.736 50.5889 275.323 50.8248 274.537C51.1842 273.345 51.8861 272.316 52.6891 271.378C55.0251 268.66 57.917 266.862 61.3985 265.964C72.6686 263.053 84.1914 262.539 95.7142 262.742C101.504 262.844 107.332 262.968 113.122 263.613C117.244 264.07 117.749 263.556 119.405 259.832C121.332 255.502 123.46 254.219 128.025 254.672C134.421 255.31 140.806 256.011 147.179 256.853C162.374 258.871 177.396 261.668 192.091 266.156C195.05 267.06 197.487 268.462 199.312 270.988C200.391 272.48 201.62 273.859 202.76 275.312C205.04 278.222 207.848 279.986 211.694 279.686C212.806 279.601 213.946 279.652 215.058 279.771C219.455 280.234 223.279 279.138 226.62 276.092C229.136 273.797 232.28 272.91 235.672 272.944C237.098 272.955 238.53 272.944 239.957 272.944C243.438 272.785 246.88 273.339 250.339 273.582C259.908 274.255 269.449 275.176 278.871 277.081C281.089 277.527 283.189 278.251 285.29 279.076C288.445 280.314 289.844 282.721 290.046 285.96C290.192 288.316 290.147 290.679 289.821 293.03C288.681 301.276 286.946 309.403 284.986 317.485C284.621 318.977 284.037 320.413 283.627 321.899C282.819 324.844 280.792 326.29 277.905 326.692C275.479 327.031 273.048 327.234 270.594 327.308C264.569 327.489 258.56 327.037 252.552 326.754C243.651 326.336 234.959 324.589 226.429 321.961C223.975 321.204 222.369 319.819 221.443 317.429L221.431 317.434ZM188.014 272.548C184.162 271.113 180.214 270.163 176.216 269.366C167.917 267.716 159.657 265.851 151.233 264.884C148.078 264.523 144.922 264.472 141.766 264.596C137.262 264.771 134.101 266.749 132.534 271.271C131.041 275.577 130.125 279.986 129.8 284.49C129.541 288.062 129.727 291.668 129.682 295.262C129.654 297.63 130.687 299.366 132.613 300.671C134.488 301.937 136.426 303.05 138.56 303.802C150.582 308.064 162.958 310.37 175.705 310.573C177.132 310.573 178.569 310.477 179.984 310.59C183.337 310.856 185.925 309.499 188.009 306.984C192.995 300.982 195.994 294.025 196.578 286.287C197.044 280.144 194.573 274.995 188.009 272.548H188.014ZM247.835 321.379C253.293 322.261 258.785 322.391 264.299 322.255C268.168 322.159 271.083 320.435 273.424 317.434C276.462 313.546 278.023 308.996 279.236 304.317C280.292 300.236 280.792 296.054 280.741 291.826C280.691 287.7 278.894 285.106 275.013 283.682C273.772 283.224 272.486 282.862 271.189 282.614C262.564 280.952 253.866 279.952 245.083 279.833C241.922 279.895 238.766 279.946 235.627 280.427C233.965 280.681 232.438 281.19 231.202 282.337C229.557 283.863 227.889 285.389 226.39 287.056C224.705 288.927 223.689 291.261 223.532 293.736C223.211 298.851 223.094 303.972 223.93 309.081C224.554 312.907 226.592 315.377 230.118 316.79C235.835 319.085 241.793 320.407 247.846 321.385L247.835 321.379Z" fill="#E1D1C1"/>
<path d="M133.91 288.877C139.458 287.435 144.77 285.339 150.02 283.072C150.89 282.699 151.985 281.614 152.749 282.665C153.485 283.683 152.221 284.474 151.564 285.192C146.735 290.482 140.496 293.11 133.696 294.596C131.736 295.026 130.86 294.167 130.9 292.109C130.933 290.227 131.562 289.487 133.91 288.882V288.877Z" fill="#48CAE4"/>
<path d="M225.103 304.673C225.305 303.741 225.799 303.441 226.63 303.91C227.158 304.21 227.641 304.605 228.113 304.995C233.206 309.172 239.046 312.122 244.835 315.123C248.12 316.824 251.681 317.768 255.331 318.299C262.67 319.362 270.588 314.422 272.867 307.403C273.058 306.821 273.216 306.216 273.48 305.668C273.951 304.696 274.619 303.854 275.849 304.278C276.916 304.645 276.984 305.623 276.843 306.589C276.77 307.092 276.635 307.595 276.478 308.075C275.608 310.715 274.434 313.213 272.89 315.524C270.7 318.808 267.774 320.747 263.709 320.634C262.49 320.6 261.266 320.634 260.042 320.634C250.805 320.509 241.826 318.825 233.038 316.022C231.881 315.654 230.763 315.118 229.68 314.552C226.293 312.772 224.294 308.386 225.103 304.679V304.673Z" fill="#00B4D8"/>
<path d="M192.524 283.004C190.099 283.197 187.656 283.259 185.219 283.338C184.343 283.366 183.736 282.999 183.349 282.095C182.175 279.365 182.136 279.382 179.407 279.642C178.598 279.721 177.79 279.823 177.11 279.896C176.779 279.896 176.571 279.913 176.369 279.896C175.476 279.823 174.392 280.009 174.027 278.913C173.724 278.003 174.527 277.432 175.077 276.85C179.081 272.617 182.383 271.961 187.656 274.374C188.672 274.838 189.694 275.312 190.649 275.895C192.35 276.935 193.608 278.404 194.243 280.314C194.832 282.095 194.372 282.858 192.524 283.004Z" fill="#00B4D8"/>
<path d="M269.152 298.352C268.613 299.663 268.411 301.115 267.973 302.472C267.119 305.111 265.03 306.123 262.453 305.184C260.616 304.518 259.387 303.206 258.73 301.375C258.101 299.612 257.927 297.781 258.247 295.927C258.769 292.892 260.105 291.383 263.155 290.88C266.018 290.411 268.158 289.252 268.955 286.262C269.18 285.432 269.595 284.799 270.544 284.606C274.464 283.832 278.979 287.574 279.046 291.394C279.046 291.982 279.052 292.293 279.046 292.598C278.951 295.865 278.692 296.051 275.565 295.147C272.807 294.344 270.309 295.531 269.146 298.357L269.152 298.352Z" fill="#CAF0F8"/>
<path d="M265.732 288.094C264.783 288.766 263.654 288.896 262.564 289.145C258.931 289.981 257.14 291.886 256.629 295.605C256.242 298.419 256.685 301.098 258.067 303.63C259.341 305.964 259.251 306.897 257.073 308.219C251.362 311.684 245.23 312.684 238.969 310.022C234.729 308.225 231.062 305.371 227.614 302.302C226.727 301.511 225.728 300.748 225.525 299.324C226.295 298.962 226.671 299.148 226.985 299.403C228.502 300.612 229.973 301.884 231.517 303.054C235.229 305.868 239.277 307.982 243.944 308.592C247.672 309.078 250.862 307.976 252.962 304.704C255.096 301.386 254.95 297.911 253.086 294.503C252.154 292.796 251.059 291.191 249.677 289.795C249.262 289.376 248.672 288.936 249.031 288.235C249.29 287.726 249.885 287.721 250.385 287.743C253.069 287.851 255.062 286.607 256.674 284.567C257.466 283.566 258.432 282.883 259.774 282.843C261.627 282.787 263.429 283.069 265.204 283.566C266.147 283.832 266.832 284.426 266.973 285.465C267.124 286.601 266.63 287.455 265.732 288.094Z" fill="#F8F8F8"/>
<path d="M271.436 306.848C271.048 308.849 269.953 310.386 268.527 311.777C262.519 317.632 254.652 318.423 247.082 313.755C247.969 312.794 248.963 312.997 249.828 312.805C253.141 312.082 256.359 311.098 258.959 308.798C260.34 307.572 261.721 307.024 263.636 307.176C266.68 307.425 268.623 305.842 269.499 302.898C269.847 301.722 270.049 300.49 270.487 299.354C271.223 297.449 272.598 296.511 274.143 296.67C275.597 296.816 277.057 298.241 277.467 299.891C277.753 301.055 277.574 302.027 276.175 302.101C273.16 302.27 271.953 304.203 271.442 306.843L271.436 306.848Z" fill="#90E0EF"/>
<path d="M162.767 279.929C161.459 281.766 159.875 283.388 157.977 284.637C157.146 285.185 156.197 285.988 155.181 285.4C154.108 284.778 155.046 283.732 155.018 283.032C155.136 280.743 154.086 279.782 152.008 280.308C150.936 280.579 149.919 281.11 148.908 281.596C144.573 283.687 140.042 285.264 135.431 286.575C132.017 287.547 131.141 286.722 131.534 283.128C131.703 281.602 132 280.087 132.281 278.572C132.495 277.442 132.933 276.425 133.814 275.628C136.072 273.593 138.705 272.31 141.642 271.638C142.327 271.48 143.119 271.31 143.591 272.056C144.079 272.836 143.495 273.441 143.04 273.966C141.766 275.436 140.407 276.826 139.16 278.312C138.582 278.996 137.88 279.838 138.542 280.794C139.16 281.687 140.176 281.483 141.08 281.291C142.81 280.924 144.27 279.985 145.73 279.03C149.481 276.589 152.221 273.13 154.99 269.711C156.006 268.456 157.062 267.439 158.848 267.795C161.549 268.332 164.272 268.772 166.945 269.405C168.764 269.835 169.006 270.485 168.046 271.999C166.344 274.678 164.609 277.34 162.773 279.923L162.767 279.929Z" fill="#F8F8F8"/>
<path d="M192.856 294.836C192.232 296.311 191.154 297.052 189.559 297.159C187.83 297.278 186.095 297.396 184.393 297.685C177.526 298.855 171.371 301.799 165.688 305.733C163.628 307.163 161.606 307.92 159.113 307.321C157.03 306.818 154.913 306.479 152.818 306.032C151.824 305.818 150.813 305.608 149.864 305.247C148.64 304.778 148.567 304.088 149.612 303.252C150.168 302.811 150.808 302.466 151.431 302.121C153.132 301.189 154.929 300.409 156.541 299.341C158.445 298.075 158.495 296.848 157.001 295.051C155.895 293.723 155.901 293.451 157.333 292.502C158.091 291.993 158.933 291.603 159.77 291.219C169.215 286.907 179.244 285.302 188.796 284.731C190.211 284.731 190.924 284.691 191.637 284.737C194.54 284.934 195.242 285.793 194.776 288.67C194.428 290.807 193.709 292.841 192.867 294.831L192.856 294.836ZM184.405 290.077C182.703 289.275 180.884 289.207 178.705 289.207C176.779 289.139 174.617 289.586 172.607 290.682C171.708 291.168 170.871 291.745 170.231 292.553C169.378 293.627 168.71 294.814 169.322 296.204C169.99 297.713 171.45 297.73 172.736 297.498C176.829 296.758 180.749 295.367 184.635 293.898C185.404 293.604 186.044 293.022 186.039 292.078C186.039 290.993 185.252 290.479 184.405 290.083V290.077Z" fill="#F8F8F8"/>
<path d="M171.365 295.138C170.91 294.353 171.416 293.787 171.915 293.256C174.302 290.741 179.524 290.091 183.567 292.227C179.811 293.934 176.385 294.771 172.982 295.658C172.387 295.811 171.724 295.76 171.359 295.144L171.365 295.138Z" fill="#CAF0F8"/>
<path d="M146.017 276.761C144.872 277.563 143.827 278.58 141.918 278.693C142.075 278.06 142.058 277.704 142.227 277.507C144.967 274.359 147.831 271.312 149.998 267.701C150.195 267.379 150.571 267.062 150.925 266.96C151.919 266.672 153.031 266.503 153.722 267.458C154.328 268.294 153.547 268.972 153.053 269.594C150.953 272.228 148.797 274.811 146.017 276.766V276.761Z" fill="#48CAE4"/>
<path d="M146.472 269.51C145.911 270.035 145.187 270.097 144.473 270.052C141.772 269.877 139.234 270.436 136.82 271.635C136.46 271.815 136.067 271.951 135.668 272.013C135.079 272.109 134.697 271.849 134.691 271.132C135.062 269.481 136.067 268.272 137.595 267.481C140.127 266.169 142.839 266.022 145.602 266.22C146.388 266.277 147.393 266.186 147.64 267.164C147.893 268.164 147.146 268.871 146.472 269.498V269.51Z" fill="#0096C7"/>
<path d="M254.029 284.774C252.755 285.808 251.289 285.921 249.7 285.774C246.398 285.469 245.938 286.068 246.628 289.397C246.69 289.697 246.78 289.991 246.83 290.296C247.325 293.105 246.426 295.088 243.955 296.456C241.513 297.813 238.913 297.931 236.245 297.293C232.579 296.411 230.377 293.67 230.709 289.928C231.119 285.294 232.904 281.988 236.975 281.79C239.412 281.671 241.855 281.767 244.292 281.767C247.341 281.581 250.407 281.349 253.417 282.039C254.007 282.174 254.664 282.27 254.877 282.965C255.141 283.808 254.574 284.322 254.018 284.768L254.029 284.774ZM238.374 284.367C235.751 284.39 233.415 286.865 233.421 289.606C233.432 292.37 235.549 294.523 238.228 294.484C240.884 294.45 242.754 292.46 242.697 289.725C242.641 286.696 240.743 284.344 238.374 284.367Z" fill="#CAF0F8"/>
<path d="M238.159 292.794C236.446 292.772 235.149 291.37 235.188 289.578C235.222 287.809 236.609 286.278 238.165 286.289C239.81 286.3 241.04 287.696 241.068 289.59C241.101 291.506 239.905 292.817 238.159 292.794Z" fill="#F8F8F8"/>
<path d="M229.092 290.527C229.372 295.274 231.77 298.106 236.386 299.095C241.603 300.214 245.399 298.648 248.425 294.133C249.357 292.737 249.795 292.641 250.716 293.613C252.951 295.964 253.591 299.948 252.199 302.803C250.857 305.549 247.926 307.137 244.596 306.889C243.169 306.781 241.777 306.465 240.429 305.962C235.055 303.967 230.658 300.525 226.638 296.54C225.902 295.811 225.183 294.98 225.335 293.873C225.672 291.426 226.396 289.142 228.788 287.379C229.333 288.701 229.035 289.628 229.086 290.527H229.092Z" fill="#90E0EF"/>
<path d="M176.346 273.589C174.953 274.64 173.555 275.703 172.662 277.235C171.522 279.184 172.309 280.999 174.493 281.406C175.476 281.586 176.52 281.445 177.537 281.473C178.514 281.502 179.53 280.886 180.704 281.773C178.766 283.542 178.418 283.785 174.869 284.503C169.546 285.577 164.43 287.289 159.427 289.38C157.439 290.211 155.552 291.251 153.991 292.754C152.38 294.309 152.492 295.088 154.356 296.264C155.889 297.236 155.94 297.592 154.401 298.491C151.756 300.034 149.044 301.464 146.377 302.961C145.231 303.606 144.063 303.685 142.833 303.306C140.099 302.464 137.37 301.594 134.938 300.034C133.939 299.395 132.366 298.966 132.434 297.603C132.512 296.055 134.287 296.36 135.32 295.851C135.679 295.676 136.095 295.608 136.494 295.512C141.396 294.292 145.984 292.398 149.931 289.126C151.071 288.182 152.396 287.724 153.879 287.685C156.574 287.611 158.742 286.345 160.696 284.587C162.92 282.581 164.7 280.224 166.295 277.704C167.277 276.149 168.417 274.697 169.422 273.154C171.017 270.707 173.196 270.232 175.824 271.102C176.481 271.323 177.357 271.351 177.452 272.233C177.531 272.917 176.835 273.239 176.357 273.601L176.346 273.589Z" fill="#CAF0F8"/>
<path d="M148.329 537.719C151.271 535.187 154.394 532.842 157.173 530.14C163.85 523.663 170.347 516.994 176.962 510.449C187.58 499.943 197.604 488.865 207.515 477.692C217.718 466.191 226.821 453.825 234.497 440.436C235.828 438.118 236.906 435.688 238.057 433.286C238.675 431.998 239.461 431.851 240.101 432.845C241.994 435.796 243.717 438.638 241.904 442.521C238.293 450.236 234.643 457.888 229.701 464.879C220.571 477.794 210.115 489.555 199.238 500.971C191.899 508.669 184.672 516.48 177.327 524.172C173.654 528.015 170.004 531.881 165.933 535.328C164.153 536.832 162.261 537.849 159.975 538.228C156.454 538.804 152.945 539.46 149.418 540.031C148.542 540.172 147.627 540.505 146.549 539.912C146.729 538.68 147.655 538.296 148.323 537.725L148.329 537.719Z" fill="#D9DCCF"/>
<path d="M69.6749 486.948C73.8639 495.443 76.9356 504.35 79.3277 513.505C81.4279 521.548 81.5009 529.749 81.1752 537.972C81.0797 540.3 80.3216 542.375 77.9969 544.002C76.9917 542.386 77.0142 540.826 76.8682 539.323C76.2056 532.371 75.2509 525.465 73.7179 518.643C71.7526 509.888 68.8999 501.428 64.7333 493.504C61.8751 488.073 58.5115 482.901 55.2377 477.696C53.4745 474.893 52.3009 471.858 50.9981 468.845C48.6846 463.499 50.2625 458.361 51.4361 453.173C51.5484 452.687 51.773 452.139 52.3907 452.145C52.9859 452.15 53.233 452.67 53.4015 453.156C54.3617 455.869 55.5185 458.486 56.8044 461.057C61.1114 469.676 65.4072 478.301 69.6693 486.942L69.6749 486.948Z" fill="#D9DCCF"/>
<path d="M11.8265 49.4476C30.5257 41.2187 49.079 32.645 67.11 23.0257C81.2888 15.4637 96.0854 9.30896 110.607 2.52687C112.241 1.76389 113.847 1.58868 115.649 1.95039C118.244 2.47035 120.894 2.73033 123.528 3.01292C136.612 4.3976 149.735 5.49404 162.774 7.20086C172.803 8.51772 182.832 9.45025 192.923 9.90804C199.846 10.2245 206.753 10.8914 213.666 11.4397C222.106 12.1066 230.535 12.943 238.98 13.4517C247.229 13.949 255.467 14.5029 263.688 15.3168C264.704 15.4185 265.732 15.5033 266.653 15.9893C267.585 16.4867 268.466 17.1027 268.208 18.3461C267.978 19.4425 267.012 19.7251 266.074 19.7477C263.733 19.7986 261.369 19.9229 259.044 19.7138C250.104 18.9113 241.176 18.0126 232.247 17.0971C221.387 15.9837 210.533 14.842 199.678 13.6721C188.52 12.4683 177.329 11.6488 166.154 10.6654C157.316 9.88543 148.527 8.51771 139.672 7.92993C134.18 7.56822 128.677 7.30259 123.185 6.95783C120.641 6.79959 118.103 6.5283 115.565 6.3644C113.954 6.26267 112.494 6.63569 111.634 8.18992C110.045 11.0667 108.377 13.9264 107.872 17.2384C106.187 28.3779 106.839 39.348 110.41 50.0863C110.899 51.5501 111.539 52.9404 112.325 54.2742C113.555 56.371 115.324 57.6031 117.75 57.7896C121.001 58.0383 124.241 58.4395 127.509 58.5639C132.602 58.756 137.69 59.146 142.772 59.5416C149.179 60.039 155.564 60.7398 161.988 61.045C169.827 61.418 177.654 62.1527 185.494 62.571C194.473 63.0514 203.35 64.4078 212.273 65.3629C220.887 66.2898 229.586 66.465 238.098 68.3131C240.687 68.8783 243.321 69.2287 245.938 69.6809C251.272 70.5908 256.702 70.7603 262.009 71.8455C263.008 72.0489 264.03 72.1846 264.918 72.7328C265.546 73.1228 266.097 73.6145 266.063 74.4227C266.029 75.2874 265.355 75.6208 264.648 75.8356C263.867 76.073 263.07 76.2482 262.278 76.4629C250.654 79.6279 238.84 81.996 227.12 84.7484C225.907 85.031 224.7 85.0479 223.476 84.9349C206.31 83.3637 189.2 81.1991 171.989 80.0348C152.346 78.7123 132.877 75.4908 113.195 74.4792C102.908 73.9479 92.6488 72.9532 82.3389 72.891C79.9804 72.8797 77.6613 72.5463 75.3309 72.2637C74.7525 72.1959 74.0618 72.2354 73.7754 71.2972C74.4717 70.376 75.6454 70.2856 76.673 70.0143C85.7587 67.6067 94.586 64.3795 103.475 61.3558C104.149 61.1241 104.823 60.8754 105.469 60.5759C105.845 60.4007 106.165 60.0616 105.98 59.6038C105.8 59.163 105.328 59.0951 104.935 59.1969C103.75 59.5021 102.571 59.8242 101.409 60.2085C91.7222 63.43 82.1031 66.855 72.2649 69.6074C68.8058 70.5738 65.3299 71.2747 61.708 71.0825C59.3439 70.9525 57.0191 71.2068 54.7842 72.0772C44.8899 75.9204 34.945 79.6336 25.354 84.2567C19.4747 87.0939 13.3707 89.4676 7.33983 91.9883C5.31267 92.836 4.72867 92.5421 3.89759 90.3549C2.72398 87.2578 2.15121 84.025 2.12313 80.7074C2.09505 77.4237 2.15682 74.1344 2.10628 70.8508C2.04451 66.5894 3.02721 62.5257 3.9706 58.4056C5.00944 53.8786 7.59813 51.2957 11.8153 49.442L11.8265 49.4476ZM117.89 62.1866C122.972 62.571 128.059 62.9327 133.147 63.2887C143.322 64.0009 153.508 64.5039 163.683 65.0973C174.179 65.7133 184.646 66.5611 195.079 67.7593C202.171 68.5731 209.19 69.9804 216.271 70.9186C229.013 72.6028 241.743 74.3944 254.552 75.4965C255.618 75.5869 256.764 75.8865 257.662 74.9539C257.247 73.9423 256.427 74.1175 255.764 74.0553C242.86 72.8571 230.052 70.8508 217.198 69.2174C209.814 68.2792 202.486 66.838 195.09 65.9733C185.572 64.8656 176.032 63.9443 166.435 63.5318C155.126 63.0457 143.839 62.1358 132.54 61.4124C127.857 61.1128 123.174 60.802 118.491 60.5589C117.446 60.5081 116.261 60.2368 115.352 61.2259C116.014 62.3223 117.014 62.1188 117.884 62.1866H117.89Z" fill="#B8EDF4"/>
<path d="M255.443 26.6151C244.886 25.5582 234.38 24.0097 223.795 23.2749C211.469 22.4215 199.323 20.0704 187.026 18.9005C170.977 17.3802 154.945 15.8259 138.851 14.8538C130.816 14.3734 122.819 13.2431 114.806 12.3727C113.835 12.2653 112.554 12.2258 112.543 10.8241C112.532 9.59206 113.363 8.74431 114.514 8.33738C115.705 7.91915 116.929 8.13392 118.153 8.2413C122.724 8.65388 127.283 9.22471 131.882 9.22471C136.38 9.22471 140.845 9.68814 145.309 10.1629C156.062 11.3102 166.799 12.6101 177.586 13.3957C191.832 14.43 206.011 16.1255 220.218 17.5836C231.988 18.7875 243.747 20.0647 255.544 20.9973C258.661 21.2403 261.778 21.5172 264.894 21.7772C264.939 22.0202 264.984 22.2633 265.029 22.5063C262.451 25.2587 259.565 27.0277 255.455 26.6151H255.443Z" fill="#B8EDF4"/>
<path d="M89.2167 551.408C90.3567 550.47 91.592 550.413 92.9116 551.012C94.9725 551.939 96.0394 553.731 95.6014 555.596C95.0792 557.823 92.7207 559.66 90.4633 559.597C88.6889 559.552 86.7403 558.467 86.1732 557.139C85.387 555.291 86.4933 554.03 87.622 552.827C88.1049 552.312 88.6664 551.86 89.2111 551.414L89.2167 551.408Z" fill="#F4CCB5"/>
<path d="M60.0511 274.744C65.5149 275.185 70.3216 277.293 74.2692 281.051C77.3128 283.951 77.6553 286.771 75.9707 289.874C75.1958 291.304 74.4377 291.654 73.0058 290.947C72.0175 290.461 71.1415 289.721 70.243 289.048C69.0189 288.133 67.9182 286.878 66.4246 286.562C62.0446 285.641 59.3829 282.249 56.1821 279.638C55.6374 279.192 55.1938 278.604 54.7614 278.039C54.0314 277.089 54.3009 276.315 55.3061 275.789C56.7829 275.01 58.3889 274.778 60.0511 274.738V274.744Z" fill="black"/>
<path d="M72.0621 149.987C73.2694 148.483 74.735 147.5 76.678 147.251C77.8066 147.104 78.9129 146.72 79.7271 145.917C82.2653 143.414 85.2807 143.103 88.5377 143.86C91.1713 144.471 93.5241 143.99 95.832 142.532C100.161 139.791 104.895 138.361 110.073 138.621C111.802 138.706 113.537 138.593 115.211 138.022C120.5 136.219 126.02 136.157 131.495 136.134C136.184 136.112 140.884 136.315 145.562 135.925C148.527 135.676 151.447 135.756 154.412 135.874C160.235 136.112 165.979 137.14 171.78 137.412C179.636 137.773 186.925 140.514 194.405 142.487C195.174 142.69 195.904 143.142 196.594 143.572C198.464 144.731 200.48 145.403 202.676 145.409C205.326 145.414 207.646 146.2 209.74 147.879C213.609 150.981 217.899 152.807 223.015 152.219C224.868 152.004 226.665 152.598 228.277 153.576C230.068 154.661 231.988 155.248 234.083 155.254C235.722 155.26 237.042 155.887 237.997 157.272C238.345 157.775 238.721 158.283 239.176 158.679C243.163 162.172 245.269 166.778 246.83 171.706C247.296 173.187 247.694 174.679 248.862 175.776C250.867 177.658 251.833 180.122 252.906 182.58C254.933 187.232 255.848 192.177 256.831 197.094C257.712 201.497 258.976 205.798 258.959 210.421C258.931 217.48 257.033 224.471 258.263 231.558C258.296 231.756 258.246 231.971 258.218 232.169C257.544 236.939 257.039 241.743 256.112 246.462C255.691 248.604 255.775 250.74 255.421 252.848C255.242 253.911 255.017 255.448 253.664 255.358C252.361 255.267 252.659 253.758 252.636 252.809C252.462 245.394 251.429 238.08 250.025 230.818C248.52 223.052 246.807 215.372 243.522 208.087C240.462 201.31 235.672 195.918 230.815 190.504C228.832 188.294 225.811 188.277 223.56 186.7C223.475 186.644 223.38 186.604 223.29 186.553C221.454 185.581 219.511 185.005 217.422 185.056C215.861 185.095 214.345 184.869 212.986 184.095C209.156 181.93 205.001 181.608 200.8 182.105C196.381 182.625 192.029 182.196 187.705 181.501C184.752 181.026 181.893 180.563 178.973 181.687C178.159 182.004 177.16 181.891 176.244 181.874C168.153 181.738 160.201 183.213 152.199 184.072C151.306 184.168 150.357 184.44 149.588 184.892C147.157 186.316 144.551 187.073 141.783 187.384C141.182 187.452 140.502 187.542 140.025 187.865C137.56 189.521 134.82 189.464 132.057 189.345C128.396 189.057 124.993 189.554 121.882 191.81C120.433 192.861 118.614 193.477 116.766 193.742C113.363 194.234 112.835 194.698 112.689 198.19C112.549 201.615 111.943 204.955 110.797 208.137C109.449 211.885 109.062 215.733 109.068 219.633C109.068 221.481 108.702 223.075 107.551 224.494C106.114 226.263 105.075 228.252 104.249 230.366C103.531 232.208 102.52 233.87 100.875 235.034C98.971 236.385 97.7132 238.216 96.8709 240.358C96.0623 242.415 94.6809 244.032 93.1142 245.541C91.6093 246.987 89.7955 247.909 87.948 248.79C85.1796 250.119 82.4 251.401 80.5975 254.114C80.0247 254.979 79.0308 255.414 78.1211 255.878C76.6611 256.618 75.364 257.647 73.9545 258.444C70.8997 260.162 68.53 262.965 64.6667 263.434C58.675 264.157 53.5931 266.774 50.0723 272.013C48.9885 273.624 48.4101 273.585 46.7311 272.59C46.2931 272.33 45.8944 272.002 45.462 271.725C41.054 268.899 36.2753 269.481 32.7095 273.285C32.221 273.805 31.8054 274.41 31.2776 274.884C30.3847 275.693 29.7277 275.523 29.6098 274.359C29.3234 271.606 28.4811 268.95 28.526 266.136C28.6777 256.776 28.0824 247.468 26.5607 238.222C26.3136 236.707 26.1957 235.164 26.0946 233.632C26.016 232.468 26.2967 231.372 27.2233 230.569C28.6552 229.331 29.0707 227.692 29.1943 225.895C29.256 224.98 29.3178 224.013 29.6491 223.177C31.3506 218.881 31.446 214.343 31.5359 209.85C31.5864 207.216 32.2434 205.006 34.0909 203.175C35.7081 201.57 36.4044 199.632 36.4999 197.371C36.6347 194.262 37.039 191.233 39.3862 188.837C39.8579 188.356 40.0488 187.576 40.3015 186.909C40.7451 185.74 41.374 184.688 42.2781 183.829C44.0245 182.156 45.0858 180.11 45.8327 177.816C46.9333 174.447 48.747 171.537 51.4986 169.203C53.3741 167.614 54.9127 165.665 56.0639 163.46C56.8781 161.906 57.9731 160.878 59.7813 160.623C61.7186 160.352 63.1674 159.261 64.1276 157.543C65.2563 155.525 66.8847 153.999 68.8052 152.767C70.0125 151.987 71.1636 151.123 72.0621 149.992V149.987Z" fill="black"/>
<path d="M48.8981 339.223C49.9874 339.489 51.0656 339.896 52.1662 339.986C56.8157 340.354 56.6754 341.32 57.4727 345.242C57.6131 345.943 57.7142 346.655 57.8097 347.26C57.8995 348.413 57.9501 349.481 56.8214 350.035C55.9004 350.493 54.9627 350.261 54.2551 349.617C52.228 347.757 50.2177 345.87 48.3028 343.892C47.6907 343.259 47.3763 342.309 47.0001 341.473C46.7024 340.823 46.4329 340.077 46.9214 339.427C47.4605 338.709 48.2074 339.059 48.8981 339.223Z" fill="black"/>
<path d="M168.148 306.185C168.305 306.061 168.479 305.948 168.653 305.846C173.859 302.788 179.216 300.115 185.252 299.166C186.347 298.99 187.482 298.872 188.582 298.951C190.104 299.064 190.475 299.793 189.958 301.257C188.403 305.654 183.955 308.864 179.25 308.96C178.031 308.983 176.813 308.96 175.594 308.96V308.932C174.982 308.932 174.375 308.96 173.763 308.932C172.039 308.836 170.316 308.757 168.597 308.587C168.019 308.53 167.323 308.384 167.199 307.632C167.081 306.914 167.665 306.558 168.142 306.185H168.148Z" fill="#90E0EF"/>
<path d="M31.6602 278.326C33.4964 273.506 38.876 269.007 44.5363 273.392C48.6467 276.574 53.2738 279.022 57.0417 282.701C58.979 284.594 60.8939 286.804 63.6623 287.539C65.9084 288.132 67.7783 289.268 69.5528 290.687C70.6703 291.585 71.8327 292.433 73.2197 292.874C75.2974 293.535 76.544 292.965 77.3863 290.975C77.785 290.031 78.0433 289.02 78.4925 288.11C79.273 286.538 79.7728 286.295 81.0419 287.307C83.0466 288.912 85.3096 289.172 87.6849 289.082C94.3279 288.827 100.932 289.658 107.563 289.703C112.443 289.732 113.151 290.41 113.151 295.231C113.151 300.069 115.442 303.098 119.519 305.195C124.713 307.868 130.087 310.055 135.652 311.819C145.147 314.82 154.963 316.165 164.767 317.499C171.562 318.42 178.401 318.132 185.23 317.544C188.043 317.301 190.261 316.052 192.283 314.221C193.585 313.039 194.68 311.689 195.59 310.197C197.134 307.659 198.617 305.082 200.127 302.522C201.447 300.289 203.07 298.317 205.176 296.802C207.798 294.92 210.263 294.982 212.852 296.751C214.362 297.785 214.784 299.357 215.115 300.962C217.221 311.186 220.539 320.952 225.593 330.108C226.727 332.165 227.598 334.375 228.536 336.539C230.383 340.795 229.58 343.18 225.537 345.497C223.841 346.47 222.005 347.091 220.163 347.713C219.248 348.024 218.113 348.007 217.659 349.092C217.917 349.793 218.456 349.861 218.945 349.77C222.718 349.058 226.205 347.707 229.091 345.062C230.624 343.655 231.237 341.869 231.13 339.795C231.04 338.122 230.54 336.568 229.822 335.081C228.575 332.493 227.289 329.927 226.065 327.327C225.644 326.428 224.712 325.434 225.38 324.496C226.194 323.36 227.463 324.156 228.491 324.416C232.848 325.502 237.138 326.864 241.614 327.412C243.13 327.598 244.657 327.723 246.174 327.949C249.054 328.384 249.655 329.073 249.722 331.945C249.779 334.324 249.346 336.641 248.914 338.97C247.892 344.486 245.578 349.521 243.175 354.518C238.34 364.566 234.864 375.039 233.309 386.128C233.005 388.27 232.657 390.417 231.686 392.362C226.963 401.823 223.021 411.628 219.192 421.479C217.389 426.114 214.548 429.901 210.903 433.128C208.685 435.094 206.36 436.943 204.041 438.791C200.846 441.34 197.162 442.82 193.153 443.391C187.156 444.245 181.147 444.137 175.173 443.069C169.641 442.08 164.161 440.842 158.781 439.232C148.146 436.055 138.178 431.46 129.138 424.887C118.042 416.817 107.451 408.158 97.2872 398.918C88.1004 390.564 81.7607 380.516 78.1612 368.658C77.3863 366.104 76.7854 363.504 76.0835 360.927C74.5 355.077 72.7199 349.284 70.2772 343.728C67.6043 337.647 66.6384 336.455 59.8326 338.178C55.4975 339.275 51.4207 338.433 47.3496 336.585C39.3196 332.945 35.0407 326.361 32.7552 318.245C30.1721 309.072 29.6443 299.628 29.8689 290.156C29.9644 286.165 30.2058 282.119 31.6546 278.321L31.6602 278.326ZM181.204 341.79C179.508 340.925 178.227 339.676 177.166 338.133C176.105 336.59 175.796 334.753 174.942 333.047C173.847 336.5 175.442 339.134 177.778 341.372C180.064 343.559 182.849 344.441 186.01 343.813C184.713 342.332 182.759 342.581 181.204 341.79ZM185.774 339.71C185.988 340.637 186.695 340.332 187.246 340.247C188.655 340.038 190.048 339.687 191.457 339.54C195.225 339.139 198.757 339.75 201.851 342.169C202.458 342.643 203.087 343.293 204.316 342.988C201.009 337.557 190.789 335.833 185.774 339.716V339.71ZM225.093 342.954C224.161 341.394 223.122 341.598 222.168 341.688C220.826 341.818 219.641 342.429 218.473 343.045C214.205 345.3 209.763 346.944 204.889 347.176C204.389 347.199 203.873 347.261 203.379 348.199C205.271 349.103 207.079 348.809 208.826 348.47C211.319 347.984 213.745 347.216 216.041 346.097C218.843 344.74 221.41 342.79 225.093 342.948V342.954ZM165.048 381.533C167.541 383.522 170.287 385.11 173.19 386.399C178.34 388.682 183.27 391.367 188.021 394.385C193.484 397.855 199.527 398.963 205.254 399.115C214.216 399.138 221 395.617 226.565 389.485C227.53 388.422 228.277 387.19 228.94 385.907C230.215 383.432 230.675 380.968 229.541 378.232C228.721 376.249 228.165 374.135 227.126 372.247C223.678 365.985 218.4 362.509 211.257 362.52C206.939 362.532 202.716 362.357 198.544 361.164C196.152 360.475 193.72 360.616 191.272 361.096C182.259 362.854 173.87 366.29 165.907 370.772C160.039 374.078 159.843 377.362 165.054 381.527L165.048 381.533ZM55.0595 296.435C54.4194 294.926 52.7684 296.372 51.6341 296.729C47.9954 297.865 44.7328 299.78 41.8016 302.194C36.3041 306.721 36.5849 313.328 42.4024 317.397C43.621 318.25 44.7946 319.302 46.6196 319.42C46.642 318.137 45.884 317.883 45.3337 317.487C44.5026 316.9 43.5873 316.425 42.7899 315.792C38.5447 312.452 38.2976 307.557 42.307 303.991C45.2326 301.386 48.7478 299.724 52.336 298.232C53.3974 297.791 55.52 297.514 55.0595 296.435ZM37.8933 320.771C42.9471 324.659 48.5625 326.717 54.9921 325.728C59.4395 325.044 60.8153 322.178 58.7601 318.194C58.5747 317.832 58.3389 317.493 58.1367 317.137C56.3679 314.045 56.3903 313.141 58.8667 310.683C61.2308 308.337 62.3988 305.472 63.039 302.307C63.2355 301.329 63.4489 300.323 62.6178 299.277C61.6857 300.029 61.798 300.803 61.6913 301.487C61.1859 304.731 59.8213 307.467 57.4404 309.784C54.6608 312.491 54.5429 314.215 56.4465 317.719C56.497 317.81 56.5532 317.894 56.5981 317.985C58.7713 321.964 57.7942 323.885 53.3019 324.269C48.2761 324.705 43.9467 322.76 39.8362 320.121C39.0669 319.629 38.292 319.143 37.5002 318.697C37.371 318.623 37.1296 318.759 36.8937 318.804C36.5287 319.805 37.298 320.319 37.8877 320.771H37.8933ZM32.3565 308.004C32.379 308.772 32.2105 309.682 33.3897 310.338C34.2938 308.823 33.9681 307.359 33.9569 305.975C33.8839 299.159 34.6027 292.473 37.0285 286.052C37.5002 284.809 37.9831 283.554 38.6233 282.401C40.1282 279.694 42.1273 279.31 44.7104 281.056C45.7492 281.757 46.395 283.08 47.9055 283.3C47.2317 280.661 44.9125 278.603 42.3744 278.321C39.9092 278.044 38.2527 279.332 37.2194 281.395C35.5685 284.702 34.3837 288.194 33.575 291.806C32.3846 297.141 32.188 302.561 32.3621 308.004H32.3565Z" fill="#AB7C70"/>
<path d="M250.042 271.862C244.949 271.523 239.867 271.308 234.763 271.308C231.455 271.308 228.378 272.111 226.025 274.388C222.639 277.672 218.714 278.616 214.233 278.135C213.323 278.039 212.397 278.073 211.481 278.056C208.539 278.005 206.175 276.779 204.322 274.501C202.643 272.438 200.958 270.376 199.251 268.335C197.69 266.47 195.702 265.317 193.366 264.673C183.332 261.915 173.342 259.021 163.021 257.433C151.627 255.681 140.228 254.082 128.711 253.319C123.466 252.974 119.434 254.178 117.66 259.711C117.126 261.372 115.812 262.09 114.094 262.045C113.28 262.022 112.46 262.045 111.651 261.96C99.8532 260.785 88.0441 260.705 76.2237 261.553C75.4656 261.61 74.6233 262.028 73.7305 261.107C74.6851 260.05 75.752 259.14 77.0155 258.513C79.4189 257.32 81.6538 255.964 83.2205 253.663C83.7989 252.81 84.7984 252.386 85.7137 251.923C87.1737 251.188 88.6281 250.447 90.0993 249.735C93.929 247.887 96.8209 245.157 98.3652 241.083C98.9099 239.641 99.5781 238.155 100.909 237.313C103.38 235.747 104.727 233.396 105.856 230.83C106.726 228.852 107.76 226.97 109.119 225.28C110.466 223.607 111.022 221.782 110.775 219.566C110.472 216.803 110.747 213.971 111.539 211.337C112.847 206.997 113.97 202.651 114.262 198.112C114.352 196.705 114.931 195.806 116.48 195.716C118.682 195.592 120.776 194.727 122.45 193.512C125.881 191.025 129.637 190.726 133.534 191.104C135.96 191.342 138.173 191.274 140.222 189.759C140.761 189.358 141.547 189.2 142.238 189.115C144.995 188.764 147.612 188.092 150.044 186.622C150.959 186.069 152.172 185.905 153.272 185.769C161.359 184.769 169.411 183.356 177.609 183.582C178.514 183.604 179.479 183.514 180.316 183.209C182.332 182.474 184.286 182.74 186.336 183.067C190.963 183.813 195.618 184.565 200.329 183.898C204.603 183.293 208.663 183.768 212.475 185.905C214.031 186.775 215.665 187.188 217.473 186.899C219.146 186.628 220.719 187.125 222.184 187.911C223.717 188.73 225.262 189.51 226.941 190.002C227.828 190.262 228.676 190.686 229.305 191.375C231.927 194.241 234.819 196.92 237.048 200.074C240.541 205.019 243.265 210.473 244.899 216.351C248.234 228.344 250.593 240.512 250.93 253.008C251.019 256.337 251.592 259.53 253.361 262.429C254.057 263.571 254.456 264.854 254.759 266.159C255.882 270.969 254.984 272.184 250.037 271.851L250.042 271.862Z" fill="#AB7C70"/>
<path d="M59.2084 340.28C62.0385 338.064 66.1097 338.89 67.7943 342.094C69.9057 346.101 71.3881 350.368 72.6123 354.72C73.9768 359.558 75.1448 364.452 76.5992 369.268C79.7887 379.853 84.9661 389.354 92.8838 397.097C105.125 409.067 118.271 420.009 132.68 429.221C149.768 440.141 168.534 445.77 188.901 445.544C192.624 445.504 196.19 444.854 199.632 443.407C200.621 442.989 201.575 442.232 202.94 442.65C203.08 443.905 202.434 444.634 201.968 445.397C196.426 454.406 190.485 463.166 183.174 470.796C173.689 480.697 164.255 490.644 154.85 500.62C145.781 510.233 135.763 518.835 125.666 527.33C121.208 531.083 116.614 534.677 111.617 537.707C110.101 538.628 108.528 539.295 106.737 539.295C103.373 539.3 100.004 539.436 96.6517 539.023C92.7322 538.537 92.5357 538.306 92.9624 534.434C92.9737 534.332 92.9905 534.231 93.0017 534.129C94.1585 523.781 94.3157 513.489 92.1987 503.191C90.0817 492.877 87.3133 482.839 82.1865 473.582C79.7045 469.1 77.2169 464.618 74.718 460.148C73.7185 458.35 72.6628 456.559 72.309 454.513C71.0063 447.03 69.3385 439.621 68.2323 432.104C65.857 415.934 65.565 399.589 64.0713 383.341C62.9145 370.76 61.8251 358.196 59.0904 345.836C58.8265 344.637 58.6356 343.417 58.4727 342.196C58.3717 341.455 58.5626 340.783 59.2027 340.286L59.2084 340.28Z" fill="#896058"/>
<path d="M114.704 537.888C115.007 537.623 115.378 537.425 115.709 537.188C127.541 528.716 138.395 519.068 148.868 508.991C161.48 496.857 172.773 483.423 185.256 471.153C185.913 470.508 186.469 469.768 187.069 469.067C194.628 460.364 200.72 450.643 206.493 440.701C207.74 438.554 209.228 436.688 211.137 435.055C215.472 431.359 218.976 426.996 220.953 421.53C221.509 419.988 222.199 418.495 222.873 416.998C224.108 414.257 224.889 413.997 227.596 415.404C231.858 417.614 234.598 421.259 236.855 425.374C237.866 427.216 237.945 429.059 237.204 431.003C236.361 433.207 235.519 435.411 234.351 437.468C227.287 449.902 219.027 461.511 209.795 472.362C198.323 485.853 186.188 498.756 173.727 511.337C164.074 521.08 154.41 530.807 143.567 539.256C142.045 540.443 140.507 541.2 138.592 541.313C136.66 541.432 134.734 541.658 132.522 541.867C128.012 541.46 123.234 541.053 118.466 540.596C117.354 540.488 116.231 540.302 115.159 540.002C113.71 539.595 113.575 538.872 114.698 537.888H114.704Z" fill="#F5ECEA"/>
<path d="M171.101 532.919C181.416 522.814 190.985 511.991 200.986 501.591C209.291 492.95 217.321 484.082 224.632 474.559C231.141 466.087 237.351 457.451 241.366 447.425C241.939 445.995 242.562 444.588 243.219 443.198C244.281 440.954 244.831 440.818 246.471 442.542C248.032 444.187 249.711 445.707 251.575 446.939C253.63 448.295 254.001 449.957 253.411 452.229C252.097 457.31 250.401 462.244 248.458 467.116C244.511 477.006 238.744 485.851 233.033 494.73C231.309 497.409 229.248 499.817 227.013 502.089C221.819 507.379 215.94 511.804 209.886 515.998C198.745 523.707 187.116 530.489 174.116 534.575C173.145 534.88 172.162 535.151 171.404 535.378C170.668 535.423 170.101 535.541 169.877 534.92C169.725 534.496 170.006 534.134 170.27 533.823C170.534 533.512 170.809 533.207 171.101 532.919Z" fill="#F5ECEA"/>
<path d="M55.1088 480.761C58.9385 487.289 63.223 493.545 66.1823 500.588C71.1913 512.518 73.8024 525.009 75.1894 537.816C75.5881 541.489 76.0654 545.152 75.8127 548.853C75.7173 550.255 75.7903 551.713 74.7627 553.07C73.7687 552.391 73.8305 551.623 73.7126 550.939C71.6686 539.449 67.9793 528.535 62.7457 518.108C58.5173 509.681 53.9745 501.435 49.6619 493.054C48.7241 491.228 47.7639 489.369 47.6067 487.295C47.2192 482.27 47.2978 477.252 48.1738 472.272C48.2749 471.685 48.3142 470.905 49.0274 470.775C49.9651 470.605 50.1392 471.515 50.4087 472.131C51.7396 475.138 53.4467 477.93 55.1032 480.756L55.1088 480.761Z" fill="#F5ECEA"/>
<path d="M66.5589 432.117C67.8224 439.295 69.0634 446.478 70.2819 453.667C70.6132 455.617 71.2253 457.442 72.1855 459.166C74.5271 463.377 76.7957 467.633 79.2216 471.792C87.903 486.696 91.362 503.018 92.4346 519.143C92.1482 524.348 91.9348 528.654 91.6597 532.955C91.334 538.11 90.7949 538.675 85.7916 539.336C83.2254 539.675 82.6021 539.234 82.501 536.685C82.4055 534.329 82.456 531.961 82.4729 529.598C82.5066 524.664 82.5291 519.736 81.3947 514.887C79.5136 506.867 76.88 499.101 73.668 491.534C69.8944 482.649 65.0989 474.268 60.966 465.564C58.4222 460.2 55.4629 455.023 54.031 449.157C53.3571 446.41 53.6042 443.912 54.6374 441.352C56.2771 437.294 58.7479 433.801 61.6286 430.574C62.5046 429.596 63.4311 428.296 64.9136 428.743C66.441 429.201 66.3343 430.845 66.5589 432.123V432.117Z" fill="#F5ECEA"/>
<path d="M167.372 371.931C175.054 367.805 183.039 364.487 191.597 362.679C193.321 362.317 195.045 362.193 196.752 362.656C201.615 363.973 206.551 364.205 211.582 364.272C217.282 364.352 221.987 367.002 225.121 371.959C226.715 374.479 227.676 377.317 228.445 380.205C228.95 382.098 228.675 383.839 227.518 385.461C221.976 393.238 214.586 397.476 204.692 397.527C200.205 397.471 195.617 396.566 191.456 394.164C184.291 390.022 176.946 386.224 169.54 382.55C167.703 381.64 166.036 380.436 164.525 379.046C162.649 377.311 162.644 375.904 164.396 374.056C165.255 373.157 166.299 372.507 167.378 371.925L167.372 371.931ZM172.499 377.718C176.671 377.769 180.843 377.786 185.016 377.735C189.39 377.684 193.725 377.594 198.06 378.673C201.019 379.413 204.147 379.131 207.174 378.633C212.093 377.831 216.681 378.696 221.016 381.143C221.948 381.668 222.863 382.415 224.042 382.16C224.402 381.199 223.694 380.968 223.234 380.651C218.596 377.435 213.463 376.085 207.881 376.853C203.692 377.43 199.587 377.452 195.471 376.361C194.214 376.028 192.849 376.005 191.529 376.005C185.016 376 178.502 376.034 171.988 376.085C171.112 376.09 170.146 375.887 169.208 376.876C170.258 377.944 171.438 377.707 172.504 377.718H172.499Z" fill="#C8878C"/>
<path d="M11.372 100.996C11.3439 98.2156 12.5906 96.7575 15.0838 95.7175C23.2823 92.3152 31.4077 88.7207 39.5669 85.2053C44.2557 83.1876 48.9221 81.1191 53.6502 79.1919C56.0143 78.2254 56.7892 78.7058 57.3396 81.1869C58.0303 84.3067 58.2212 87.483 58.1257 90.1393C58.1201 100.109 56.0256 108.434 51.6736 116.346C50.8257 117.889 49.8879 119.291 48.2314 120.139C36.7648 125.977 25.096 131.374 13.2307 136.348C9.6874 137.834 9.09779 137.382 9.36171 133.539C10.1029 122.693 11.4899 111.882 11.372 100.985V100.996Z" fill="#F8F8F8"/>
<path d="M258.942 69.6054C256.808 69.4359 254.68 69.1703 252.558 68.882C240.344 67.2148 228.265 64.7054 215.906 63.852C203.406 62.9929 191.007 60.9187 178.457 60.3875C160.735 59.6301 143.103 57.4768 125.375 56.7138C122.634 56.5951 119.905 56.1317 117.171 55.8095C115.402 55.6061 114.206 54.6057 113.363 53.0572C112.381 51.2429 111.696 49.3213 111.134 47.3376C108.798 39.1426 108.366 30.7667 108.86 22.3173C108.967 20.4862 109.292 18.638 109.747 16.8577C110.292 14.7383 111.095 14.2071 113.246 14.1336C113.953 14.111 114.672 14.1732 115.379 14.2523C120.652 14.8118 125.919 15.377 131.192 15.9535C142.344 17.1742 153.581 17.276 164.733 18.4346C176.295 19.6327 187.885 20.6105 199.402 22.1252C210.83 23.6342 222.274 24.9171 233.752 25.9344C240.659 26.5448 247.549 27.2796 254.439 28.0764C257.774 28.4608 258.072 28.879 257.746 32.2248C257.291 36.9271 256.803 41.618 257.027 46.7272C256.679 53.628 257.437 60.6983 260.694 67.3504C261.565 69.1364 261.003 69.7693 258.942 69.5998V69.6054Z" fill="#F8F8F8"/>
<path d="M9.43875 93.1085C19.6251 88.6266 29.8057 84.1335 40.0314 79.7478C45.0964 77.5718 50.2345 75.5542 55.3838 73.5817C58.3937 72.4287 59.3314 72.9204 60.5949 75.9046C61.9651 79.1543 62.6838 82.5623 62.9141 86.0721C63.6216 97.0873 61.2126 107.458 56.7315 117.467C54.8953 121.571 52.0876 124.159 47.8929 125.781C36.6565 130.127 25.9704 135.796 14.6723 140.024C13.6952 140.391 12.5384 140.719 12.0106 142.454C14.6386 142.194 16.7837 141.363 18.8726 140.442C29.6092 135.683 40.2953 130.811 51.0768 126.16C53.9968 124.9 55.9454 122.984 57.3324 120.209C60.7184 113.449 62.9028 106.294 64.0764 98.8563C65.2388 91.4751 65.0198 84.1165 62.6333 76.9332C62.5041 76.5432 62.3413 76.1589 62.2683 75.7576C61.9651 74.1299 62.3974 73.5139 64.1101 73.3104C65.0198 73.203 65.9464 73.2991 66.8617 73.2369C70.478 73.0052 73.9202 74.3956 77.4804 74.4464C87.1725 74.5934 96.8422 75.1529 106.512 75.7633C115.367 76.3228 124.24 76.6562 133.05 77.7809C148.436 79.7421 163.873 81.2229 179.332 82.3702C195.409 83.5627 211.407 85.5634 227.45 87.095C242.472 88.5306 257.42 90.7347 272.531 91.2434C275.687 91.3508 276.4 91.9951 277.057 95.1544C278.045 99.8906 278.567 104.723 278.365 109.538C278.045 117.241 276.973 124.871 275.142 132.377C274.479 135.084 273.289 137.588 272.284 140.165C271.076 143.251 269.162 144.511 265.747 144.353C258.616 144.025 251.496 143.477 244.37 143.064C237.547 142.669 230.724 142.284 223.918 141.674C205.421 140.012 187.02 137.486 168.579 135.321C153.777 133.581 138.913 132.637 124.071 131.484C113.801 130.687 103.519 130.071 93.3101 128.584C83.4158 127.143 73.5271 125.634 63.5261 125.148C62.5715 125.103 61.527 124.623 60.5668 125.595C61.4653 127.07 62.8972 126.804 64.1326 126.883C70.8542 127.324 77.5365 128.161 84.202 129.11C90.1599 129.958 96.0785 131.32 102.059 131.693C109.084 132.128 116.081 132.919 123.117 133.14C124.054 133.168 125.121 133.061 125.958 134.18C124.363 134.999 122.836 134.96 121.331 135.005C119.489 135.061 117.642 135.056 115.923 135.847C113.823 136.819 111.616 137.056 109.348 136.926C104.271 136.633 99.6387 138.074 95.4215 140.804C93.3214 142.16 91.2549 142.736 88.7729 142.143C86.4706 141.595 83.9774 141.414 81.8604 142.539C79.1762 143.968 76.7054 145.766 73.5945 146.252C73.0554 146.337 72.5107 146.851 72.1233 147.303C71.0058 148.603 69.6132 148.869 67.9904 148.778C62.4929 148.479 56.973 148.416 51.4867 147.953C46.096 147.495 40.694 147.399 35.3088 146.834C26.0771 145.867 16.823 145.161 7.58005 144.347C6.87252 144.285 6.15936 144.223 5.45744 144.098C4.94082 144.008 4.47475 143.748 4.37929 143.16C4.28944 142.578 4.6432 142.16 5.07559 141.894C5.85613 141.42 6.67036 140.984 7.50144 140.6C16.2221 136.582 25.2797 133.355 33.905 129.11C38.577 126.81 43.2153 124.436 47.9603 122.3C50.1278 121.322 51.7451 119.977 52.8737 117.914C58.7362 107.221 60.9038 95.827 59.3202 83.7209C59.0956 81.9915 58.8766 80.2451 58.2252 78.6117C57.5851 76.9954 56.7821 76.5941 55.1087 76.9558C54.5134 77.0858 53.9351 77.3062 53.3735 77.5436C44.8101 81.1494 36.2466 84.7608 27.6887 88.3836C22.6124 90.5313 17.5474 92.7185 12.4654 94.8548C10.6797 95.6065 8.85475 96.1039 6.96798 94.9792C7.45652 93.6058 8.59082 93.4815 9.47244 93.0972L9.43875 93.1085Z" fill="#F4B8FF"/>
<path d="M239.064 155.808C237.834 154.254 236.144 153.666 234.212 153.621C232.875 153.587 231.5 153.463 230.365 152.751C227.092 150.711 223.503 150.338 219.78 150.417C218.135 150.451 216.389 150.36 215.114 149.252C210.947 145.624 206.214 143.629 200.677 143.431C199.357 143.386 197.903 142.877 197.105 140.707C219.64 143.075 241.776 145.302 264.041 145.562C264.625 145.568 265.287 145.641 265.591 146.359C265.428 147.229 264.63 147.337 264.007 147.613C262.233 148.399 260.441 149.134 258.661 149.897C253.501 152.101 248.346 154.305 243.191 156.515C241.658 157.171 240.26 157.301 239.075 155.808H239.064Z" fill="#F4B8FF"/>
</g>
<defs>
<clipPath id="clip0_22_1329">
<rect width="292" height="568" fill="white"/>
</clipPath>
</defs>
</svg>
