<svg width="269" height="568" viewBox="0 0 269 568" fill="none" xmlns="http://www.w3.org/2000/svg">
<path d="M199.859 146.134C200.082 146.876 200.578 147.043 201.058 147.188C211.632 150.371 220.645 156.374 229.129 163.158C234.959 167.818 239.14 173.916 242.874 180.393C248.281 189.785 251.654 199.969 255.032 210.153C258.666 221.123 261.509 232.316 263.382 243.726C265.232 255.002 265.438 266.284 263.186 277.56C262.139 282.822 261.319 288.129 260.372 293.413C260.227 294.221 260.154 295.002 260.282 295.821C261.336 302.504 261.007 309.132 259.541 315.726C258.265 321.473 256.67 327.114 254.541 332.605C252.345 338.279 249.229 343.257 244.346 347.064C241.297 349.444 238.939 352.526 236.587 355.581C235.31 357.242 234.72 359.115 234.703 361.233C234.608 373.385 234.575 385.525 235.589 397.66C236.498 408.557 237.122 419.477 238.192 430.357C238.727 435.798 239.357 441.227 240.617 446.567C241.481 450.235 242.73 453.752 244.307 457.163C244.864 458.373 245.528 459.382 247.016 459.789C250.533 460.747 252.964 463.139 254.719 466.243C256.47 469.337 257.841 472.609 259.162 475.898C261.464 481.634 263.833 487.336 266.871 492.737C268.069 494.878 267.869 495.513 265.717 496.94C263.777 498.228 261.826 499.51 259.831 500.702C253.287 504.604 247.256 509.209 241.319 513.963C232.691 520.875 223.482 526.979 214.207 532.965C199.318 542.575 184.363 552.09 169.709 562.057C167.619 563.478 165.629 565.061 163.555 566.51C161.42 568.004 160.997 567.837 160.367 565.234C158.7 558.333 156.844 551.499 153.845 545.033C152.686 542.531 151.236 540.273 149.051 538.473C147.641 537.308 146.476 537.302 144.96 538.211C141.108 540.529 138.148 543.595 136.337 547.737C133.979 553.121 131.643 558.506 129.977 564.158C129.776 564.838 129.553 565.512 129.263 566.153C129.157 566.382 128.829 566.644 128.589 566.655C128.076 566.683 127.965 566.237 127.931 565.813C127.914 565.613 127.875 565.379 127.953 565.211C129.286 562.268 127.808 559.749 126.855 557.101C123.94 548.996 121.655 540.691 119.436 532.374C118.834 530.122 118.254 527.859 117.29 525.73C115.846 522.542 110.261 519.448 106.978 519.95C105.707 520.145 105.741 521.154 105.724 522.034C105.651 526.187 105.59 530.334 106.042 534.481C106.655 540.134 107.92 545.663 108.985 551.232C109.174 552.224 109.291 553.233 109.364 554.236C109.42 554.955 109.308 555.674 108.6 556.098C107.725 556.616 107.051 556.103 106.398 555.613C105.913 555.245 105.462 554.838 105.022 554.42C101.304 550.947 98.0094 547.09 95.161 542.898C91.0641 536.867 87.1622 530.702 83.121 524.632C81.0697 521.55 80.2113 518.439 80.9471 514.61C81.995 509.153 82.4521 503.579 83.6059 498.122C84.4476 494.142 85.6293 490.273 87.413 486.611C88.9849 483.384 90.9637 480.452 94.1521 478.59C95.2669 477.938 95.6683 477.04 95.6738 475.842C95.6738 475.335 95.6404 474.822 95.7129 474.326C96.3539 469.833 95.0551 466.411 91.0641 463.746C87.4799 461.355 85.3506 457.487 83.2715 453.769C80.2615 448.373 77.3016 442.949 74.4533 437.47C71.5938 431.979 69.1857 426.283 67.6696 420.263C64.4087 407.314 59.314 395.112 52.9707 383.39C50.7522 379.288 47.6697 375.715 45.7746 371.423C45.2394 370.207 44.0299 370.124 42.9206 370.074C40.2785 369.945 37.7144 369.355 35.1169 368.948C30.2173 368.178 26.5105 365.508 23.5674 361.718C20.379 357.616 17.9431 353.061 16.0201 348.24C14.6265 344.734 12.9376 341.412 10.4627 338.53C9.00228 336.83 7.51956 335.158 5.39026 334.277C3.92427 333.669 3.27768 332.46 2.84848 331.066C1.92318 328.062 1.18739 325.024 0.669003 321.913C0.128316 318.692 1.22084 316.39 4.03576 314.812C10.3958 311.245 16.8283 307.817 23.4225 304.695C25.5239 303.697 27.5919 302.616 29.6877 301.607C31.215 300.871 31.9229 299.723 31.9341 297.995C31.962 294.745 31.661 291.746 30.1671 288.631C25.8416 279.628 23.3834 270.002 22.1794 260.086C20.7357 248.196 21.962 236.435 24.1359 224.74C25.3511 218.191 28.1827 212.249 31.1258 206.34C37.6698 193.197 46.5995 181.903 57.6418 172.283C62.3965 168.141 67.7978 164.891 73.2939 161.848C80.3841 157.924 87.5301 154.1 94.8767 150.677C97.608 149.406 100.44 148.336 103.165 147.199C103.182 146.012 102.363 145.934 101.75 145.716C100.122 145.142 98.5556 144.451 97.0451 143.609C90.1499 139.769 86.1087 133.821 85.4844 126.09C84.587 115.003 83.7453 103.861 84.2525 92.7347C84.6037 85.0313 84.4086 77.3613 84.2581 69.6691C84.024 57.6179 84.2302 45.5667 84.5368 33.5155C84.7542 25.1153 84.7319 16.7096 85.3896 8.32061C85.7241 4.01183 86.4989 2.89701 90.7686 1.84908C95.7184 0.633932 100.802 0.483432 105.847 0.338505C112.725 0.143412 119.603 0.366375 126.487 0.695247C134.269 1.06871 142.084 0.817876 149.882 0.829024C166.086 0.845746 182.279 1.81564 198.488 1.47005C202.234 1.39201 205.98 1.38643 209.725 1.40315C210.729 1.40315 211.754 1.51464 212.735 1.7376C216.799 2.6852 217.49 3.63837 217.501 7.75762C217.563 25.9849 217.457 44.2122 217.797 62.4339C218.003 73.5765 217.395 84.7024 217.674 95.8394C217.791 100.393 217.707 104.948 217.975 109.502C218.382 116.291 217.958 123.058 216.855 129.786C215.974 135.148 213.677 139.563 208.951 142.522C207.384 143.503 205.745 144.206 203.928 144.579C202.496 144.88 200.963 145.042 199.859 146.123V146.134ZM113.182 467.598C123.65 467.91 133.555 465.647 143.031 460.948C150.01 457.487 157.106 454.265 164.068 450.753C178.042 443.702 191.264 435.552 203.215 425.369C211.961 417.91 217.59 408.496 221.375 397.827C224.965 387.704 226.81 377.286 226.358 366.529C226.23 363.502 227.356 361.473 230.026 360.196C232.016 359.243 233.354 357.677 234.536 355.832C236.999 351.975 239.931 348.452 243.454 345.536C247.975 341.802 250.912 337.069 252.98 331.69C255.349 325.531 257.127 319.193 258.337 312.716C259.418 306.914 259.892 301.066 258.27 295.258C255.879 286.702 250.087 281.702 241.592 279.89C235.728 278.642 229.268 282.56 227.479 288.263C225.26 295.331 222.707 302.248 219.246 308.809C218.917 309.433 218.655 310.096 218.371 310.743C216.704 314.511 215.935 318.419 216.208 322.566C216.437 326.105 216.804 329.622 217.328 333.129C217.73 335.832 218.276 338.513 218.27 341.267C218.27 342.928 218.053 344.528 216.905 345.81C215.896 346.936 214.848 348.279 213.114 347.816C211.548 347.398 211.715 345.765 211.359 344.544C211.303 344.349 211.297 344.143 211.264 343.942C209.569 334.065 207.891 324.188 206.158 314.316C205.757 312.025 205.249 309.745 204.608 307.51C204.045 305.537 203.521 305.314 201.793 306.172C191.364 311.351 180.952 316.557 170.545 321.774C167.674 323.212 165.874 325.581 164.915 328.619C164.179 330.966 163.867 333.357 164.085 335.815C164.414 339.544 164.709 343.279 165.043 347.008C165.517 352.292 163.327 356.222 158.639 358.602C155.456 360.219 152.117 361.372 148.644 362.125C137.385 364.561 125.975 364.867 114.509 364.578C112.385 364.522 110.585 363.925 108.845 362.76C103.734 359.332 99.4586 355.057 95.9302 350.046C93.7173 346.902 91.6605 343.647 89.5256 340.447C88.16 338.396 86.5267 336.618 84.2525 335.542C81.8557 334.411 81.014 334.689 80.1444 337.214C79.0296 340.464 77.9872 343.742 77.1957 347.103C75.451 354.488 73.6562 361.869 70.9081 368.976C70.256 370.67 69.7153 372.426 69.3418 374.204C68.2214 379.533 70.2671 383.786 75.0831 386.356C76.5157 387.119 78.0207 387.721 79.6149 388.061C80.6015 388.273 81.5937 388.474 82.5803 388.697C83.1823 388.836 83.8791 389.031 83.7341 389.806C83.5892 390.564 82.8534 390.57 82.2458 390.464C79.0407 389.89 75.8301 389.187 73.1712 387.214C68.7956 383.964 66.3039 379.834 67.7532 374.115C68.0542 372.939 68.3273 371.751 68.528 370.553C68.8011 368.886 68.4723 368.557 66.7443 368.875C61.1591 369.906 55.5627 370.653 49.8604 370.464C47.7088 370.391 47.3632 371.133 48.4167 373.095C48.9406 374.07 49.604 374.979 50.2171 375.91C51.7277 378.184 53.2494 380.453 54.5872 382.844C61.042 394.399 65.9918 406.539 69.2694 419.371C70.6016 424.583 72.4633 429.627 74.9549 434.404C78.3719 440.954 81.9114 447.448 85.4509 453.93C86.2703 455.435 87.2402 456.879 88.277 458.25C91.9503 463.105 96.4208 466.544 102.837 467.063C106.265 467.336 109.676 467.787 113.188 467.609L113.182 467.598ZM258.605 289.885C259.552 288.915 259.574 287.767 259.775 286.696C260.132 284.807 260.405 282.9 260.795 281.016C262.757 271.54 263.515 261.998 262.696 252.332C261.676 240.253 258.421 228.637 255.388 216.987C253.549 209.924 250.823 203.135 248.304 196.301C245.143 187.717 240.985 179.585 235.383 172.316C228.137 162.912 218.293 156.954 207.657 152.149C201.191 149.228 194.43 147.901 187.29 148.113C182.73 148.247 178.198 149.122 173.655 148.782C169.826 148.492 167.485 150.265 165.339 153.186C154.698 167.639 150.935 184.083 151.554 201.625C151.983 213.754 154.949 225.532 159.43 236.758C166.543 254.578 178.917 268.079 195.311 277.917C198.354 279.745 201.676 280.983 205.16 281.813C207.117 282.282 208.945 282.237 210.818 281.579C214.352 280.336 217.897 279.121 221.448 277.928C226.392 276.262 231.392 275.32 236.665 276.122C239.229 276.512 241.414 277.822 243.855 278.48C249.162 279.902 253.209 283.157 256.464 287.493C257.061 288.285 257.395 289.311 258.61 289.89L258.605 289.885ZM233.103 375.781C233.103 371.935 233.131 368.084 233.086 364.238C233.075 363.284 233.471 361.997 232.317 361.534C231.169 361.077 230.238 362.036 229.329 362.655C228.293 363.362 228.098 364.461 228.07 365.603C228.014 368.034 227.964 370.464 227.93 372.894C227.774 385.179 224.458 396.701 219.151 407.649C216.136 413.864 212.351 419.683 207.145 424.332C199.881 430.815 192.173 436.729 183.856 441.829C169.319 450.747 153.973 458.083 138.422 464.989C132.346 467.687 125.941 469.047 119.263 469.181C112.881 469.309 106.51 469.471 100.183 468.295C97.9035 467.871 97.268 468.256 97.2624 470.129C97.2513 475.385 96.6995 480.68 97.5579 485.898C98.9625 494.398 101.281 502.698 103.678 510.964C105.707 517.954 105.373 517.614 111.722 519.264C112.017 519.342 112.301 519.448 112.591 519.532C115.835 520.502 118.032 522.603 119.152 525.769C119.96 528.06 120.69 530.379 121.337 532.72C123.254 539.649 125.172 546.577 127.446 553.4C127.736 554.264 127.998 555.139 128.36 555.975C128.628 556.588 128.756 557.48 129.676 557.413C130.356 557.363 130.579 556.661 130.813 556.12C131.883 553.606 132.92 551.076 133.985 548.556C134.731 546.784 135.556 545.05 136.61 543.422C138.594 540.357 141.404 538.233 144.492 536.432C149.832 533.322 155.378 530.529 160.484 527.079C169.72 520.831 179.296 515.145 188.744 509.248C205.522 498.768 221.738 487.531 236.219 473.952C238.811 471.522 241.208 468.93 243.476 466.193C244.926 464.443 245.377 462.827 244.051 460.725C242.98 459.025 242.272 457.091 241.487 455.229C237.785 446.4 237.089 436.963 236.141 427.604C235.439 420.653 234.943 413.685 234.48 406.712C233.794 396.411 232.752 386.127 233.098 375.776L233.103 375.781ZM126.114 149.707C125.473 148.715 124.587 148.922 123.817 148.838C121.906 148.637 119.994 148.47 118.082 148.292C110.819 147.628 103.801 148.163 97.0897 151.519C90.1165 155.008 83.2269 158.643 76.3373 162.288C71.8613 164.657 67.5748 167.349 63.3775 170.187C54.682 176.067 48.0488 183.999 41.8002 192.227C35.6464 200.331 30.8806 209.328 27.6253 218.954C23.7513 230.404 23.0546 242.366 23.428 254.35C23.7346 264.249 26.4269 273.692 29.5707 283.045C31.6777 289.322 35.7133 293.502 41.5159 296.445C48.7567 300.119 56.2483 302.543 64.4366 302.655C68.0877 302.705 68.4723 302.399 67.703 298.736C67.6194 298.341 67.5302 297.945 67.4355 297.555C64.4087 285.08 66.1813 273.252 72.2125 261.986C72.7364 261.005 73.3886 260.041 73.6506 258.982C75.3061 252.304 78.7397 246.44 81.9727 240.476C86.6048 231.925 91.0808 223.308 94.559 214.205C95.2948 212.271 95.6181 210.398 95.3282 208.291C94.3305 201.128 94.0908 193.982 96.3817 186.954C98.3996 180.766 101.019 174.863 104.291 169.245C105.518 167.138 106.989 165.203 108.667 163.431C113.149 158.693 118.249 154.724 123.84 151.38C124.603 150.923 125.54 150.7 126.12 149.691L126.114 149.707ZM101.315 296.25C102 296.981 102.837 296.758 103.606 296.646C108.511 295.927 113.433 295.358 118.277 294.249C124.185 292.889 129.72 290.682 134.325 286.674C144.687 277.655 152.552 266.919 156.409 253.547C157.162 250.927 157.975 248.285 157.775 245.498C157.412 240.459 157.05 235.459 155.473 230.554C151.069 216.853 148.628 202.918 150.322 188.397C151.721 176.413 154.982 165.209 161.989 155.265C163.037 153.777 164.085 152.283 165.088 150.767C165.684 149.858 165.378 149.211 164.324 149.005C163.733 148.888 163.115 148.86 162.513 148.86C156.537 148.86 150.556 148.643 144.598 148.961C140.183 149.195 135.718 148.983 131.354 150.298C125.077 152.194 119.949 155.9 114.999 159.964C110.98 163.264 107.463 167.015 104.999 171.664C103.004 175.421 101.237 179.284 99.5757 183.202C96.3539 190.811 95.9414 198.687 96.9001 206.753C98.4776 219.98 103.734 231.948 110.105 243.374C114.397 251.078 116.878 258.921 115.952 267.705C114.871 278.006 111.443 287.198 103.154 294.026C102.418 294.628 101.359 295.052 101.315 296.256V296.25ZM234.508 278.302C233.304 277.349 232.066 277.605 230.929 277.694C228.404 277.895 225.901 278.374 223.488 279.132C217.507 281.016 211.531 282.939 205.589 284.952C190.89 289.935 176.821 296.412 162.825 303.051C160.969 303.931 159.068 304.522 157.061 304.857C150.562 305.955 143.979 306.351 137.424 306.657C127.808 307.114 118.243 307.956 108.723 309.31C103.221 310.091 97.6526 310.815 92.8868 314.104C88.2157 317.32 83.0708 318.798 77.3852 318.313C76.4822 318.235 75.5569 318.246 74.6539 318.335C72.023 318.591 69.6205 317.934 67.4299 316.518C64.8268 314.834 62.0063 314.533 58.9907 314.784C51.0254 315.442 43.0433 315.849 35.0444 315.927C28.467 315.994 21.9007 316.429 15.3456 316.964C14.3813 317.042 12.8205 317.449 12.7313 316.261C12.6087 314.617 14.3478 315.186 15.3121 315.107C19.0412 314.806 22.7814 314.584 26.5216 314.427C28.3054 314.355 29.3477 313.636 29.6877 311.836C30.0445 309.946 30.5406 308.084 30.9419 306.206C31.1091 305.431 31.4491 304.528 30.6632 303.954C30.0222 303.486 29.3087 303.954 28.6621 304.244C28.4782 304.327 28.2886 304.405 28.1103 304.494C21.5718 307.716 15.0279 310.927 8.50618 314.171C7.24086 314.801 6.02014 315.537 4.81056 316.272C2.90422 317.432 2.02351 319.071 2.27434 321.367C2.5642 323.998 3.22752 326.534 3.87969 329.087C4.33676 330.865 5.25649 332.192 6.94544 332.995C8.2442 333.608 9.25311 334.622 10.2509 335.637C13.573 339.015 15.8974 343 17.5975 347.404C19.3924 352.053 21.6889 356.439 24.6488 360.458C27.2073 363.931 30.5127 366.144 34.8326 367.058C42.6419 368.702 50.5125 368.836 58.4054 368.396C60.9082 368.256 63.4556 368.033 65.9026 367.314C68.8234 366.456 70.8245 364.828 71.6216 361.679C72.9817 356.283 74.4979 350.927 75.7353 345.492C76.5213 342.042 77.1511 338.53 78.6283 335.28C79.7431 332.822 80.975 332.337 83.4944 333.201C86.811 334.333 89.1856 336.596 91.0696 339.466C93.3494 342.933 95.5735 346.445 97.9815 349.823C101.058 354.137 104.76 357.855 109.096 360.943C111.064 362.342 113.149 363 115.59 363.078C125.138 363.385 134.609 362.543 144.029 361.144C149.252 360.364 154.324 358.976 158.957 356.272C161.303 354.901 162.725 352.922 163.154 350.269C163.332 349.182 163.354 348.05 163.288 346.947C163.037 342.705 162.613 338.469 162.463 334.221C162.229 327.443 164.776 322.326 171.22 319.299C180.289 315.035 189.045 310.135 198.142 305.91C203.493 303.424 208.527 300.297 212.401 295.76C217.607 289.667 224.352 285.52 230.65 280.799C231.827 279.918 233.404 279.628 234.502 278.296L234.508 278.302ZM72.5079 266.708C72.1567 266.947 71.9226 267.02 71.8446 267.176C71.5603 267.711 71.2983 268.257 71.0698 268.82C67.5414 277.627 66.8558 286.685 68.7342 295.949C69.1579 298.028 69.7766 300.069 70.2448 302.142C70.635 303.87 70.2671 304.444 68.489 304.439C62.3073 304.422 56.0866 304.428 50.206 302.203C45.3788 300.381 40.6464 298.285 36.3655 295.331C36.031 295.102 35.7022 294.868 35.3566 294.656C34.4536 294.104 33.807 294.238 33.623 295.375C33.5394 295.871 33.5171 296.384 33.5171 296.886C33.5171 301.367 32.8538 305.754 31.8449 310.113C30.9865 313.842 31.4547 314.26 35.4067 314.126C43.701 313.848 52.0064 313.781 60.2951 313.207C63.1044 313.012 65.7187 313.502 68.1434 315.002C69.5258 315.854 71.0252 316.663 72.6584 316.696C79.0407 316.83 85.4621 317.086 91.0641 313.106C94.8712 310.403 99.2691 309.244 103.773 308.396C118.539 305.62 133.505 305.013 148.455 304.154C153.187 303.881 157.992 303.564 162.357 301.429C174.737 295.381 187.284 289.723 200.16 284.823C200.902 284.545 201.749 284.428 202.262 283.357C183.549 275.264 170.149 261.451 160.261 243.804C159.542 246.184 159.525 248.486 159.012 250.716C155.64 265.381 147.502 277.142 136.627 287.153C131.538 291.841 125.367 294.584 118.572 296.022C114.007 296.986 109.403 297.638 104.782 298.168C102.68 298.408 100.54 298.268 98.4163 298.257C97.792 298.257 97.2011 298.006 96.967 297.354C96.705 296.618 97.2457 296.234 97.7418 295.877C98.3996 295.403 99.0852 294.974 99.7541 294.511C105.323 290.621 109.247 285.476 111.543 279.077C112.435 276.591 113.188 274.065 113.678 271.479C115.133 263.815 114.631 256.357 111.164 249.244C110.763 248.425 110.328 247.622 109.854 246.847C109.169 245.727 108.288 245.632 107.374 246.563C106.242 247.722 105.077 248.859 104.068 250.119C98.1822 257.466 93.6727 265.571 90.9637 274.606C88.0763 284.227 85.7018 293.948 86.1533 304.121C86.17 304.522 86.1533 304.94 86.0418 305.325C85.6962 306.501 84.6427 306.936 83.6951 306.2C83.0764 305.715 82.5803 305.03 82.1399 304.361C80.5736 301.981 79.286 299.444 78.4109 296.741C75.5625 287.951 73.4444 279.004 73.1824 269.707C73.1545 268.742 73.4555 267.678 72.5135 266.708H72.5079ZM159.425 38.181C153.048 38.181 146.666 38.1699 140.289 38.181C133.505 38.1977 126.722 38.1866 119.938 38.2813C116.984 38.3204 116.309 38.861 116.304 41.5478C116.281 49.4407 115.545 57.3336 116.387 65.2265C116.638 67.5565 116.632 69.8697 116.064 72.1663C114.871 77.0269 111.108 79.9365 106.393 79.6133C102.184 79.3234 99.2803 76.1796 98.7452 71.2075C98.132 65.561 97.9815 59.9032 98.4107 54.2288C98.7396 49.8922 98.9291 45.5388 99.0908 41.191C99.1967 38.3817 98.6337 37.841 95.802 37.6626C93.4832 37.5177 91.1588 37.7016 88.8511 37.1777C86.6772 36.6872 86.3317 36.9714 86.2425 39.1732C86.0864 42.9134 86.0028 46.6592 85.9303 50.405C85.8021 57.1887 85.7352 63.9612 86.0195 70.7504C86.3372 78.3312 86.6104 85.9287 85.7854 93.5039C85.4677 96.4303 85.6014 99.3678 85.7185 102.305C85.7575 103.325 85.9359 104.323 86.3985 105.243C87.2458 106.921 88.3718 107.406 90.1053 106.597C92.9314 105.276 95.9135 105.02 98.957 104.786C105.311 104.29 111.716 104.518 118.032 103.548C125.629 102.378 132.886 100.31 138.734 94.9476C142.842 91.1739 146.733 87.194 149.698 82.4114C151.833 78.9667 153.957 75.5219 156.058 72.0603C158.633 67.8185 161.075 63.493 163.773 59.3347C166.409 55.2768 169.692 51.8152 174.597 50.5388C179.408 49.2846 186.197 49.9201 189.257 56.5644C189.804 57.7517 190.601 58.8275 191.242 59.9757C194.402 65.6223 201.526 65.0258 204.692 61.4027C205.69 60.26 206.66 59.0894 207.546 57.8631C209.463 55.221 211.47 52.6904 214.564 51.3136C215.366 50.9568 215.907 50.3827 215.952 49.4797C216.141 45.7339 216.097 41.9881 215.779 38.2535C215.673 37.0216 215.01 36.4809 213.7 36.8265C208.048 38.3148 202.228 37.7685 196.487 38.0361C184.146 38.6214 171.788 38.0194 159.436 38.1754L159.425 38.181ZM247.646 462.013C247.412 463.339 247.239 464.538 246.375 465.463C243.549 468.501 241.029 471.806 238.003 474.671C230.857 481.438 223.287 487.67 215.405 493.556C198.739 506.003 180.484 515.987 163.176 527.441C159.297 530.005 155.155 532.174 151.192 534.615C149.246 535.814 149.202 536.254 150.835 537.815C153.009 539.894 154.447 542.408 155.707 545.083C157.658 549.219 159.051 553.556 160.305 557.937C160.779 559.593 161.175 561.271 161.727 562.904C162.312 564.637 162.858 564.832 164.386 563.818C166.069 562.698 167.652 561.421 169.308 560.25C186.509 548.088 204.659 537.369 222.039 525.468C225.628 523.01 229.329 520.708 232.813 518.088C242.919 510.479 252.696 502.408 263.666 495.998C265.628 494.85 265.661 494.487 264.519 492.291C261.52 486.533 259.062 480.541 256.687 474.51C255.611 471.779 254.469 469.064 252.93 466.556C251.709 464.566 250.249 462.81 247.663 462.013H247.646ZM177.195 111.976C184.09 112.177 191.169 112.121 198.243 111.698C200.121 111.586 202.122 111.832 203.8 110.561C205.082 109.585 206.576 108.799 206.916 107.015C207.223 105.416 205.818 104.752 205.038 103.755C203.087 101.246 203.56 98.6097 206.364 97.1716C208.783 95.9342 211.269 95.4214 213.906 96.8595C215.467 97.7123 215.835 97.4169 216.013 95.7224C216.063 95.2207 216.058 94.7079 216.046 94.2062C215.985 91.5418 215.751 91.3188 213.27 92.2051C209.976 93.3757 207.094 92.5842 204.43 90.5942C203.544 89.9309 202.758 89.1227 201.938 88.3757C198.46 85.1985 194.09 84.5798 189.854 86.6032C187.056 87.9354 185.244 90.1873 183.878 92.8461C182.769 95.0033 181.788 97.233 180.751 99.4291C178.817 103.509 175.673 106.157 171.331 107.4C167.424 108.52 163.472 109.195 159.38 109.301C154.804 109.418 150.306 108.565 145.746 108.593C144.67 108.599 142.803 109.184 142.786 107.562C142.775 106.218 144.581 106.737 145.601 106.675C151.298 106.341 156.777 105.226 162.139 103.153C169.391 100.349 174.285 95.3991 177.279 88.3144C178.772 84.7749 180.545 81.3524 182.239 77.8964C183.36 75.6166 184.765 73.504 186.448 71.5977C189.826 67.7794 193.811 66.8541 198.51 68.7215C201.242 69.8028 203.31 71.7092 205.021 74.0169C206.347 75.8061 207.535 77.6958 208.861 79.485C209.887 80.8674 210.963 82.2163 212.613 82.9466C215.054 84.0335 215.957 83.5207 216.035 80.8507C216.113 78.0191 216.108 75.1818 216.102 72.3446C216.102 66.9768 216.097 61.6145 216.052 56.2467C216.046 55.2823 216.381 54.0282 215.277 53.5153C214.056 52.9468 213.22 54.0226 212.401 54.7249C211.007 55.9178 209.943 57.4061 208.912 58.9166C207.936 60.338 206.905 61.7093 205.656 62.9133C200.718 67.6568 194.168 67.066 190.249 61.4473C189.096 59.7918 188.12 58.0081 187.067 56.2745C185.015 52.9022 181.894 51.5365 178.087 51.7038C175.071 51.832 172.306 52.8297 170.06 54.8977C167.752 57.027 165.59 59.2845 164.001 62.0493C161.331 66.7037 158.644 71.3469 155.885 75.9511C152.078 82.2888 148.171 88.5206 142.697 93.6711C137.034 98.9999 130.69 102.857 123.02 104.49C117.547 105.655 112.011 106.112 106.443 106.179C102.285 106.23 98.1543 106.564 94.0351 107.032C93.093 107.138 91.6159 107.216 91.5713 108.353C91.5267 109.574 92.976 109.518 93.918 109.652C98.9347 110.366 103.968 110.845 109.046 110.756C119.364 110.577 129.681 111.029 139.999 111.062C152.334 111.107 164.659 112.372 177.206 111.982L177.195 111.976ZM155.372 8.47668C143.338 8.47668 132.296 8.45996 121.253 8.48783C117.797 8.49898 117.463 8.87244 117.324 12.334C117.145 16.7876 116.967 21.2358 116.822 25.6895C116.777 27.1053 116.822 28.5267 116.878 29.9425C116.928 31.1298 117.569 31.7987 118.795 31.8377C119.603 31.8656 120.417 31.9157 121.225 31.9046C128.41 31.7875 135.59 31.7652 142.78 31.4085C153.901 30.8567 165.049 31.0573 176.186 30.8288C184.062 30.6671 191.955 31.297 199.854 30.7508C204.402 30.433 208.951 30.5612 213.309 32.3505C214.909 33.0083 215.45 32.5066 215.773 30.7396C215.862 30.2435 215.89 29.7307 215.89 29.229C215.89 23.0529 215.924 16.8768 215.84 10.7007C215.807 8.17568 215.405 7.94157 212.936 8.20355C211.726 8.33175 210.511 8.38749 209.302 8.49898C200.216 9.34624 191.102 8.6662 182 8.89474C172.791 9.12327 163.566 9.17902 155.361 8.48225L155.372 8.47668ZM148.644 147.355C158.862 146.803 169.085 147.684 179.308 146.787C187.373 146.079 195.422 145.633 203.237 143.13C209.642 141.079 213.65 137.143 214.859 130.488C215.695 125.895 216.024 121.252 216.191 116.597C216.236 115.287 216.191 113.961 216.063 112.651C215.896 110.956 215.511 110.678 213.906 111.313C211.621 112.222 209.296 112.757 206.832 112.891C196.225 113.459 185.629 114.256 174.993 113.626C172.368 113.47 169.754 113.916 167.106 113.805C161.142 113.559 155.172 113.242 149.207 113.047C136.972 112.645 124.72 112.551 112.48 112.355C108.634 112.294 104.771 112.517 100.941 112.238C96.9336 111.949 92.831 111.937 89.0741 110.092C86.7441 108.95 86.4264 109.184 86.3205 111.91C86.1477 116.268 86.3316 120.622 86.9169 124.942C88.2046 134.44 93.1878 141.017 102.48 143.966C106.148 145.131 109.921 146.04 113.751 146.363C120.807 146.954 127.87 147.567 134.977 147.383C139.531 147.266 144.09 147.361 148.644 147.361V147.355ZM96.2313 216.53C94.9882 217.238 94.7987 218.414 94.3862 219.406C92.2569 224.556 89.8545 229.567 87.2235 234.478C84.4978 239.562 81.8055 244.662 79.0909 249.751C75.9304 255.688 74.4644 261.964 74.7933 268.731C75.2615 278.307 77.2347 287.572 80.1611 296.652C80.6517 298.185 81.4209 299.634 82.1399 301.078C82.4298 301.668 82.6862 302.443 83.5948 302.376C84.1299 302.059 84.1187 301.535 84.1466 301.044C84.5758 294.26 85.7185 287.588 87.2737 280.983C90.3673 267.828 96.1086 256.044 105.423 246.123C107.786 243.603 107.803 243.597 106.315 240.331C103.037 233.152 99.6036 226.039 97.4297 218.414C97.2402 217.75 97.0618 217.031 96.2313 216.524V216.53ZM115.094 24.0897C115.222 21.8657 115.378 19.6472 115.462 17.4231C115.545 15.2994 115.668 13.1701 115.551 11.0519C115.445 9.13442 115.005 8.86129 113.037 8.86687C109.598 8.87802 106.153 8.90588 102.714 8.95048C99.6036 8.9895 99.4531 9.11212 99.6036 12.2726C99.9436 19.4465 100.367 26.6203 100.702 33.7998C100.874 37.54 100.947 41.2914 100.624 45.0316C99.9269 53.0137 100.1 61.0125 100.245 69.0113C100.261 70.0147 100.468 71.0236 100.679 72.0102C101.404 75.3825 103.823 77.7236 106.711 77.9243C109.682 78.1305 112.753 75.9845 113.957 72.8965C114.642 71.1518 114.631 69.3346 114.609 67.5063C114.537 62.0437 114.408 56.5811 114.442 51.1073C114.492 42.094 115.088 33.103 115.088 24.0897H115.094ZM104.13 527.124C104.498 522.33 104.096 517.637 102.441 513.083C102.028 511.945 101.733 510.764 101.41 509.593C99.035 501.121 96.85 492.603 95.4676 483.902C95.3004 482.854 95.7017 481.299 94.5033 480.953C93.1878 480.574 92.4855 482.052 91.7274 482.943C88.84 486.349 87.4353 490.48 86.2815 494.682C84.3473 501.723 83.4777 508.958 82.6305 516.193C82.3239 518.824 82.9928 521.171 84.4532 523.372C88.5947 529.604 92.6137 535.92 96.8054 542.112C98.957 545.29 101.398 548.277 104.102 551.02C104.843 551.772 105.601 553.227 106.705 552.686C107.881 552.107 107.039 550.68 106.833 549.66C105.356 542.218 103.762 534.794 104.124 527.129L104.13 527.124ZM113.227 2.35633C108.773 2.35633 104.314 2.25599 99.86 2.38977C96.5267 2.49011 93.1878 2.8357 89.9715 3.83346C89.1577 4.08429 87.9649 4.25709 88.0764 5.43323C88.1823 6.50903 89.3027 6.67067 90.1666 6.86577C92.0451 7.28382 93.9403 7.60155 95.8856 7.31727C99.2134 6.82675 102.547 6.92708 105.886 7.18349C106.894 7.26153 107.915 7.36186 108.918 7.28382C119.23 6.45886 129.57 6.8379 139.888 6.84347C152.44 6.85462 164.993 6.72084 177.546 7.27825C184.625 7.5904 191.699 6.63723 198.795 6.91594C201.927 7.03857 205.071 6.89921 208.215 6.87134C210.049 6.85462 211.843 6.54247 213.588 5.99063C214.051 5.84571 214.575 5.6116 214.575 4.99845C214.575 4.37972 214.051 4.17348 213.583 3.99511C210.673 2.88029 207.624 2.72979 204.597 3.08096C201.565 3.4377 198.538 3.4377 195.5 3.43213C187.401 3.40983 179.308 3.25376 171.214 3.06981C159.38 2.80225 147.53 2.30059 135.685 2.82455C133.968 2.90259 132.229 2.94161 130.523 2.76323C124.765 2.16681 118.99 2.29501 113.221 2.35633H113.227ZM158.394 107.211C164.174 107.595 169.374 106.787 174.269 104.312C175.64 103.621 176.704 102.528 177.658 101.324C178.8 99.8806 179.564 98.2363 180.272 96.5529C181.487 93.66 182.758 90.7949 184.748 88.3144C188.7 83.3869 197.423 81.2632 202.719 86.8373C203.616 87.7849 204.653 88.6266 205.712 89.3958C208.243 91.2408 210.974 91.2464 213.767 90.0758C214.954 89.5797 215.851 88.7994 215.874 87.3891C215.901 85.9064 214.736 85.6054 213.655 85.3378C211.052 84.6801 209.185 83.0525 207.691 80.9343C206.76 79.6132 205.874 78.2587 204.987 76.9042C203.811 75.1205 202.49 73.4762 200.874 72.0659C197.323 68.9667 190.695 68.1752 187.011 73.4929C185.562 75.5776 184.185 77.6846 183.098 79.97C181.409 83.5318 179.726 87.0993 178.087 90.6834C175.417 96.525 171.309 100.912 165.344 103.459C163.672 104.173 162.011 104.914 160.356 105.678C159.737 105.962 158.968 106.023 158.394 107.205V107.211ZM225.127 287.538C224.157 287.137 223.588 287.85 222.953 288.285C220.762 289.773 218.906 291.646 217.083 293.547C213.934 296.836 210.94 300.308 207.094 302.833C205.617 303.803 205.617 305.007 205.996 306.523C208.622 317.047 210.311 327.755 212.133 338.43C212.457 340.325 212.802 342.22 213.159 344.11C213.254 344.6 213.404 345.13 213.973 345.286C214.67 345.475 215.115 345.001 215.506 344.533C216.632 343.179 216.754 341.568 216.531 339.929C216.069 336.518 215.411 333.129 215.088 329.706C214.642 324.99 213.661 320.275 214.859 315.509C215.807 311.741 217.367 308.229 219.157 304.823C221.665 300.041 223.421 294.979 224.987 289.84C225.21 289.104 225.651 288.33 225.127 287.532V287.538ZM164.241 32.6404C148.823 33.1197 134.258 33.5991 119.687 33.5044C119.185 33.5044 118.667 33.5266 118.182 33.6493C117.296 33.8722 116.783 34.452 116.878 35.4107C116.961 36.2747 117.58 36.6035 118.344 36.6537C119.353 36.7206 120.367 36.7318 121.376 36.7373C130.077 36.7708 138.773 36.4642 147.468 36.2022C160.417 35.8176 173.366 36.3248 186.309 36.6816C189.358 36.7652 192.368 36.1242 195.389 36.2747C199.647 36.4809 203.873 35.9402 208.12 35.9681C209.112 35.9737 210.11 35.6448 211.102 35.4553C211.509 35.3773 211.905 35.21 212.011 34.7752C212.178 34.1175 211.632 33.8834 211.191 33.6883C209.207 32.8132 207.106 32.6236 204.96 32.6236C191.097 32.6404 177.234 32.6292 164.23 32.6292L164.241 32.6404ZM86.3038 24.3127C86.3038 26.2302 86.2759 28.1477 86.3149 30.0651C86.3372 31.0796 86.6996 31.9325 87.9537 31.6538C90.7296 31.035 93.5668 31.0183 96.3762 30.7173C97.8589 30.5612 98.5947 29.8812 98.617 28.4319C98.6448 26.7151 98.6894 24.9983 98.617 23.287C98.4609 19.558 98.3104 15.8233 98.0038 12.0998C97.7864 9.45772 97.3293 9.11212 94.9046 8.9895C93.394 8.91146 91.889 8.96163 90.3785 8.67735C87.5858 8.15338 87.2402 8.35405 87.0619 11.3139C86.7999 15.645 86.1812 19.9593 86.3149 24.3071L86.3038 24.3127ZM215.428 104.858C215.455 104.005 215.238 102.919 214.92 101.848C213.772 97.9966 210.957 96.787 207.44 98.6321C205.428 99.6911 204.948 101.129 206.498 102.723C208.438 104.713 208.967 106.765 207.953 109.306C207.618 110.148 208.014 110.628 208.928 110.722C212.228 111.068 215.45 108.303 215.428 104.853V104.858ZM94.9046 32.6627C92.7419 32.7686 91.0139 32.6292 89.3695 33.2591C88.8957 33.443 88.3773 33.6381 88.2993 34.2067C88.1934 34.9703 88.8121 35.2435 89.3751 35.433C92.0117 36.3193 94.743 36.1465 97.4575 36.0406C98.2937 36.0071 98.7061 35.4609 98.7006 34.6359C98.7006 33.7608 98.4442 32.9915 97.452 32.8522C96.4598 32.7128 95.4509 32.7017 94.899 32.6682L94.9046 32.6627Z" fill="black"/>
<path d="M109.498 533.794C109.543 533.404 109.532 532.373 109.794 531.414C110.412 529.134 112.581 528.415 114.548 529.753C117.296 531.615 118.244 537.595 116.198 540.193C114.933 541.798 112.754 541.759 111.226 540.054C109.794 538.448 109.487 536.47 109.498 533.794ZM110.864 534.067C110.987 535.951 111.276 537.634 112.575 538.911C113.579 539.892 114.587 539.647 115.184 538.365C116.065 536.458 115.552 533.365 114.108 531.865C112.921 530.633 111.667 530.862 111.137 532.445C110.953 533.008 110.931 533.621 110.858 534.067H110.864Z" fill="black"/>
<path d="M101.672 429.768C95.5799 429.869 90.2176 427.466 84.9445 424.835C82.1408 423.436 79.4318 421.848 76.4886 420.716C75.6469 420.393 74.8443 419.913 74.1252 419.367C72.6202 418.224 72.2133 417.054 73.0884 415.387C75.385 411.023 78.5399 407.355 82.7149 404.668C84.2366 403.687 86.0371 403.637 87.7316 403.994C92.0459 404.897 96.0927 404.451 100.156 402.634C103.384 401.19 106.767 402.316 109.967 403.197C113.083 404.055 116.115 405.231 119.158 406.335C122.202 407.439 125.234 408.581 128.372 409.412C130.139 409.88 131.851 410.538 133.25 411.781C134.905 413.252 134.939 414.679 133.317 416.151C132.798 416.619 132.196 417.054 131.555 417.321C125.557 419.846 120.145 423.447 114.426 426.48C111.015 428.291 107.481 429.819 103.495 429.78C102.888 429.774 102.28 429.78 101.672 429.78V429.768ZM76.6893 418.208L76.6782 418.197C78.473 420.12 81.1207 420.499 83.2723 421.803C86.6502 423.849 90.2622 425.46 94.0303 426.691C100.496 428.815 106.773 428.615 112.809 425.231C114.749 424.144 116.745 423.141 118.668 422.026C122.174 419.997 125.736 418.085 129.454 416.463C130.607 415.956 132.335 415.627 132.274 414.105C132.202 412.494 130.435 412.16 129.164 411.597C128.796 411.435 128.395 411.346 128.004 411.24C124.286 410.242 120.713 408.821 117.101 407.489C114.253 406.441 111.421 405.315 108.495 404.534C105.886 403.838 103.144 403.107 100.485 404.417C96.6222 406.318 92.6591 406.887 88.406 405.973C86.3492 405.532 84.1976 405.515 82.308 406.965C79.4596 409.15 77.1297 411.797 75.2177 414.802C74.0193 416.68 74.3705 417.333 76.6949 418.208H76.6893Z" fill="black"/>
<path d="M240.282 320.577C239.407 319.696 239.836 318.52 239.736 317.483C239.312 313.269 237.623 309.891 233.56 308.096C231.224 307.065 230.533 307.539 230.204 310.103C229.619 314.679 229.959 319.228 230.946 323.687C231.726 327.232 231.208 330.526 229.887 333.776C229 335.95 228.159 338.102 228.348 340.515C228.393 341.117 228.348 341.864 227.546 341.886C226.782 341.909 226.67 341.151 226.559 340.565C226.23 338.81 226.693 337.143 227.267 335.51C227.768 334.077 228.331 332.667 228.878 331.251C230.282 327.617 229.664 324.3 227.317 321.251C226.018 319.568 224.708 317.873 223.945 315.861C223.571 314.886 223.008 313.838 224.156 312.606C225.5 314.59 225.634 317.177 227.724 318.42C228.716 317.734 228.315 316.864 228.354 316.101C228.649 310.744 228.499 305.359 229.402 300.047C229.669 298.453 230.059 296.876 230.438 295.304C230.606 294.618 230.857 293.949 231.124 293.297C233.203 288.214 238.003 284.579 242.969 284.735C248.538 284.908 251.592 288.687 253.894 293.186C254.959 295.265 255.305 297.617 255.717 299.908C256.626 304.93 256.514 309.997 256.308 315.058C256.258 316.262 255.957 317.461 255.711 318.648C255.628 319.061 255.288 319.395 254.831 319.211C254.613 319.122 254.362 318.76 254.362 318.525C254.385 317.21 254.424 315.894 254.552 314.59C255.154 308.475 254.569 302.461 253.147 296.508C252.417 293.442 250.817 290.923 248.443 288.888C245.288 286.19 241.631 285.861 238.047 287.968C235.611 289.401 233.794 291.396 232.774 294.05C231.709 296.803 231.007 299.652 230.812 302.606C230.645 305.17 230.661 305.17 233.075 306.095C238.738 308.258 241.782 312.974 241.297 318.854C241.241 319.507 241.397 320.331 240.288 320.577H240.282Z" fill="black"/>
<path d="M249.641 316.305C249.419 319.906 248.482 323.245 245.901 325.954C242.975 329.036 239.396 331.021 235.327 332.146C234.775 332.297 233.989 332.42 233.872 331.567C233.789 330.948 234.458 330.809 234.92 330.664C237.256 329.939 239.413 328.858 241.442 327.514C248.376 322.921 249.876 314.003 244.77 307.403C243.543 305.814 242.306 304.198 240.617 303.022C240.143 302.693 239.519 302.225 240.048 301.567C240.522 300.976 241.18 301.322 241.682 301.645C244.034 303.156 245.639 305.38 247.144 307.643C248.872 310.235 249.368 313.239 249.636 316.305H249.641Z" fill="black"/>
<path d="M117.586 372.539C118.406 372.723 118.411 373.264 118.445 373.76C118.84 379.646 113.673 387.271 108.06 389.094C107.575 389.25 107.012 389.44 106.728 388.871C106.432 388.269 106.984 387.974 107.414 387.728C108.896 386.87 110.329 385.961 111.639 384.836C114.515 382.355 116.098 379.206 116.711 375.493C116.878 374.49 116.644 373.275 117.592 372.545L117.586 372.539Z" fill="black"/>
<path d="M106.839 383.773C106.405 384.509 105.758 384.174 105.217 384.052C101.973 383.299 98.8015 383.439 95.6577 384.598C95.0724 384.815 94.175 385.35 93.8684 384.314C93.6622 383.617 94.4259 383.333 94.9833 383.11C98.4949 381.694 102.074 381.566 105.697 382.608C106.265 382.77 106.878 382.981 106.845 383.779L106.839 383.773Z" fill="black"/>
<path d="M134.844 317.344C136.159 317.344 137.475 317.4 138.79 317.333C144.192 317.071 147.871 319.339 149.872 324.406C151.438 328.375 152.335 332.539 153.021 336.736C153.506 339.73 153.941 342.734 153.896 345.789C153.835 350.047 153.456 350.649 149.42 352.305C145.936 353.732 142.313 354.651 138.618 355.309C132.731 356.357 126.761 356.608 120.819 357.137C117.625 357.422 114.816 356.63 112.325 354.629C111.299 353.804 110.184 353.074 109.242 352.165C104.209 347.294 99.7327 341.954 95.9646 336.028C94.1251 333.135 94.0136 330.103 94.978 326.998C96.299 322.751 99.5376 320.683 103.718 320.014C106.812 319.518 109.933 319.133 113.055 318.933C120.318 318.475 127.542 317.366 134.838 317.338L134.844 317.344ZM135.574 318.921C129.086 318.988 122.692 320.142 116.226 320.493C114.916 320.566 113.601 320.722 112.325 321.017C110.931 321.341 110.842 322.511 110.97 323.682C111.059 324.479 111.483 325.042 112.358 324.947C116.02 324.551 119.866 325.365 123.205 322.918C124.677 321.842 126.522 321.407 128.417 321.736C130.702 322.132 131.945 323.854 131.65 326.079C131.483 327.349 130.128 328.542 130.936 329.785C131.678 330.928 133.3 330.761 134.504 331.24C136.962 332.221 138.071 333.682 137.832 335.705C137.597 337.667 136.092 339.077 133.69 339.546C133.094 339.663 132.48 339.668 131.884 339.763C130.903 339.925 130.234 340.488 129.922 341.441C129.705 342.115 129.532 342.806 129.286 343.47C128.272 346.223 126.081 347.048 123.467 345.666C122.068 344.93 121.104 343.804 120.524 342.327C120.273 341.692 120.1 340.889 119.186 340.878C118.267 340.867 117.715 341.48 117.285 342.193C116.622 343.314 116.605 344.467 117.107 345.683C118.289 348.542 121.578 350.287 124.565 349.423C126.009 349.005 127.363 348.269 128.746 347.639C130.217 346.965 131.633 346.162 133.133 345.566C135.546 344.607 138.088 344.601 140.619 344.919C141.901 345.081 142.943 345.733 143.233 347.104C143.512 348.425 142.67 349.161 141.628 349.729C141.098 350.025 140.552 350.298 140.056 350.638C139.626 350.933 139.303 351.363 139.521 351.92C139.716 352.427 140.134 352.728 140.686 352.745C141.187 352.756 141.711 352.773 142.191 352.656C144.944 351.976 147.648 351.134 150.223 349.925C151.895 349.144 152.681 347.834 152.536 346.039C151.951 338.748 150.736 331.569 148.004 324.741C146.449 320.861 143.367 319.005 139.214 318.916C137.999 318.894 136.784 318.916 135.568 318.916L135.574 318.921ZM97.8096 335.298C98.8074 338.024 100.814 340.164 102.665 342.377C103.908 343.86 104.437 343.76 105.101 341.915C106.277 338.654 108.506 336.452 111.594 335.058C116.343 332.918 120.295 334.741 121.795 339.713C122.057 340.582 122.202 341.508 122.603 342.31C123.222 343.564 124.298 344.362 125.747 344.345C127.352 344.328 127.648 342.99 127.871 341.809C128.361 339.217 129.883 338.024 132.475 337.845C133.997 337.74 135.58 337.366 135.936 335.482C136.176 334.222 135.279 333.475 132.893 332.689C131.572 332.249 130.017 332.26 129.08 331.012C127.893 329.429 129.27 328.169 129.705 326.786C130.435 324.457 129.091 322.851 126.734 323.403C125.474 323.698 124.264 324.312 123.122 324.953C120.858 326.218 118.601 326.909 115.892 326.597C113.317 326.302 110.886 327.193 109.231 329.468C106.934 332.623 103.69 334.083 99.95 334.663C99.2756 334.769 98.5119 334.534 97.8096 335.304V335.298ZM115.747 340.716C114.76 340.683 114.471 341.117 114.197 341.53C112.118 344.696 112.469 350.655 114.883 353.559C115.708 354.551 116.745 355.114 118.016 355.186C123.902 355.515 129.727 354.88 135.518 353.91C136.137 353.804 136.906 353.57 136.912 352.94C136.94 350.437 138.439 349.166 140.44 348.107C141.371 347.617 141.026 346.864 140.167 346.608C139.415 346.385 138.573 346.324 137.781 346.363C135.635 346.474 133.601 347.048 131.683 348.018C129.788 348.977 127.915 349.98 125.975 350.844C123.094 352.132 120.407 351.491 118.021 349.618C115.686 347.778 114.716 345.343 115.362 342.36C115.468 341.881 115.585 341.402 115.747 340.711V340.716ZM99.8274 332.779C104.777 332.695 109.036 328.682 109.036 324.094C109.036 321.915 108.49 321.318 106.36 321.469C104.437 321.608 102.553 322.004 100.792 322.84C98.3113 324.011 96.9122 326.023 96.3771 328.654C95.7695 331.664 96.7728 332.834 99.8218 332.784L99.8274 332.779ZM110.859 350.421C110.981 350.27 111.187 350.131 111.204 349.975C111.249 349.479 111.265 348.971 111.204 348.475C110.697 344.016 111.834 340.276 115.842 337.767C116.249 337.511 116.828 337.31 116.622 336.658C116.438 336.078 115.881 335.989 115.385 336.012C112.246 336.134 109.766 337.606 107.921 340.042C105.089 343.771 106.438 348.369 110.859 350.421Z" fill="black"/>
<path d="M44.8552 323.537C48.1885 323.643 51.5218 323.442 54.8495 324.028C62.6143 325.382 67.3689 330.806 68.5061 338.342C69.3032 343.609 68.7402 348.871 67.1906 353.972C65.9587 358.024 63.3166 360.465 58.9186 360.878C53.2665 361.407 47.6088 361.552 41.9288 361.519C35.4071 361.474 30.4963 358.871 27.1352 353.152C23.6235 347.182 20.7863 340.939 18.657 334.362C18.094 332.623 17.754 330.828 17.8209 328.983C17.91 326.497 18.5232 325.728 20.9591 325.349C23.6569 324.931 26.3659 324.434 29.0861 324.317C34.3425 324.089 39.571 323.258 44.8552 323.537ZM43.863 346.547C44.2643 346.575 44.6713 346.586 45.0726 346.625C49.3814 347.071 50.8975 349.167 49.9388 353.347C49.5207 355.159 49.621 355.304 51.5775 355.688C51.9733 355.766 52.3858 355.789 52.776 355.9C54.2531 356.318 55.3233 356.118 55.7637 354.373C56.087 353.108 57.0903 352.394 58.3333 352.009C58.9131 351.831 59.4928 351.619 60.0223 351.329C61.8896 350.287 62.2742 349.016 60.8305 347.433C59.4147 345.878 59.1862 344.529 60.4849 342.896C60.7302 342.584 60.8919 342.193 61.0312 341.814C62.3467 338.353 59.8272 335.07 56.1539 335.549C55.0669 335.689 54.019 336.157 52.9766 336.536C51.7169 336.987 50.3958 337.444 49.125 336.998C46.7838 336.179 44.989 337.121 43.222 338.437C42.3301 339.1 41.455 339.797 40.5297 340.415C39.2867 341.251 37.9322 341.703 36.5554 340.8C34.9054 339.719 33.7237 340.443 32.5476 341.597C30.6691 343.442 29.9278 345.856 29.0248 348.236C28.1719 350.488 28.4952 352.377 30.0727 354.122C30.8642 354.997 31.4272 356.474 32.7706 356.268C34.0415 356.073 34.0526 354.546 34.2811 353.526C35.212 349.328 40.0057 346.307 43.8686 346.552L43.863 346.547ZM35.6524 325.633C30.6691 325.622 26.1764 326.402 21.6614 326.876C19.8498 327.065 19.415 327.64 19.3983 329.446C19.3927 330.148 19.4652 330.867 19.638 331.547C20.9479 336.77 23.1051 341.664 25.5131 346.458C25.6469 346.725 25.8141 346.987 26.0148 347.21C26.6558 347.935 27.2355 347.851 27.6424 346.987C27.9824 346.257 28.2611 345.493 28.5565 344.741C29.3871 342.623 30.7137 340.867 32.4473 339.412C33.7014 338.358 35.0504 337.885 36.6278 338.726C37.3469 339.111 38.1161 339.512 38.9244 339.117C40.5687 338.314 42.1183 337.266 43.2053 335.817C44.1529 334.557 42.8374 333.364 42.542 332.138C42.4249 331.647 42.28 331.157 42.0793 330.7C41.4048 329.133 42.1072 326.909 40.591 325.928C39.0693 324.947 37.0403 325.744 35.6579 325.633H35.6524ZM67.1516 341.831C67.1404 338.654 65.6131 333.81 63.7792 331.268C61.9231 328.699 59.3924 327.088 56.3545 326.318C54.844 325.934 54.1138 326.553 54.3702 328.03C54.8161 330.572 55.5352 332.985 58.4894 333.832C61.7558 334.763 63.272 337.026 63.2051 340.387C63.1884 341.307 63.1772 342.238 63.7681 343.007C64.4314 343.877 65.0724 345.137 66.3154 344.791C67.5306 344.451 67.0122 343.085 67.1516 342.138C67.1683 342.037 67.1516 341.937 67.1516 341.837V341.831ZM46.271 349.1C44.2365 348.063 43.5899 347.946 41.9288 348.414C38.0325 349.518 35.8475 352.132 35.2622 356.095C35.1061 357.143 34.6658 358.409 36.2544 358.81C37.7092 359.178 37.8151 357.951 38.183 357.048C39.426 354.033 41.5832 351.887 44.4873 350.454C45.1005 350.153 45.853 350.059 46.271 349.094V349.1ZM50.4572 325.56C48.3279 325.521 47.7704 326.056 48.0603 327.74C48.4449 329.947 49.3702 331.971 50.6188 333.832C51.2208 334.724 52.0625 334.825 53.0101 334.373C54.019 333.894 54.2252 333.147 53.8685 332.132C53.3334 330.611 52.6924 329.111 52.5419 327.489C52.3914 325.889 51.3434 325.549 50.4516 325.56H50.4572ZM47.9544 352.528C47.8986 351.87 47.4973 351.625 46.6055 351.669C44.2643 351.787 40.4461 355.209 39.9277 357.606C39.649 358.871 40.1897 359.534 41.377 359.763C42.581 359.992 43.5676 359.724 44.1306 358.503C44.727 357.205 45.6356 356.134 46.6668 355.153C47.4249 354.434 47.815 353.52 47.9544 352.528ZM44.5653 325.466C43.5564 325.549 43.1662 326.207 43.1551 327.11C43.1272 329.507 43.8797 331.686 45.1395 333.699C45.63 334.485 46.4327 334.596 47.2799 334.535C48.0659 334.479 48.4393 333.988 48.1718 333.314C47.2799 331.051 46.5553 328.743 45.97 326.385C45.8028 325.722 45.2342 325.46 44.5598 325.466H44.5653ZM48.2665 359.373C50.8752 359.373 53.4839 359.423 56.087 359.351C57.1795 359.317 58.2665 359.033 59.3534 358.832C59.8606 358.737 60.3679 358.526 60.4404 357.951C60.5128 357.405 60.0725 357.054 59.6823 356.736C58.9855 356.157 58.2888 355.967 57.5585 356.708C56.6555 357.623 55.5129 358.068 54.2698 357.912C52.3858 357.673 50.446 357.957 48.6177 357.338C47.7481 357.043 47.0402 357.104 46.4884 357.868C46.1874 358.28 45.9589 358.765 46.3212 359.25C46.8229 359.919 47.5698 359.746 48.261 359.378L48.2665 359.373ZM61.6053 344.596C62.67 346.787 63.8907 348.236 63.7848 350.12C63.7402 350.895 64.1416 351.552 64.9665 351.625C66.0479 351.72 66.2095 350.794 66.3935 350.02C66.5607 349.328 66.6443 348.531 66.1705 347.974C65.0947 346.72 63.952 345.505 61.5998 344.596H61.6053ZM62.0736 352.79C61.505 352.885 60.8473 353.096 60.3512 353.665C60.0502 354.011 60.039 354.401 60.3121 354.757C61.0145 355.666 61.9231 356.29 63.0658 356.474C63.8851 356.608 64.3868 356.106 64.7101 355.421C65.0724 354.652 64.8216 354.055 64.1471 353.609C63.5563 353.219 62.9598 352.84 62.0736 352.795V352.79Z" fill="black"/>
<path d="M165.02 52.6126C165.02 53.2592 164.702 53.7888 164.296 54.2403C157.874 61.3807 153.627 69.9146 148.872 78.1252C146.687 81.8989 144.117 85.3939 141.241 88.6714C139.279 90.9066 136.888 92.5789 134.335 94.0449C133.906 94.2901 133.382 94.5354 132.969 94.0281C132.674 93.6658 132.863 93.2422 133.103 92.9133C138.343 85.8565 141.085 77.5009 145.121 69.8198C148.159 64.0339 151.698 58.6884 156.882 54.5803C158.643 53.1868 160.5 51.9716 162.685 51.3919C163.983 51.0463 164.964 51.6427 165.02 52.6126ZM139.508 87.5009C140.472 87.1776 141.024 86.3192 141.637 85.5611C144 82.6403 146.029 79.4965 147.897 76.2412C151.927 69.2234 155.533 61.9437 160.723 55.6449C161.024 55.277 161.391 54.8423 160.879 54.1957C159.652 54.3294 158.766 55.1823 157.858 55.9404C154.329 58.8946 151.431 62.3673 149.095 66.3472C145.399 72.6515 142.646 79.4184 139.441 85.968C139.223 86.4139 138.961 86.8877 139.508 87.512V87.5009Z" fill="black"/>
<path d="M116.114 90.8213C116.075 95.7655 110.824 100.743 105.841 100.559C101.214 100.386 97.491 96.4009 97.5858 91.7187C97.6917 86.5181 101.666 82.1201 106.332 82.2204C111.125 82.3263 116.415 86.5459 116.114 90.8213ZM114.442 90.7042C114.369 87.7109 109.637 83.6976 106.265 83.7812C102.524 83.8759 99.2413 87.7444 99.3304 91.9528C99.4141 95.7097 102.502 98.7253 106.17 98.625C110.139 98.5191 114.525 94.3162 114.436 90.7042H114.442Z" fill="black"/>
<path d="M146.95 145.087C140.874 145.087 134.798 145.126 128.728 145.07C125.462 145.037 122.273 144.424 119.325 142.952C114.107 140.349 111.521 136.102 111.543 130.266C111.554 126.865 113.015 124.285 115.807 122.334C120.194 119.262 125.222 118.276 130.372 117.568C142.663 115.879 154.993 116.269 167.345 116.698C174.831 116.96 182.329 116.782 189.82 116.826C194.474 116.849 199.134 116.871 203.789 116.966C208.733 117.066 211.202 119.485 211.542 124.413C211.799 128.175 210.857 131.648 208.9 134.836C207.484 137.138 205.578 138.805 202.975 139.808C197.323 141.982 191.409 142.813 185.456 143.203C174.352 143.928 163.226 144.413 152.111 144.97C150.395 145.054 148.672 144.981 146.95 144.981C146.95 145.02 146.95 145.054 146.95 145.093V145.087ZM204.536 136.542C209.251 134.095 211.565 125.132 208.694 121.013C207.819 119.758 206.609 119.106 205.121 118.995C202.195 118.783 199.268 118.476 196.336 118.465C179.33 118.376 162.329 118.404 145.322 118.292C140.857 118.265 136.693 119.301 132.714 121.163C126.682 123.989 123.382 129.023 121.671 135.254C121.376 136.336 121.409 137.473 121.576 138.577C121.95 141.046 123.382 142.568 125.846 143.075C127.63 143.443 129.442 143.604 131.27 143.632C140.885 143.766 150.473 142.724 160.088 142.919C161.292 142.941 162.501 142.696 163.711 142.551C166.331 142.228 166.381 142.205 165.428 139.859C164.608 137.841 164.229 135.817 164.575 133.638C165.679 126.704 169.804 122.506 176.777 121.102C181.749 120.098 185.467 121.893 188.304 125.901C189.006 126.893 189.603 127.963 190.35 128.911C192.78 132.005 194.848 132.439 198.114 130.16C201.448 127.83 204.207 130.355 204.274 133.315C204.296 134.307 203.989 135.332 204.53 136.548L204.536 136.542ZM176.459 141.954C180.517 141.982 184.53 141.38 188.56 141.085C191.777 140.851 194.965 140.215 198.109 139.435C200.545 138.833 201.849 137.133 202.546 134.892C202.953 133.577 202.908 132.205 201.654 131.319C200.455 130.472 199.619 131.486 198.711 132.099C195.573 134.223 192.68 133.9 190.01 131.163C188.8 129.92 187.925 128.437 187.005 126.982C185.896 125.232 184.519 123.755 182.485 123.125C177.774 121.665 173.689 123.069 170.127 126.174C166.782 129.084 165.84 132.969 166.476 137.189C166.933 140.243 169.135 141.899 172.212 141.943C173.627 141.966 175.043 141.943 176.459 141.943V141.954ZM129.453 119.697C123.957 120.238 119.118 121.537 115.138 125.149C113.973 126.208 113.316 127.635 113.232 129.167C113.015 133.415 114.263 137.122 117.697 139.864C118.221 140.282 118.823 140.907 119.581 140.455C120.177 140.098 120.01 139.374 119.977 138.794C119.592 131.982 122.797 126.815 127.463 122.3C128.098 121.687 128.99 121.297 129.453 119.703V119.697Z" fill="black"/>
<path d="M195.055 73.3047C198.69 73.5945 201.516 75.3114 203.416 78.4496C204.358 80.0103 203.584 81.4763 201.778 81.755C200.529 81.9501 199.353 81.5209 198.288 80.9914C195.902 79.7985 193.461 79.687 190.936 80.2946C189.715 80.59 188.428 80.8632 187.742 79.4975C187.051 78.1263 187.775 76.9613 188.751 75.9858C190.473 74.2579 192.658 73.589 195.055 73.3047ZM190.094 78.3883C191.733 78.2601 193.405 77.92 195.083 78.0594C196.828 78.2043 198.305 79.1463 199.944 79.5923C200.038 79.6201 200.139 79.648 200.239 79.6536C200.646 79.6814 201.092 79.6982 201.315 79.308C201.527 78.9457 201.393 78.5443 201.181 78.182C199.096 74.5198 192.469 74.1297 189.999 77.541C189.916 77.6525 190.033 77.9033 190.089 78.3827L190.094 78.3883Z" fill="black"/>
<path d="M76.6889 418.207C76.9007 416.474 78.2162 415.967 79.6264 415.582C88.1492 413.252 96.7946 411.814 105.663 412.466C112.012 412.934 118.35 413.297 124.721 413.018C125.618 412.979 126.555 412.84 127.413 413.224C127.642 413.325 127.892 413.653 127.909 413.888C127.92 414.122 127.709 414.473 127.491 414.601C126.767 415.036 125.925 414.941 125.128 414.947C121.995 414.958 118.846 415.17 115.735 414.896C111.549 414.529 107.475 415.209 103.378 415.682C98.2439 416.273 93.1102 416.507 87.9541 416.307C84.0523 416.156 80.3176 416.886 76.6777 418.202L76.6889 418.213V418.207Z" fill="black"/>
<path d="M149.435 135.645C150.154 135.734 151.28 135.745 152.334 136.024C153.705 136.386 154.602 137.35 154.664 138.827C154.719 140.187 153.939 141.113 152.701 141.564C150.16 142.484 147.584 142.49 145.065 141.508C143.733 140.99 142.975 139.953 143.114 138.454C143.248 137.038 144.279 136.442 145.483 136.046C146.648 135.667 147.852 135.684 149.435 135.645ZM148.777 137.361C147.774 137.361 146.787 137.462 145.84 137.824C145.344 138.014 144.903 138.348 144.981 138.889C145.032 139.223 145.355 139.63 145.673 139.792C147.768 140.873 149.92 140.773 152.01 139.803C152.897 139.396 152.852 138.415 151.988 137.935C151.001 137.384 149.892 137.345 148.788 137.361H148.777Z" fill="black"/>
<path d="M184.474 139.149C183.253 139.087 182.233 139.104 181.28 138.703C180.087 138.196 179.217 137.399 179.089 136.038C178.961 134.667 179.669 133.686 180.795 133.056C182.74 131.964 184.847 131.78 186.96 132.432C188.665 132.962 189.652 134.556 189.474 136.15C189.306 137.655 188.242 138.658 186.374 138.987C185.683 139.11 184.964 139.11 184.468 139.143L184.474 139.149ZM184.34 137.549C186.163 137.532 187.434 136.897 187.551 135.944C187.684 134.846 186.319 133.909 184.44 133.803C182.573 133.697 180.845 134.684 180.917 135.815C180.984 136.847 182.411 137.571 184.346 137.549H184.34Z" fill="black"/>
<path d="M134.977 147.369C139.531 147.252 144.09 147.347 148.644 147.347C158.861 146.795 169.084 147.676 179.307 146.779C187.373 146.071 195.422 145.625 203.237 143.122C209.641 141.071 213.649 137.135 214.859 130.48C215.695 125.887 216.024 121.244 216.191 116.589C216.236 115.279 216.191 113.953 216.063 112.643C215.896 110.948 215.511 110.67 213.906 111.305C211.62 112.214 209.296 112.749 206.838 112.883C196.23 113.451 185.634 114.248 174.998 113.618C172.373 113.462 169.759 113.908 167.111 113.797C161.147 113.551 155.177 113.234 149.213 113.039C136.978 112.637 124.726 112.542 112.485 112.347C108.639 112.286 104.776 112.509 100.947 112.23C96.9389 111.94 92.8364 111.929 89.0794 110.084C86.7495 108.942 86.4317 109.176 86.3258 111.901C86.153 116.26 86.337 120.614 86.9223 124.934C88.2099 134.432 93.1931 141.009 102.485 143.958C106.153 145.123 109.927 146.032 113.756 146.355C120.813 146.946 127.875 147.559 134.982 147.375L134.977 147.369ZM115.807 122.331C120.194 119.259 125.222 118.273 130.372 117.565C142.663 115.876 154.993 116.266 167.345 116.695C174.831 116.957 182.328 116.779 189.82 116.823C194.474 116.846 199.134 116.868 203.789 116.968C208.733 117.069 211.202 119.488 211.542 124.415C211.799 128.178 210.857 131.65 208.9 134.839C207.484 137.141 205.578 138.808 202.975 139.811C197.323 141.985 191.409 142.815 185.455 143.206C174.352 143.93 163.226 144.415 152.111 144.973C150.394 145.056 148.672 144.984 146.95 144.984C146.95 145.023 146.95 145.056 146.95 145.095C140.874 145.095 134.798 145.134 128.728 145.078C125.462 145.045 122.273 144.432 119.324 142.96C114.107 140.357 111.521 136.11 111.543 130.274C111.554 126.873 113.015 124.293 115.807 122.342V122.331Z" fill="#82D7F7"/>
<path d="M201.655 131.324C200.456 130.477 199.62 131.491 198.712 132.104C195.573 134.228 192.681 133.905 190.011 131.168C188.801 129.925 187.926 128.442 187.006 126.987C185.897 125.237 184.52 123.76 182.486 123.13C177.775 121.67 173.69 123.074 170.128 126.179C166.783 129.089 165.841 132.974 166.477 137.193C166.934 140.248 169.136 141.904 172.212 141.948C173.628 141.97 175.044 141.948 176.46 141.948C180.518 141.976 184.531 141.374 188.561 141.079C191.778 140.845 194.966 140.209 198.11 139.429C200.546 138.827 201.85 137.127 202.547 134.886C202.954 133.57 202.909 132.199 201.655 131.313V131.324ZM189.475 136.157C189.308 137.662 188.244 138.665 186.376 138.994C185.685 139.117 184.966 139.117 184.47 139.15C183.249 139.089 182.229 139.105 181.276 138.704C180.083 138.197 179.214 137.4 179.085 136.04C178.957 134.668 179.665 133.687 180.791 133.058C182.736 131.965 184.843 131.781 186.956 132.433C188.662 132.963 189.648 134.557 189.475 136.151V136.157Z" fill="#608FB2"/>
<path d="M41.5168 296.446C48.7575 300.119 56.2491 302.544 64.4374 302.655C68.0885 302.706 68.4731 302.399 67.7039 298.737C67.6203 298.341 67.5311 297.945 67.4363 297.555C64.4096 285.08 66.1821 273.252 72.2133 261.987C72.7373 261.006 73.3894 260.042 73.6514 258.982C75.3069 252.305 78.7406 246.441 81.9735 240.476C86.6056 231.926 91.0816 223.308 94.5598 214.206C95.2956 212.272 95.6189 210.399 95.3291 208.292C94.3313 201.129 94.0916 193.983 96.3826 186.954C98.4004 180.767 101.02 174.864 104.292 169.245C105.519 167.138 106.99 165.204 108.668 163.431C113.149 158.693 118.25 154.725 123.841 151.38C124.604 150.923 125.541 150.7 126.12 149.691C125.479 148.699 124.593 148.905 123.824 148.822C121.912 148.621 120 148.454 118.088 148.275C110.825 147.612 103.807 148.147 97.096 151.503C90.1229 154.992 83.2333 158.627 76.3437 162.272C71.8677 164.641 67.5812 167.333 63.3839 170.17C54.6884 176.051 48.0552 183.983 41.8066 192.21C35.6528 200.315 30.887 209.312 27.6317 218.938C23.7577 230.387 23.061 242.349 23.4344 254.334C23.741 264.233 26.4333 273.676 29.5771 283.029C31.6841 289.306 35.7197 293.486 41.5224 296.429L41.5168 296.446Z" fill="#241D2E"/>
<path d="M111.136 532.453C110.952 533.016 110.93 533.629 110.857 534.075C110.98 535.959 111.27 537.643 112.569 538.919C113.572 539.9 114.581 539.655 115.177 538.373C116.058 536.466 115.545 533.373 114.102 531.873C112.914 530.642 111.66 530.87 111.131 532.453H111.136Z" fill="#F5ECEA"/>
<path d="M187.29 148.102C182.731 148.236 178.199 149.111 173.656 148.771C169.827 148.481 167.486 150.254 165.34 153.175C154.699 167.628 150.936 184.072 151.555 201.614C151.984 213.743 154.95 225.521 159.431 236.747C166.544 254.567 178.918 268.068 195.312 277.906C198.355 279.734 201.677 280.972 205.161 281.802C207.117 282.271 208.946 282.226 210.819 281.568C214.353 280.325 217.898 279.11 221.448 277.917C226.393 276.251 231.393 275.309 236.666 276.111C239.23 276.501 241.415 277.811 243.856 278.469C249.163 279.89 253.21 283.146 256.465 287.482C257.061 288.274 257.396 289.3 258.611 289.879C259.559 288.909 259.581 287.761 259.781 286.691C260.138 284.801 260.411 282.895 260.802 281.011C262.764 271.535 263.522 261.992 262.702 252.327C261.682 240.248 258.427 228.631 255.395 216.981C253.555 209.919 250.829 203.13 248.31 196.296C245.149 187.712 240.991 179.579 235.389 172.311C228.143 162.907 218.299 156.948 207.664 152.143C201.198 149.223 194.436 147.896 187.296 148.108L187.29 148.102Z" fill="black"/>
<path d="M103.153 294.01C102.417 294.612 101.358 295.036 101.314 296.24C101.999 296.97 102.836 296.747 103.605 296.636C108.51 295.917 113.432 295.348 118.276 294.239C124.184 292.879 129.719 290.672 134.324 286.664C144.68 277.645 152.551 266.909 156.408 253.537C157.161 250.917 157.974 248.275 157.774 245.488C157.411 240.449 157.049 235.449 155.472 230.544C151.068 216.843 148.627 202.907 150.321 188.387C151.72 176.403 154.981 165.199 161.988 155.255C163.036 153.766 164.084 152.272 165.087 150.756C165.683 149.848 165.377 149.201 164.323 148.995C163.732 148.878 163.114 148.85 162.512 148.85C156.536 148.85 150.555 148.633 144.597 148.95C140.182 149.184 135.717 148.973 131.353 150.288C125.076 152.183 119.948 155.89 114.998 159.953C110.979 163.253 107.462 167.005 104.998 171.654C103.003 175.41 101.236 179.273 99.5747 183.192C96.3529 190.801 95.9404 198.677 96.8991 206.742C98.4766 219.97 103.733 231.937 110.104 243.364C114.396 251.068 116.877 258.91 115.951 267.695C114.87 277.996 111.442 287.188 103.153 294.016V294.01Z" fill="#909DA9"/>
<path d="M96.2254 216.521C94.9824 217.229 94.7929 218.405 94.3804 219.397C92.2511 224.548 89.8486 229.559 87.2177 234.47C84.4919 239.553 81.7997 244.654 79.0851 249.743C75.9246 255.679 74.4586 261.956 74.7875 268.723C75.2557 278.299 77.2289 287.563 80.1553 296.643C80.6458 298.176 81.4151 299.625 82.1341 301.069C82.424 301.66 82.6804 302.435 83.5889 302.368C84.1241 302.05 84.1129 301.526 84.1408 301.036C84.57 294.252 85.7127 287.58 87.2678 280.974C90.3615 267.82 96.1028 256.036 105.417 246.114C107.781 243.595 107.797 243.589 106.309 240.323C103.031 233.143 99.5977 226.031 97.4238 218.405C97.2343 217.742 97.056 217.023 96.2254 216.516V216.521Z" fill="#C6D0D9"/>
<path d="M86.3195 30.067C86.3418 31.0814 86.7041 31.9343 87.9583 31.6556C90.7342 31.0368 93.5714 31.0201 96.3807 30.7191C97.8634 30.563 98.5992 29.883 98.6215 28.4337C98.6494 26.7169 98.694 25.0001 98.6215 23.2889C98.4654 19.5598 98.3149 15.8251 98.0084 12.1017C97.791 9.45953 97.3339 9.11394 94.9092 8.99131C93.3986 8.91327 91.8936 8.96344 90.383 8.67916C87.5904 8.15519 87.2448 8.35586 87.0664 11.3157C86.8044 15.6468 86.1857 19.9611 86.3195 24.3089C86.3195 26.2264 86.2916 28.1439 86.3306 30.0614L86.3195 30.067Z" fill="#82D7F7"/>
<path d="M212.942 8.19497C211.733 8.32318 210.518 8.37892 209.308 8.4904C200.222 9.33766 191.109 8.65762 182.006 8.88616C172.798 9.1147 163.573 9.17044 155.367 8.47368C143.333 8.47368 132.291 8.45696 121.248 8.48483C117.792 8.49597 117.458 8.86944 117.319 12.331C117.14 16.7847 116.962 21.2328 116.817 25.6865C116.772 27.1023 116.817 28.5237 116.873 29.9395C116.923 31.1268 117.564 31.7957 118.79 31.8347C119.598 31.8626 120.412 31.9127 121.221 31.9016C128.406 31.7845 135.585 31.7622 142.776 31.4055C153.896 30.8537 165.044 31.0543 176.181 30.8258C184.057 30.6641 191.95 31.294 199.849 30.7478C204.397 30.43 208.946 30.5582 213.305 32.3475C214.904 33.0053 215.445 32.5036 215.768 30.7366C215.858 30.2405 215.885 29.7277 215.885 29.226C215.885 23.0499 215.919 16.8738 215.835 10.6977C215.802 8.17268 215.4 7.93856 212.931 8.20055L212.942 8.19497Z" fill="#82D7F7"/>
<path d="M145.673 139.796C147.769 140.878 149.921 140.778 152.011 139.808C152.897 139.401 152.853 138.42 151.989 137.94C151.002 137.388 149.893 137.349 148.789 137.366C147.786 137.366 146.799 137.467 145.852 137.829C145.356 138.018 144.915 138.353 144.993 138.893C145.044 139.228 145.367 139.635 145.685 139.796H145.673Z" fill="white"/>
<path d="M117.702 139.869C118.226 140.287 118.828 140.911 119.586 140.459C120.182 140.103 120.015 139.378 119.981 138.798C119.597 131.987 122.802 126.82 127.467 122.305C128.103 121.691 128.995 121.301 129.457 119.707C123.961 120.248 119.123 121.546 115.143 125.158C113.978 126.218 113.32 127.645 113.237 129.177C113.019 133.425 114.268 137.132 117.702 139.874V139.869Z" fill="white"/>
<path d="M106.169 98.6263C110.138 98.5204 114.525 94.3176 114.435 90.7056C114.363 87.7123 109.631 83.6989 106.258 83.7825C102.518 83.8773 99.2349 87.7457 99.324 91.9542C99.4077 95.7111 102.496 98.7267 106.163 98.6263H106.169Z" fill="white"/>
<path d="M184.441 133.805C182.574 133.699 180.846 134.685 180.918 135.817C180.985 136.848 182.412 137.573 184.346 137.55C186.169 137.534 187.44 136.898 187.557 135.945C187.691 134.847 186.325 133.911 184.447 133.805H184.441Z" fill="white"/>
<path d="M115.461 17.4118C115.545 15.2881 115.667 13.1587 115.55 11.0406C115.444 9.12311 115.004 8.84998 113.036 8.85555C109.597 8.8667 106.152 8.89457 102.713 8.93916C99.6029 8.97818 99.4524 9.10081 99.6029 12.2613C99.9429 19.4352 100.367 26.609 100.701 33.7885C100.874 37.5287 100.946 41.28 100.623 45.0203C99.9262 53.0024 100.099 61.0012 100.244 69C100.261 70.0033 100.467 71.0123 100.679 71.9989C101.403 75.3712 103.822 77.7123 106.71 77.913C109.681 78.1192 112.752 75.9732 113.956 72.8851C114.642 71.1405 114.636 69.3233 114.608 67.495C114.536 62.0324 114.408 56.5698 114.441 51.096C114.491 42.0827 115.088 33.0917 115.088 24.0784C115.216 21.8543 115.372 19.6358 115.456 17.4118H115.461Z" fill="white"/>
<path d="M215.271 53.501C214.051 52.9324 213.214 54.0082 212.395 54.7105C211.002 55.9034 209.937 57.3917 208.906 58.9023C207.93 60.3237 206.899 61.6949 205.65 62.8989C200.712 67.6424 194.162 67.0516 190.244 61.4329C189.09 59.7774 188.114 57.9937 187.061 56.2601C185.01 52.8878 181.888 51.5222 178.081 51.6894C175.065 51.8176 172.301 52.8154 170.054 54.8833C167.747 57.0127 165.584 59.2702 163.995 62.0349C161.325 66.6893 158.639 71.3325 155.879 75.9311C152.072 82.2689 148.165 88.5007 142.691 93.6511C137.028 98.98 130.684 102.837 123.014 104.47C117.541 105.635 112.006 106.093 106.437 106.159C102.279 106.21 98.1485 106.544 94.0292 107.012C93.0872 107.118 91.6101 107.196 91.5655 108.333C91.5209 109.554 92.9701 109.498 93.9122 109.632C98.9288 110.346 103.962 110.825 109.04 110.736C119.358 110.557 129.676 111.003 139.993 111.042C152.329 111.087 164.653 112.352 177.2 111.962C184.095 112.163 191.174 112.107 198.248 111.689C200.126 111.577 202.128 111.823 203.805 110.552C205.087 109.576 206.581 108.79 206.921 107.007C207.228 105.407 205.823 104.744 205.043 103.746C203.092 101.237 203.566 98.6009 206.369 97.1628C208.789 95.9254 211.275 95.4126 213.911 96.8507C215.472 97.7035 215.84 97.4081 216.018 95.7136C216.068 95.2119 216.063 94.6991 216.052 94.1974C215.99 91.533 215.756 91.31 213.276 92.1963C209.981 93.3669 207.1 92.5754 204.435 90.5854C203.549 89.9221 202.763 89.1138 201.944 88.3669C198.465 85.1897 194.095 84.571 189.859 86.5944C187.061 87.9266 185.249 90.1785 183.884 92.8373C182.774 94.9945 181.793 97.2241 180.757 99.4203C178.822 103.501 175.679 106.148 171.336 107.391C167.429 108.512 163.477 109.186 159.385 109.292C154.809 109.409 150.311 108.556 145.751 108.584C144.675 108.59 142.808 109.175 142.791 107.553C142.78 106.21 144.586 106.728 145.606 106.667C151.303 106.332 156.782 105.217 162.145 103.144C169.397 100.34 174.291 95.3903 177.284 88.3056C178.778 84.7661 180.55 81.3436 182.245 77.8876C183.365 75.6078 184.77 73.4952 186.453 71.5889C189.831 67.7706 193.817 66.8453 198.516 68.7127C201.247 69.794 203.315 71.7004 205.026 74.0081C206.353 75.7973 207.54 77.687 208.867 79.4707C209.892 80.853 210.968 82.202 212.618 82.9322C215.059 84.0191 215.962 83.5063 216.041 80.8363C216.119 78.0047 216.113 75.1675 216.107 72.3302C216.107 66.9624 216.102 61.6001 216.057 56.2323C216.052 55.268 216.386 54.0138 215.282 53.501H215.271Z" fill="#FF7F40"/>
<path d="M141.637 85.5646C144.001 82.6438 146.03 79.5 147.897 76.2448C151.927 69.227 155.533 61.9472 160.723 55.6485C161.024 55.2806 161.392 54.8458 160.879 54.1992C159.653 54.333 158.766 55.1858 157.858 55.9439C154.329 58.8982 151.431 62.3708 149.095 66.3507C145.4 72.655 142.646 79.422 139.441 85.9715C139.224 86.4175 138.962 86.8913 139.508 87.5156C140.472 87.1923 141.024 86.3339 141.637 85.5758V85.5646Z" fill="#FF7F40"/>
<path d="M190.004 77.547C189.92 77.6585 190.037 77.9093 190.093 78.3887C191.732 78.2605 193.404 77.9205 195.082 78.0598C196.826 78.2048 198.304 79.1468 199.942 79.5927C200.037 79.6206 200.137 79.6484 200.238 79.654C200.645 79.6819 201.091 79.6986 201.314 79.3084C201.525 78.9461 201.392 78.5448 201.18 78.1825C199.095 74.5203 192.468 74.1301 189.998 77.5414L190.004 77.547Z" fill="#FF7F40"/>
<path d="M97.4631 32.848C96.4709 32.7086 95.462 32.6975 94.9102 32.6641C92.7474 32.77 91.0195 32.6306 89.3751 33.2605C88.9013 33.4444 88.3829 33.6395 88.3049 34.2081C88.199 34.9717 88.8177 35.2449 89.3807 35.4344C92.0172 36.3207 94.7485 36.1479 97.4631 36.042C98.2992 36.0085 98.7117 35.4623 98.7061 34.6373C98.7061 33.7622 98.4497 32.9929 97.4576 32.8536L97.4631 32.848Z" fill="#FF7F40"/>
<path d="M204.977 32.6322C191.114 32.649 177.252 32.6378 164.247 32.6378C148.829 33.1172 134.264 33.5966 119.694 33.5018C119.192 33.5018 118.674 33.5241 118.189 33.6467C117.302 33.8697 116.789 34.4494 116.884 35.4081C116.968 36.2721 117.587 36.601 118.35 36.6512C119.359 36.718 120.374 36.7292 121.383 36.7348C130.084 36.7682 138.779 36.4616 147.475 36.1997C160.423 35.815 173.372 36.3223 186.315 36.679C189.364 36.7626 192.374 36.1216 195.395 36.2721C199.654 36.4784 203.879 35.9377 208.127 35.9655C209.119 35.9711 210.117 35.6423 211.109 35.4527C211.516 35.3747 211.911 35.2075 212.017 34.7727C212.184 34.1094 211.638 33.8808 211.198 33.6857C209.214 32.8106 207.112 32.6211 204.966 32.6211L204.977 32.6322Z" fill="#FF7F40"/>
<path d="M121.677 135.262C121.381 136.343 121.415 137.48 121.582 138.584C121.955 141.053 123.388 142.575 125.852 143.082C127.635 143.45 129.447 143.612 131.275 143.639C140.891 143.773 150.478 142.731 160.099 142.926C161.303 142.948 162.513 142.703 163.722 142.558C166.342 142.235 166.392 142.213 165.439 139.866C164.62 137.848 164.24 135.825 164.586 133.645C165.69 126.711 169.815 122.514 176.788 121.109C181.76 120.106 185.478 121.901 188.315 125.908C189.017 126.9 189.614 127.971 190.361 128.918C192.791 132.012 194.859 132.447 198.125 130.167C201.459 127.837 204.218 130.362 204.285 133.322C204.307 134.314 204 135.34 204.541 136.555C209.257 134.108 211.57 125.145 208.699 121.025C207.824 119.771 206.615 119.119 205.126 119.008C202.2 118.796 199.274 118.489 196.342 118.478C179.335 118.389 162.334 118.417 145.328 118.305C140.863 118.277 136.699 119.314 132.719 121.176C126.688 124.002 123.388 129.035 121.677 135.267V135.262ZM143.115 138.456C143.248 137.04 144.28 136.443 145.484 136.048C146.649 135.669 147.853 135.685 149.436 135.646C150.155 135.735 151.281 135.747 152.334 136.025C153.705 136.388 154.603 137.352 154.664 138.829C154.72 140.189 153.94 141.114 152.702 141.566C150.16 142.486 147.585 142.491 145.066 141.51C143.733 140.992 142.975 139.955 143.115 138.456Z" fill="#0097BA"/>
<path d="M90.1715 6.86177C92.05 7.27983 93.9452 7.59756 95.8905 7.31328C99.2182 6.82276 102.552 6.92309 105.89 7.1795C106.899 7.25753 107.919 7.35787 108.923 7.27983C119.235 6.45486 129.575 6.8339 139.892 6.83948C152.445 6.85062 164.998 6.71685 177.551 7.27426C184.63 7.58641 191.704 6.63324 198.799 6.91194C201.932 7.03457 205.076 6.89522 208.22 6.86735C210.053 6.85063 211.848 6.53848 213.593 5.98664C214.056 5.84171 214.58 5.6076 214.58 4.99445C214.58 4.37573 214.056 4.16949 213.587 3.99112C210.678 2.8763 207.629 2.7258 204.602 3.07696C201.57 3.43371 198.543 3.43371 195.505 3.42813C187.406 3.40584 179.312 3.24976 171.219 3.06582C159.385 2.79826 147.534 2.29659 135.69 2.82056C133.973 2.89859 132.234 2.93761 130.528 2.75924C124.77 2.16281 118.995 2.29102 113.226 2.35233C108.772 2.35233 104.313 2.252 99.8593 2.38578C96.526 2.48611 93.1871 2.83171 89.9708 3.82947C89.157 4.0803 87.9642 4.2531 88.0756 5.42923C88.1816 6.50503 89.3019 6.66668 90.1659 6.86177H90.1715Z" fill="#0097BA"/>
<path d="M90.1058 106.594C92.9319 105.273 95.914 105.017 98.9575 104.783C105.312 104.287 111.717 104.515 118.032 103.545C125.629 102.375 132.887 100.307 138.734 94.9446C142.842 91.1709 146.733 87.1911 149.698 82.4141C151.833 78.9693 153.957 75.5245 156.058 72.063C158.634 67.8211 161.075 63.4956 163.773 59.3373C166.41 55.2794 169.693 51.8179 174.598 50.5414C179.408 49.2872 186.198 49.9227 189.258 56.567C189.804 57.7543 190.601 58.8301 191.242 59.9783C194.403 65.6249 201.526 65.0285 204.692 61.4053C205.69 60.2626 206.66 59.092 207.546 57.8657C209.464 55.2236 211.471 52.693 214.564 51.3162C215.367 50.9594 215.907 50.3853 215.952 49.4823C216.142 45.7365 216.097 41.9907 215.779 38.2561C215.673 37.0242 215.01 36.4835 213.7 36.8291C208.048 38.3174 202.229 37.7711 196.487 38.0387C184.146 38.624 171.789 38.022 159.436 38.1781C153.06 38.1781 146.677 38.1669 140.301 38.1781C133.517 38.1948 126.733 38.1836 119.949 38.2784C116.995 38.3174 116.321 38.8581 116.315 41.5448C116.293 49.4377 115.557 57.3306 116.399 65.2235C116.65 67.5535 116.644 69.8668 116.075 72.1633C114.883 77.0239 111.12 79.9336 106.404 79.6103C102.196 79.3204 99.2919 76.1766 98.7568 71.2046C98.1437 65.558 97.9932 59.9003 98.4224 54.2259C98.7512 49.8892 98.9407 45.5359 99.1024 41.1881C99.2083 38.3787 98.6453 37.838 95.8137 37.6597C93.4949 37.5147 91.1705 37.6987 88.8628 37.1747C86.6889 36.6842 86.3433 36.9685 86.2541 39.1702C86.098 42.9105 86.0144 46.6562 85.942 50.402C85.8138 57.1857 85.7469 63.9582 86.0311 70.7475C86.3489 78.3282 86.622 85.9257 85.797 93.5009C85.4793 96.4273 85.6131 99.3649 85.7301 102.302C85.7692 103.322 85.9475 104.32 86.4102 105.24C87.2574 106.918 88.3834 107.403 90.117 106.594H90.1058ZM133.104 92.9156C138.344 85.8588 141.086 77.5033 145.122 69.8222C148.16 64.0363 151.7 58.6907 156.883 54.5826C158.645 53.1891 160.501 51.9739 162.686 51.3942C163.985 51.0486 164.966 51.6451 165.022 52.615C165.022 53.2615 164.704 53.7911 164.297 54.2426C157.876 61.383 153.628 69.9169 148.873 78.1276C146.688 81.9012 144.119 85.3962 141.243 88.6738C139.28 90.909 136.889 92.5812 134.336 94.0472C133.907 94.2924 133.383 94.5377 132.971 94.0305C132.675 93.6681 132.865 93.2445 133.104 92.9156ZM106.338 82.2245C111.131 82.3304 116.421 86.55 116.12 90.8254C116.081 95.7696 110.83 100.747 105.847 100.563C101.221 100.391 97.497 96.405 97.5918 91.7228C97.6977 86.5222 101.672 82.1242 106.338 82.2245Z" fill="#FFD983"/>
<path d="M208.928 110.732C212.228 111.078 215.449 108.313 215.427 104.863C215.455 104.01 215.238 102.923 214.92 101.853C213.772 98.0012 210.957 96.7916 207.439 98.6366C205.427 99.6957 204.948 101.134 206.497 102.728C208.437 104.718 208.967 106.769 207.952 109.311C207.618 110.153 208.014 110.632 208.928 110.727V110.732Z" fill="#FFD983"/>
<path d="M207.692 80.9329C206.761 79.6119 205.875 78.2574 204.988 76.9029C203.812 75.1192 202.491 73.4748 200.875 72.0646C197.324 68.9654 190.696 68.1738 187.012 73.4915C185.563 75.5762 184.186 77.6832 183.099 79.9686C181.41 83.5305 179.727 87.0979 178.088 90.682C175.418 96.5237 171.31 100.91 165.345 103.458C163.673 104.171 162.012 104.913 160.357 105.676C159.738 105.961 158.969 106.022 158.395 107.204C164.175 107.588 169.375 106.78 174.27 104.305C175.641 103.614 176.705 102.521 177.659 101.317C178.801 99.8737 179.565 98.2294 180.273 96.546C181.488 93.653 182.759 90.7879 184.749 88.3075C188.701 83.38 197.424 81.2562 202.72 86.8303C203.617 87.7779 204.654 88.6196 205.713 89.3888C208.244 91.2339 210.975 91.2394 213.768 90.0689C214.955 89.5728 215.852 88.7924 215.875 87.3822C215.902 85.8995 214.737 85.5985 213.656 85.3309C211.053 84.6732 209.186 83.0511 207.692 80.9274V80.9329ZM201.778 81.7579C200.529 81.953 199.353 81.5238 198.288 80.9943C195.903 79.8014 193.461 79.6899 190.936 80.2975C189.715 80.5929 188.428 80.866 187.742 79.5004C187.051 78.1292 187.776 76.9642 188.751 75.9887C190.473 74.2608 192.658 73.5919 195.055 73.3076C198.69 73.5974 201.516 75.3143 203.416 78.4525C204.358 80.0132 203.584 81.4792 201.778 81.7579Z" fill="#FFD983"/>
<path d="M140.166 346.61C139.414 346.387 138.572 346.326 137.78 346.365C135.634 346.476 133.6 347.05 131.682 348.02C129.787 348.979 127.914 349.982 125.974 350.846C123.093 352.134 120.406 351.493 118.02 349.62C115.685 347.781 114.715 345.345 115.361 342.363C115.467 341.883 115.584 341.404 115.746 340.713C114.759 340.679 114.469 341.114 114.196 341.527C112.117 344.693 112.468 350.651 114.882 353.555C115.707 354.548 116.744 355.111 118.015 355.183C123.901 355.512 129.726 354.877 135.517 353.907C136.136 353.801 136.905 353.567 136.911 352.937C136.939 350.434 138.438 349.163 140.439 348.104C141.37 347.613 141.024 346.861 140.166 346.605V346.61Z" fill="#FFA000"/>
<path d="M47.9541 352.531C47.8984 351.874 47.4971 351.628 46.6052 351.673C44.2641 351.79 40.4458 355.213 39.9274 357.609C39.6487 358.875 40.1894 359.538 41.3767 359.767C42.5807 359.995 43.5673 359.728 44.1303 358.507C44.7267 357.208 45.6353 356.138 46.6665 355.157C47.4246 354.438 47.8148 353.524 47.9541 352.531Z" fill="#FFA000"/>
<path d="M58.4109 368.396C60.9137 368.257 63.4611 368.034 65.9081 367.315C68.8289 366.456 70.83 364.829 71.6271 361.679C72.9872 356.284 74.5034 350.927 75.7408 345.492C76.5268 342.042 77.1566 338.53 78.6338 335.281C79.7486 332.822 80.9804 332.337 83.4999 333.201C86.8165 334.333 89.1911 336.596 91.0751 339.467C93.3549 342.934 95.579 346.445 97.987 349.823C101.064 354.138 104.765 357.856 109.102 360.944C111.069 362.343 113.154 363.001 115.596 363.079C125.144 363.385 134.614 362.543 144.035 361.144C149.258 360.364 154.33 358.976 158.962 356.273C161.309 354.901 162.73 352.923 163.159 350.269C163.338 349.182 163.36 348.051 163.293 346.947C163.042 342.705 162.619 338.469 162.468 334.221C162.234 327.443 164.781 322.326 171.225 319.3C180.294 315.035 189.051 310.136 198.148 305.911C203.499 303.425 208.532 300.298 212.406 295.76C217.613 289.668 224.357 285.521 230.656 280.799C231.832 279.919 233.41 279.629 234.508 278.297C233.304 277.343 232.066 277.6 230.929 277.689C228.404 277.89 225.901 278.369 223.488 279.127C217.507 281.011 211.531 282.934 205.589 284.947C190.89 289.93 176.821 296.407 162.825 303.046C160.969 303.926 159.068 304.517 157.061 304.852C150.562 305.95 143.979 306.345 137.424 306.652C127.808 307.109 118.243 307.951 108.723 309.305C103.221 310.086 97.6526 310.81 92.8867 314.099C88.2156 317.315 83.0707 318.792 77.3852 318.307C76.4821 318.229 75.5569 318.241 74.6539 318.33C72.0229 318.586 69.6205 317.928 67.4298 316.513C64.8267 314.829 62.0062 314.528 58.9907 314.779C51.0253 315.437 43.0432 315.844 35.0444 315.922C28.4669 315.989 21.9006 316.423 15.3455 316.959C14.3812 317.037 12.8204 317.443 12.7313 316.256C12.6086 314.612 14.3478 315.18 15.3121 315.102C19.0411 314.801 22.7814 314.578 26.5216 314.422C28.3053 314.35 29.3476 313.631 29.6877 311.83C30.0444 309.941 30.5405 308.079 30.9418 306.201C31.109 305.426 31.4491 304.523 30.6631 303.949C30.0221 303.48 29.3086 303.949 28.662 304.238C28.4781 304.322 28.2886 304.4 28.1102 304.489C21.5718 307.711 15.0278 310.922 8.5061 314.166C7.24078 314.796 6.02006 315.532 4.81048 316.267C2.90414 317.427 2.02344 319.066 2.27427 321.362C2.56412 323.993 3.22744 326.529 3.87961 329.082C4.33669 330.86 5.25641 332.187 6.94536 332.99C8.24413 333.603 9.25303 334.617 10.2508 335.632C13.573 339.01 15.8974 342.995 17.5975 347.399C19.3923 352.047 21.6888 356.434 24.6487 360.453C27.2072 363.926 30.5126 366.139 34.8325 367.053C42.6418 368.697 50.5125 368.831 58.4054 368.391L58.4109 368.396ZM94.9826 327.003C96.3036 322.756 99.5422 320.688 103.723 320.019C106.816 319.523 109.938 319.138 113.059 318.937C120.322 318.48 127.546 317.371 134.843 317.343C136.158 317.343 137.474 317.399 138.789 317.332C144.191 317.07 147.87 319.339 149.871 324.405C151.437 328.374 152.334 332.538 153.02 336.735C153.505 339.729 153.94 342.733 153.895 345.788C153.834 350.046 153.455 350.648 149.419 352.304C145.935 353.731 142.312 354.651 138.617 355.308C132.73 356.356 126.76 356.607 120.818 357.137C117.625 357.421 114.815 356.629 112.324 354.628C111.298 353.803 110.183 353.073 109.241 352.164C104.208 347.293 99.7317 341.953 95.9636 336.027C94.1242 333.135 94.0127 330.102 94.977 326.997L94.9826 327.003ZM41.9339 361.512C35.4122 361.468 30.5015 358.865 27.1403 353.146C23.6286 347.176 20.7914 340.933 18.6621 334.355C18.0991 332.616 17.7591 330.821 17.826 328.976C17.9152 326.49 18.5283 325.721 20.9642 325.342C23.6621 324.924 26.3711 324.428 29.0912 324.311C34.3476 324.082 39.5761 323.252 44.8603 323.53C48.1936 323.636 51.5269 323.436 54.8547 324.021C62.6194 325.375 67.3741 330.799 68.5112 338.335C69.3083 343.603 68.7453 348.865 67.1957 353.965C65.9638 358.017 63.3217 360.459 58.9238 360.871C53.2716 361.401 47.6139 361.546 41.9339 361.512Z" fill="#FF93AE"/>
<path d="M188.751 509.245C205.529 498.765 221.744 487.528 236.225 473.95C238.817 471.519 241.214 468.927 243.483 466.19C244.932 464.44 245.383 462.824 244.057 460.722C242.986 459.028 242.279 457.088 241.493 455.226C237.791 446.397 237.095 436.96 236.147 427.601C235.445 420.65 234.949 413.682 234.486 406.709C233.8 396.408 232.758 386.124 233.104 375.773C233.104 371.927 233.131 368.075 233.087 364.229C233.076 363.276 233.471 361.988 232.318 361.526C231.169 361.069 230.238 362.027 229.33 362.646C228.293 363.354 228.098 364.452 228.07 365.595C228.014 368.025 227.964 370.455 227.931 372.886C227.775 385.171 224.458 396.693 219.152 407.64C216.136 413.855 212.351 419.675 207.145 424.323C199.882 430.806 192.173 436.72 183.856 441.821C169.319 450.739 153.974 458.075 138.422 464.981C132.346 467.679 125.942 469.039 119.264 469.173C112.882 469.301 106.51 469.462 100.184 468.286C97.904 467.863 97.2685 468.247 97.263 470.12C97.2518 475.377 96.7 480.672 97.5584 485.889C98.963 494.39 101.282 502.69 103.679 510.956C105.708 517.946 105.373 517.606 111.722 519.256C112.018 519.334 112.302 519.44 112.592 519.523C115.836 520.493 118.032 522.595 119.152 525.761C119.961 528.052 120.691 530.37 121.337 532.712C123.255 539.64 125.172 546.569 127.447 553.392C127.737 554.256 127.998 555.131 128.361 555.967C128.628 556.58 128.757 557.472 129.676 557.405C130.356 557.355 130.579 556.652 130.813 556.112C131.884 553.598 132.92 551.067 133.985 548.548C134.732 546.775 135.557 545.042 136.61 543.414C138.595 540.348 141.404 538.224 144.492 536.424C149.832 533.314 155.378 530.521 160.484 527.071C169.721 520.822 179.297 515.137 188.745 509.239L188.751 509.245Z" fill="#E0B8A2"/>
<path d="M256.675 474.505C255.599 471.774 254.456 469.059 252.918 466.551C251.697 464.561 250.237 462.805 247.651 462.008C247.416 463.334 247.244 464.533 246.38 465.458C243.554 468.496 241.034 471.802 238.007 474.667C230.861 481.434 223.292 487.665 215.41 493.552C198.743 505.999 180.488 515.982 163.181 527.437C159.301 530.001 155.16 532.169 151.196 534.61C149.251 535.809 149.206 536.249 150.84 537.81C153.014 539.889 154.452 542.403 155.711 545.079C157.662 549.215 159.056 553.551 160.31 557.932C160.784 559.588 161.18 561.266 161.731 562.899C162.317 564.632 162.863 564.828 164.39 563.813C166.074 562.693 167.657 561.416 169.312 560.246C186.514 548.083 204.663 537.364 222.043 525.463C225.633 523.005 229.334 520.703 232.818 518.083C242.924 510.475 252.701 502.403 263.67 495.993C265.633 494.845 265.666 494.482 264.523 492.286C261.524 486.528 259.066 480.536 256.692 474.505H256.675Z" fill="#F5ECEA"/>
<path d="M104.129 527.118C104.497 522.324 104.095 517.631 102.44 513.077C102.027 511.94 101.732 510.758 101.409 509.587C99.0342 501.115 96.8491 492.598 95.4668 483.896C95.2995 482.848 95.7009 481.293 94.5025 480.948C93.187 480.569 92.4846 482.046 91.7266 482.938C88.8392 486.343 87.4345 490.474 86.2807 494.677C84.3465 501.717 83.4769 508.952 82.6296 516.187C82.3231 518.818 82.992 521.165 84.4524 523.367C88.5939 529.598 92.6128 535.914 96.8046 542.107C98.9562 545.284 101.398 548.272 104.101 551.014C104.842 551.767 105.6 553.221 106.704 552.681C107.88 552.101 107.039 550.674 106.832 549.654C105.355 542.212 103.761 534.788 104.123 527.123L104.129 527.118Z" fill="#F5ECEA"/>
<path d="M35.4116 314.116C43.7058 313.837 52.0112 313.77 60.2999 313.196C63.1092 313.001 65.7235 313.491 68.1482 314.991C69.5306 315.844 71.03 316.652 72.6632 316.685C79.0455 316.819 85.4669 317.076 91.0689 313.096C94.876 310.392 99.2739 309.233 103.778 308.386C118.544 305.61 133.51 305.002 148.46 304.144C153.192 303.871 157.997 303.553 162.361 301.418C174.742 295.37 187.289 289.712 200.165 284.813C200.906 284.534 201.754 284.417 202.266 283.347C183.554 275.253 170.154 261.441 160.271 243.793C159.552 246.173 159.535 248.481 159.023 250.705C155.65 265.37 147.512 277.132 136.637 287.143C131.548 291.831 125.377 294.573 118.583 296.011C114.017 296.975 109.413 297.628 104.792 298.157C102.691 298.397 100.55 298.257 98.4267 298.246C97.8024 298.246 97.2115 297.995 96.9774 297.343C96.7154 296.607 97.2561 296.223 97.7522 295.866C98.4099 295.392 99.0956 294.963 99.7645 294.501C105.333 290.61 109.257 285.465 111.554 279.066C112.446 276.58 113.198 274.055 113.689 271.468C115.143 263.804 114.642 256.346 111.175 249.233C110.773 248.414 110.339 247.611 109.865 246.836C109.179 245.716 108.298 245.621 107.384 246.552C106.253 247.712 105.088 248.849 104.079 250.108C98.1926 257.455 93.6831 265.56 90.9741 274.595C88.0867 284.216 85.7122 293.938 86.1637 304.11C86.1804 304.512 86.1637 304.93 86.0522 305.314C85.7066 306.49 84.6531 306.925 83.7055 306.189C83.0868 305.704 82.5907 305.019 82.1503 304.35C80.584 301.97 79.2964 299.434 78.4212 296.73C75.5729 287.94 73.4547 278.993 73.1927 269.696C73.1649 268.731 73.4659 267.667 72.5238 266.697C72.1727 266.937 71.9386 267.009 71.8605 267.165C71.5763 267.7 71.3143 268.247 71.0857 268.809C67.5573 277.617 66.8717 286.674 68.7502 295.939C69.1738 298.018 69.7925 300.058 70.2608 302.131C70.651 303.859 70.2831 304.434 68.5049 304.428C62.3233 304.411 56.1026 304.417 50.2219 302.193C45.3948 300.37 40.6623 298.274 36.3814 295.32C36.047 295.091 35.7181 294.857 35.3725 294.645C34.4695 294.094 33.8229 294.227 33.639 295.364C33.5554 295.861 33.5331 296.373 33.5331 296.875C33.5331 301.357 32.8698 305.743 31.8609 310.102C31.0024 313.831 31.4707 314.25 35.4227 314.116H35.4116Z" fill="#F4CCB5"/>
<path d="M113.182 467.593C123.65 467.905 133.555 465.642 143.031 460.943C150.01 457.481 157.106 454.259 164.068 450.748C178.042 443.696 191.264 435.547 203.215 425.363C211.961 417.905 217.59 408.49 221.375 397.822C224.965 387.699 226.81 377.281 226.358 366.523C226.23 363.496 227.356 361.467 230.026 360.191C232.016 359.238 233.354 357.671 234.536 355.826C236.999 351.969 239.931 348.446 243.454 345.531C247.975 341.796 250.912 337.064 252.98 331.685C255.349 325.526 257.127 319.188 258.337 312.711C259.418 306.908 259.892 301.061 258.27 295.253C255.879 286.697 250.087 281.697 241.592 279.885C235.728 278.636 229.268 282.555 227.479 288.257C225.26 295.325 222.707 302.243 219.246 308.803C218.917 309.428 218.655 310.091 218.371 310.738C216.704 314.506 215.935 318.413 216.208 322.56C216.437 326.1 216.804 329.617 217.328 333.123C217.73 335.827 218.276 338.508 218.27 341.261C218.27 342.922 218.047 344.522 216.905 345.81C215.896 346.936 214.848 348.279 213.114 347.816C211.548 347.398 211.715 345.765 211.359 344.544C211.303 344.349 211.297 344.143 211.264 343.942C209.569 334.065 207.891 324.188 206.158 314.316C205.757 312.025 205.249 309.745 204.608 307.51C204.045 305.537 203.521 305.314 201.793 306.172C191.364 311.351 180.952 316.557 170.545 321.774C167.674 323.212 165.874 325.581 164.915 328.619C164.179 330.966 163.867 333.357 164.085 335.815C164.414 339.545 164.709 343.279 165.043 347.008C165.517 352.292 163.327 356.222 158.639 358.602C155.456 360.219 152.117 361.373 148.644 362.125C137.385 364.561 125.975 364.868 114.509 364.578C112.385 364.522 110.584 363.926 108.845 362.761C103.734 359.333 99.4586 355.057 95.9302 350.046C93.7173 346.902 91.6604 343.647 89.5256 340.448C88.1599 338.396 86.5267 336.618 84.2525 335.542C81.8556 334.411 81.0139 334.689 80.1444 337.215C79.0296 340.464 77.9872 343.742 77.1957 347.103C75.451 354.489 73.6561 361.869 70.9081 368.976C70.2559 370.67 69.7153 372.426 69.3418 374.204C68.2214 379.533 70.2671 383.786 75.0831 386.356C76.5157 387.119 78.0206 387.721 79.6148 388.061C80.6014 388.273 81.5936 388.474 82.5803 388.697C83.1823 388.836 83.879 389.031 83.7341 389.806C83.5892 390.564 82.8534 390.57 82.2458 390.464C79.0407 389.89 75.83 389.187 73.1712 387.214C68.7955 383.964 66.3039 379.834 67.7532 374.115C68.0542 372.939 68.3273 371.752 68.528 370.553C68.8011 368.887 68.4722 368.558 66.7443 368.875C61.159 369.907 55.5626 370.653 49.8603 370.464C47.7087 370.392 47.3631 371.133 48.4166 373.095C48.9406 374.07 49.6039 374.979 50.2171 375.91C51.7277 378.184 53.2494 380.453 54.5872 382.844C61.042 394.399 65.9918 406.539 69.2693 419.371C70.6015 424.583 72.4633 429.627 74.9549 434.404C78.3718 440.954 81.9114 447.448 85.4509 453.93C86.2703 455.435 87.2402 456.879 88.277 458.25C91.9503 463.105 96.4207 466.55 102.837 467.063C106.265 467.336 109.676 467.788 113.188 467.609L113.182 467.593ZM245.901 325.955C242.975 329.037 239.396 331.022 235.327 332.148C234.775 332.298 233.989 332.421 233.872 331.568C233.789 330.949 234.458 330.81 234.92 330.665C237.256 329.94 239.413 328.859 241.442 327.516C248.376 322.923 249.875 314.004 244.77 307.404C243.543 305.816 242.306 304.199 240.617 303.023C240.143 302.694 239.519 302.226 240.048 301.568C240.522 300.977 241.18 301.323 241.682 301.646C244.034 303.157 245.639 305.381 247.144 307.644C248.872 310.236 249.368 313.24 249.636 316.306C249.413 319.907 248.476 323.246 245.896 325.955H245.901ZM224.151 312.599C225.494 314.584 225.628 317.17 227.718 318.413C228.711 317.727 228.309 316.858 228.348 316.094C228.644 310.738 228.493 305.353 229.396 300.041C229.664 298.447 230.054 296.869 230.433 295.297C230.6 294.612 230.851 293.943 231.119 293.291C233.198 288.207 237.997 284.573 242.964 284.729C248.532 284.902 251.587 288.681 253.889 293.179C254.953 295.258 255.299 297.611 255.712 299.902C256.62 304.924 256.509 309.991 256.302 315.052C256.252 316.256 255.951 317.454 255.706 318.642C255.622 319.054 255.282 319.389 254.825 319.205C254.608 319.115 254.357 318.753 254.357 318.519C254.379 317.204 254.418 315.888 254.547 314.584C255.149 308.469 254.563 302.454 253.142 296.501C252.412 293.436 250.812 290.916 248.437 288.882C245.282 286.184 241.626 285.855 238.042 287.962C235.606 289.394 233.789 291.39 232.769 294.043C231.704 296.797 231.002 299.645 230.807 302.599C230.639 305.163 230.656 305.163 233.07 306.089C238.733 308.252 241.776 312.967 241.291 318.848C241.236 319.5 241.392 320.325 240.282 320.57C239.407 319.69 239.837 318.513 239.736 317.477C239.313 313.263 237.624 309.885 233.56 308.09C231.225 307.059 230.533 307.532 230.205 310.097C229.619 314.673 229.959 319.221 230.946 323.681C231.726 327.226 231.208 330.52 229.887 333.77C229.001 335.944 228.159 338.095 228.348 340.509C228.393 341.111 228.348 341.858 227.546 341.88C226.782 341.902 226.671 341.144 226.559 340.559C226.23 338.803 226.693 337.136 227.267 335.503C227.769 334.071 228.332 332.66 228.878 331.245C230.283 327.61 229.664 324.294 227.317 321.245C226.018 319.561 224.708 317.867 223.945 315.855C223.571 314.879 223.008 313.831 224.157 312.599H224.151ZM111.638 384.823C114.514 382.342 116.097 379.193 116.71 375.481C116.878 374.477 116.644 373.262 117.591 372.532C118.411 372.716 118.416 373.257 118.45 373.753C118.845 379.639 113.678 387.264 108.065 389.087C107.58 389.243 107.017 389.433 106.733 388.864C106.437 388.262 106.989 387.967 107.418 387.721C108.901 386.863 110.334 385.954 111.644 384.828L111.638 384.823ZM94.9826 383.1C98.4943 381.685 102.073 381.556 105.696 382.599C106.265 382.76 106.878 382.972 106.844 383.769C106.409 384.505 105.763 384.171 105.222 384.048C101.978 383.296 98.8064 383.435 95.6627 384.594C95.0774 384.812 94.1799 385.347 93.8734 384.31C93.6671 383.613 94.4308 383.329 94.9882 383.106L94.9826 383.1ZM84.9437 424.828C82.1399 423.429 79.4309 421.84 76.4878 420.709C75.6461 420.386 74.8434 419.906 74.1244 419.36C72.6194 418.217 72.2124 417.047 73.0876 415.38C75.3841 411.016 78.5391 407.348 82.714 404.661C84.2358 403.68 86.0362 403.63 87.7307 403.987C92.0451 404.89 96.0919 404.444 100.155 402.626C103.383 401.183 106.766 402.309 109.966 403.189C113.082 404.048 116.114 405.224 119.157 406.328C122.201 407.431 125.233 408.574 128.371 409.405C130.138 409.873 131.85 410.531 133.249 411.774C134.904 413.245 134.938 414.672 133.316 416.144C132.797 416.612 132.195 417.047 131.554 417.314C125.557 419.839 120.144 423.44 114.425 426.472C111.014 428.284 107.48 429.811 103.494 429.772C102.887 429.767 102.279 429.772 101.672 429.772C95.579 429.873 90.2168 427.47 84.9437 424.839V424.828Z" fill="#F4CCB5"/>
<path d="M219.156 304.819C221.664 300.037 223.42 294.975 224.986 289.836C225.209 289.1 225.649 288.326 225.126 287.528C224.156 287.127 223.587 287.841 222.952 288.275C220.761 289.764 218.905 291.637 217.082 293.537C213.933 296.826 210.939 300.299 207.093 302.824C205.616 303.794 205.616 304.998 205.995 306.514C208.621 317.038 210.31 327.746 212.132 338.42C212.456 340.315 212.801 342.21 213.158 344.1C213.253 344.59 213.403 345.12 213.972 345.276C214.669 345.466 215.114 344.992 215.505 344.529C216.631 343.175 216.753 341.564 216.53 339.925C216.068 336.514 215.41 333.125 215.087 329.702C214.641 324.986 213.66 320.271 214.858 315.505C215.806 311.737 217.366 308.225 219.156 304.819Z" fill="#909DA9"/>
<path d="M112.358 324.947C116.02 324.552 119.866 325.365 123.205 322.918C124.676 321.843 126.521 321.408 128.417 321.737C130.702 322.132 131.945 323.855 131.649 326.079C131.482 327.35 130.128 328.543 130.936 329.786C131.677 330.928 133.299 330.761 134.503 331.24C136.962 332.222 138.071 333.682 137.831 335.705C137.597 337.667 136.092 339.078 133.69 339.546C133.093 339.663 132.48 339.668 131.884 339.763C130.903 339.925 130.234 340.488 129.921 341.441C129.704 342.116 129.531 342.807 129.286 343.47C128.272 346.224 126.081 347.049 123.467 345.666C122.068 344.93 121.103 343.804 120.524 342.327C120.273 341.692 120.1 340.889 119.186 340.878C118.266 340.867 117.714 341.48 117.285 342.194C116.622 343.314 116.605 344.468 117.107 345.683C118.288 348.542 121.577 350.287 124.565 349.423C126.008 349.005 127.363 348.269 128.745 347.639C130.217 346.965 131.633 346.162 133.132 345.566C135.546 344.607 138.088 344.602 140.618 344.919C141.9 345.081 142.943 345.733 143.232 347.104C143.511 348.425 142.669 349.161 141.627 349.73C141.098 350.02 140.551 350.298 140.055 350.638C139.626 350.934 139.303 351.363 139.52 351.92C139.715 352.428 140.133 352.729 140.685 352.745C141.187 352.756 141.711 352.773 142.19 352.656C144.944 351.976 147.647 351.134 150.222 349.925C151.895 349.144 152.681 347.835 152.536 346.04C151.95 338.749 150.735 331.569 148.004 324.741C146.449 320.862 143.366 319.005 139.214 318.916C137.998 318.894 136.783 318.916 135.568 318.916C129.08 318.983 122.686 320.137 116.22 320.488C114.91 320.561 113.595 320.717 112.319 321.012C110.925 321.335 110.836 322.506 110.964 323.676C111.053 324.474 111.477 325.037 112.352 324.942L112.358 324.947Z" fill="#FFE700"/>
<path d="M32.4421 339.417C33.6963 338.364 35.0452 337.89 36.6227 338.731C37.3417 339.116 38.111 339.517 38.9192 339.122C40.5636 338.319 42.1132 337.271 43.2001 335.822C44.1477 334.562 42.8322 333.369 42.5368 332.143C42.4197 331.652 42.2748 331.162 42.0741 330.705C41.3997 329.138 42.102 326.914 40.5859 325.933C39.0641 324.952 37.0352 325.749 35.6528 325.638C30.6696 325.627 26.1768 326.407 21.6618 326.881C19.8502 327.07 19.4155 327.645 19.3987 329.451C19.3932 330.153 19.4656 330.872 19.6384 331.552C20.9483 336.775 23.1055 341.669 25.5135 346.463C25.6473 346.73 25.8145 346.992 26.0152 347.215C26.6562 347.94 27.2359 347.856 27.6428 346.992C27.9828 346.262 28.2615 345.498 28.557 344.746C29.3875 342.628 30.7141 340.872 32.4477 339.417H32.4421Z" fill="#FFE700"/>
<path d="M60.4397 357.95C60.5122 357.404 60.0718 357.053 59.6817 356.735C58.9849 356.156 58.2881 355.966 57.5579 356.707C56.6549 357.622 55.5122 358.068 54.2692 357.911C52.3852 357.672 50.4454 357.956 48.6171 357.337C47.7475 357.042 47.0396 357.103 46.4878 357.867C46.1868 358.279 45.9582 358.764 46.3206 359.249C46.8222 359.918 47.5692 359.745 48.2603 359.377C50.869 359.377 53.4777 359.428 56.0808 359.355C57.1733 359.322 58.2603 359.037 59.3472 358.837C59.8545 358.742 60.3617 358.53 60.4342 357.956L60.4397 357.95Z" fill="#FF8A00"/>
<path d="M50.6176 333.833C51.2196 334.724 52.0613 334.825 53.0089 334.373C54.0178 333.894 54.224 333.147 53.8673 332.132C53.3322 330.611 52.6912 329.111 52.5407 327.489C52.3902 325.889 51.3422 325.549 50.4504 325.561C48.3211 325.522 47.7637 326.057 48.0535 327.74C48.4381 329.947 49.3634 331.971 50.612 333.833H50.6176Z" fill="#FF8A00"/>
<path d="M61.6052 344.59C62.6698 346.78 63.8906 348.23 63.7847 350.114C63.7401 350.889 64.1414 351.546 64.9664 351.619C66.0477 351.714 66.2094 350.788 66.3933 350.013C66.5606 349.322 66.6442 348.525 66.1704 347.968C65.0946 346.714 63.9519 345.498 61.5996 344.59H61.6052Z" fill="#FF8A00"/>
<path d="M115.847 337.771C116.254 337.514 116.834 337.314 116.627 336.661C116.443 336.082 115.886 335.992 115.39 336.015C112.252 336.137 109.771 337.609 107.926 340.045C105.095 343.774 106.443 348.373 110.864 350.424C110.986 350.273 111.193 350.134 111.209 349.978C111.254 349.482 111.271 348.975 111.209 348.478C110.702 344.019 111.839 340.279 115.847 337.771Z" fill="#FFCA00"/>
<path d="M44.487 350.464C45.1001 350.163 45.8526 350.069 46.2707 349.104C44.2361 348.068 43.5895 347.951 41.9285 348.419C38.0322 349.522 35.8471 352.137 35.2618 356.1C35.1058 357.148 34.6654 358.413 36.254 358.814C37.7089 359.182 37.8148 357.956 38.1827 357.053C39.4257 354.037 41.5829 351.891 44.487 350.459V350.464Z" fill="#FFCA00"/>
<path d="M64.1464 353.603C63.5556 353.213 62.9591 352.834 62.0728 352.789C61.5043 352.884 60.8466 353.096 60.3505 353.664C60.0495 354.01 60.0383 354.4 60.3114 354.757C61.0138 355.665 61.9223 356.29 63.065 356.474C63.8844 356.607 64.3861 356.106 64.7094 355.42C65.0717 354.651 64.8209 354.054 64.1464 353.608V353.603Z" fill="#FFCA00"/>
<path d="M47.2854 334.53C48.0714 334.474 48.4449 333.984 48.1773 333.309C47.2854 331.046 46.5608 328.739 45.9755 326.381C45.8083 325.717 45.2398 325.455 44.5653 325.461C43.5564 325.545 43.1662 326.202 43.155 327.105C43.1272 329.502 43.8797 331.682 45.1394 333.694C45.6299 334.48 46.4326 334.591 47.2799 334.53H47.2854Z" fill="#FFCA00"/>
<path d="M99.8265 332.777C104.776 332.694 109.035 328.68 109.035 324.093C109.035 321.913 108.489 321.317 106.359 321.467C104.436 321.607 102.552 322.002 100.791 322.839C98.3103 324.009 96.9112 326.021 96.3761 328.652C95.7685 331.662 96.7718 332.833 99.8209 332.783L99.8265 332.777Z" fill="#FFD800"/>
<path d="M58.4881 333.831C61.7545 334.762 63.2706 337.025 63.2037 340.386C63.187 341.306 63.1759 342.237 63.7667 343.006C64.43 343.875 65.0711 345.135 66.3141 344.79C67.5292 344.45 67.0108 343.084 67.1502 342.136C67.1669 342.036 67.1502 341.936 67.1502 341.835C67.139 338.658 65.6117 333.814 63.7779 331.272C61.9217 328.703 59.3911 327.092 56.3532 326.323C54.8426 325.938 54.1124 326.557 54.3688 328.034C54.8147 330.576 55.5338 332.989 58.4881 333.836V333.831Z" fill="#FFD800"/>
<path d="M99.949 334.656C99.2746 334.762 98.5109 334.528 97.8086 335.297C98.8064 338.023 100.813 340.163 102.664 342.376C103.907 343.859 104.436 343.759 105.099 341.914C106.276 338.653 108.505 336.451 111.593 335.057C116.342 332.917 120.294 334.74 121.794 339.712C122.056 340.581 122.201 341.507 122.602 342.309C123.221 343.564 124.297 344.361 125.746 344.344C127.351 344.327 127.647 342.989 127.87 341.808C128.36 339.216 129.882 338.023 132.474 337.845C133.996 337.739 135.579 337.365 135.935 335.481C136.175 334.221 135.278 333.474 132.892 332.688C131.571 332.254 130.016 332.259 129.079 331.011C127.892 329.428 129.269 328.168 129.704 326.786C130.434 324.456 129.09 322.85 126.733 323.402C125.473 323.697 124.263 324.311 123.121 324.952C120.857 326.217 118.6 326.908 115.891 326.596C113.316 326.301 110.885 327.192 109.23 329.467C106.933 332.627 103.689 334.082 99.949 334.662V334.656Z" fill="#F8F8F8"/>
<path d="M43.8628 346.544C44.2642 346.572 44.6711 346.583 45.0724 346.622C49.3812 347.068 50.8973 349.164 49.9386 353.345C49.5205 355.156 49.6209 355.301 51.5774 355.686C51.9731 355.764 52.3856 355.786 52.7758 355.898C54.2529 356.316 55.3232 356.115 55.7635 354.37C56.0868 353.105 57.0902 352.392 58.3332 352.007C58.9129 351.829 59.4926 351.617 60.0221 351.327C61.8894 350.285 62.2741 349.014 60.8304 347.431C59.4146 345.876 59.186 344.527 60.4848 342.893C60.73 342.581 60.8917 342.191 61.031 341.812C62.3465 338.351 59.827 335.067 56.1537 335.547C55.0668 335.686 54.0188 336.154 52.9765 336.533C51.7167 336.985 50.3957 337.442 49.1248 336.996C46.7837 336.177 44.9888 337.119 43.2218 338.434C42.33 339.097 41.4548 339.794 40.5295 340.413C39.2865 341.249 37.932 341.701 36.5552 340.798C34.9053 339.716 33.7236 340.441 32.5474 341.595C30.669 343.44 29.9276 345.853 29.0246 348.233C28.1718 350.485 28.4951 352.375 30.0725 354.12C30.8641 354.995 31.427 356.472 32.7704 356.266C34.0413 356.071 34.0524 354.543 34.281 353.523C35.2118 349.326 40.0056 346.305 43.8684 346.55L43.8628 346.544Z" fill="#F8F8F8"/>
<path d="M118.667 422.025C122.173 419.996 125.735 418.084 129.453 416.462C130.607 415.955 132.335 415.626 132.274 414.105C132.201 412.494 130.434 412.159 129.163 411.596C128.795 411.435 128.394 411.345 128.004 411.24C124.286 410.242 120.713 408.82 117.101 407.488C114.253 406.44 111.421 405.314 108.495 404.534C105.886 403.837 103.144 403.107 100.485 404.417C96.6218 406.318 92.6587 406.886 88.4056 405.972C86.3488 405.532 84.1972 405.515 82.3076 406.964C79.4592 409.149 77.1292 411.797 75.2173 414.801C74.0189 416.68 74.3701 417.332 76.6945 418.202C76.6945 418.202 76.6889 418.196 76.6833 418.19C76.6833 418.19 76.6945 418.19 76.7 418.19C76.9174 416.468 78.2273 415.966 79.632 415.582C88.1548 413.252 96.8002 411.814 105.669 412.466C112.017 412.934 118.355 413.296 124.726 413.018C125.624 412.979 126.56 412.839 127.419 413.224C127.647 413.324 127.898 413.648 127.915 413.887C127.926 414.121 127.714 414.472 127.497 414.601C126.772 415.035 125.93 414.941 125.133 414.946C122.001 414.957 118.851 415.169 115.741 414.896C111.555 414.528 107.48 415.208 103.383 415.682C98.2495 416.273 93.1157 416.507 87.9597 416.306C84.0634 416.156 80.3343 416.886 76.6945 418.196C76.6945 418.202 76.6945 418.207 76.6945 418.213C78.4893 420.125 81.1314 420.509 83.2775 421.808C86.6554 423.854 90.2674 425.465 94.0355 426.696C100.501 428.82 106.778 428.62 112.815 425.236C114.754 424.149 116.75 423.146 118.673 422.031L118.667 422.025Z" fill="#DD817F"/>
</svg>
