<svg width="392" height="568" viewBox="0 0 392 568" fill="none" xmlns="http://www.w3.org/2000/svg">
<g clip-path="url(#clip0_22_2678)">
<path d="M218.737 507.011C217.675 507.59 217.727 508.52 217.503 509.283C215.059 517.59 213.034 526.001 211.238 534.47C209.861 540.947 209.454 547.465 210.613 554.04C210.802 555.107 211.433 556.518 210.148 557.172C208.857 557.832 208.146 556.432 207.331 555.715C203.384 552.244 198.989 549.479 194.198 547.339C192.391 546.53 190.578 545.726 188.765 544.929C185.844 543.649 185.552 543.741 184.238 546.541C183.572 547.964 182.901 549.37 181.874 550.575C179.683 553.156 177.101 555.141 173.939 556.49C159.022 562.852 145.23 560.397 132.263 551.338C126.509 547.321 121.488 542.491 116.939 537.138C110.995 530.149 105.074 523.138 98.8716 516.385C91.2294 508.055 82.5316 500.906 72.9501 494.888C59.8804 486.677 47.1377 477.98 34.4811 469.155C24.6357 462.288 16.2706 453.946 9.57512 443.945C2.13949 432.832 -0.832473 420.772 0.969062 407.398C2.97141 392.556 6.77528 378.172 11.0209 363.869C13.3675 355.974 15.8174 348.114 18.2386 340.242C21.8302 328.567 26.4832 317.287 31.0673 305.985C31.9337 303.85 32.6681 301.71 33.0984 299.432C33.7811 295.824 35.3761 292.519 36.8793 289.191C42.2265 277.355 49.1687 266.46 56.5814 255.851C62.7548 247.01 68.2168 237.813 71.6994 227.532C72.2961 225.765 73.0936 224.026 74.0632 222.431C80.8505 211.283 88.0452 200.411 97.7012 191.467C102.825 186.722 108.12 182.161 113.846 178.127C114.443 177.708 115.028 177.272 115.596 176.813C115.998 176.492 116.491 176.153 116.371 175.557C116.221 174.828 115.556 174.633 114.942 174.553C111.322 174.105 107.707 173.606 104.075 173.291C94.3104 172.441 84.6314 170.846 74.8894 169.825C68.9799 169.206 63.0704 168.655 57.1552 168.064C55.8069 167.926 54.4529 167.811 53.1218 167.582C50.408 167.117 49.6507 165.711 50.6088 163.147C51.1539 161.69 52.1407 160.628 53.5808 160.118C55.7782 159.343 56.7019 157.679 57.4937 155.614C59.6165 150.077 60.1386 144.265 60.873 138.476C62.0721 129.027 62.0319 119.554 61.1484 110.088C60.7984 106.381 60.4828 106.198 56.9085 105.383C55.9962 105.176 55.0668 105.004 54.166 104.746C52.9841 104.408 51.9514 103.713 51.9743 102.411C52.0087 100.569 50.8727 99.8579 49.4843 99.2325C49.1056 99.0604 48.7384 98.8539 48.4057 98.6014C46.4377 97.1269 46.5238 95.5032 48.6811 94.2008C49.4786 93.7189 50.3277 93.2599 51.217 92.996C53.8849 92.187 55.279 90.3568 56.0192 87.7463C58.1592 80.2074 59.9894 72.6398 59.955 64.7165C59.9263 58.0382 59.5419 51.3828 59.1747 44.7217C59.0428 42.3235 58.6067 39.9597 57.9412 37.6475C57.1494 34.8936 56.7134 34.5264 53.8504 34.251C52.5997 34.1305 51.3547 34.0215 50.2244 33.4076C47.7 32.0364 47.5221 29.5751 49.8744 27.9686C50.7293 27.3834 51.7047 26.976 52.6399 26.5113C61.5041 22.0706 70.747 18.4905 79.8293 14.5489C87.196 11.3532 94.6145 8.30662 102.239 5.76497C105.395 4.71503 108.476 3.38969 111.5 1.98977C114.5 0.601329 117.558 0.0907015 120.869 0.0275904C130.393 -0.16748 139.779 1.12343 149.223 2.00698C160.227 3.03397 171.231 3.99785 182.109 5.96004C191.765 7.69846 201.485 8.84593 211.232 9.87866C229.162 11.7777 247.074 13.8604 265.014 15.616C272.783 16.3791 280.62 16.4996 288.417 16.9528C296.22 17.4118 304.023 17.8536 311.82 18.4388C319.302 19.0011 326.8 19.1732 334.27 20.0109C346.29 21.3649 358.275 22.9082 370.203 24.9278C373.491 25.4843 376.801 25.9605 380.123 26.2302C382.889 26.4597 384.53 27.8424 385.425 30.3381C387.496 36.1386 389.343 42.008 390.273 48.1125C392.126 60.2643 392.516 72.3701 389.372 84.4244C388.047 89.5077 386.216 94.35 383.887 99.026C382.711 101.39 381.116 103.484 378.884 104.93C376.784 106.289 376.44 107.999 377.054 110.306C380.6 123.576 379.802 136.961 377.851 150.347C377.324 153.961 376.188 157.432 374.983 160.892C373.325 165.643 370.123 168.838 365.665 170.887C360.932 173.067 356.187 175.23 351.391 177.272C335.251 184.14 318.561 189.453 301.791 194.507C300.695 194.84 299.576 195.133 298.521 195.569C296.777 196.292 296.576 196.848 297.603 198.369C298.595 199.837 299.72 201.209 300.804 202.614C309.324 213.687 315.48 225.799 317.821 239.747C319.256 248.278 321.172 256.723 322.285 265.312C322.497 266.965 323.45 267.596 324.798 268.095C327.827 269.214 330.811 270.464 333.863 271.52C339.101 273.327 342.021 276.908 342.934 282.381C343.605 286.397 344.294 290.373 344.322 294.47C344.385 305.124 344.035 315.732 341.993 326.226C341.631 328.085 341.844 329.967 341.89 331.843C342.268 346.961 344.225 361.964 345.034 377.053C345.269 381.425 345.521 385.791 345.602 390.169C345.67 394.047 346.6 397.817 347.306 401.604C348.683 408.993 349.176 416.492 350.306 423.911C352.263 436.745 356.755 448.65 362.722 460.119C366.577 467.532 371.116 474.531 375.201 481.801C378.477 487.63 381.776 493.528 382.533 500.292C383.508 508.996 383.99 517.745 381.77 526.386C380.869 529.891 379.24 532.926 376.561 535.474C372.94 538.922 369.458 542.525 365.992 546.14C361.701 550.62 356.755 554.287 351.488 557.471C342.165 563.105 332.01 566.335 321.149 567.414C305.05 569.014 289.49 566.846 274.648 560.431C264.183 555.91 254.171 550.557 246.167 542.112C244.107 539.937 243.505 540.098 242.277 542.961C240.872 546.237 239.059 549.272 237.171 552.273C236.729 552.973 236.276 553.696 235.697 554.281C234.635 555.354 233.568 555.17 233.006 553.81C232.696 553.053 232.587 552.204 232.472 551.378C231.388 543.512 229.403 535.835 227.458 528.159C226.35 523.804 224.721 519.621 222.42 515.737C221.296 513.838 220.55 511.79 219.902 509.69C219.632 508.824 219.672 507.802 218.725 507.034L218.737 507.011ZM2.019 414.989C2.16243 417.037 2.20833 418.816 2.42062 420.571C3.60825 430.377 7.92276 438.799 13.6946 446.671C20.0688 455.369 28.0782 462.316 36.7588 468.496C49.5818 477.624 62.7663 486.224 76.0139 494.727C85.8019 501.009 94.4424 508.697 102.234 517.321C105.447 520.878 108.453 524.619 111.586 528.25C118.258 535.984 124.707 543.954 133.216 549.834C146.073 558.727 159.688 561.057 174.278 554.338C179.126 552.106 182.224 548.435 183.693 543.305C184.249 541.378 183.882 539.771 182.408 538.492C179.792 536.208 177.778 533.408 175.592 530.763C166.349 519.581 159.085 507.223 153.859 493.694C149.567 482.592 146.142 471.215 143.445 459.626C140.68 447.721 138.62 435.689 138.104 423.48C137.553 410.445 138.333 397.433 139.859 384.472C140.554 378.574 141.036 372.664 141.391 366.726C141.736 360.972 141.03 355.274 141.236 349.548C141.449 343.691 140.663 338.034 139.102 332.29C135.539 319.192 133.416 305.858 134.139 292.134C134.747 280.522 137.134 269.437 141.976 258.886C144.053 254.365 147.037 250.51 150.904 247.366C153.979 244.87 157.077 242.397 160.17 239.924C161.484 238.874 162.625 237.681 163.635 236.339C165.287 234.141 166.389 231.72 167.112 229.058C168.919 222.42 168.908 215.65 168.759 208.868C168.661 204.519 169.35 200.308 170.95 196.32C173.153 190.83 176.441 186.251 182.603 184.587C183.699 184.289 184.731 183.75 185.787 183.291C191.312 180.887 197.09 179.693 203.108 179.671C208.324 179.653 213.533 179.63 218.748 179.653C221.674 179.665 224.583 179.407 227.481 179.045C230.831 178.632 232.053 176.974 231.652 173.721C230.917 167.743 224.486 160.972 218.548 160.146C215.667 159.745 212.77 159.377 209.832 159.486C201.794 159.779 193.791 159.159 185.799 158.454C175.643 157.559 165.586 158.035 155.677 160.433C144.885 163.049 134.684 167.02 125.137 172.912C114.058 179.745 104.047 187.818 94.6891 196.779C93.5645 197.852 92.6236 199.126 91.6425 200.337C87.4427 205.529 83.6102 210.985 79.8063 216.47C76.7655 220.859 74.2468 225.512 72.3879 230.538C69.8061 237.503 66.4956 244.095 62.3934 250.303C57.0519 258.393 51.4121 266.288 46.4722 274.641C41.3659 283.276 36.7703 292.14 34.1885 301.922C33.7122 303.73 32.9492 305.462 32.2722 307.212C29.2027 315.187 25.8291 323.065 23.0981 331.154C16.6952 350.122 10.7972 369.251 6.1327 388.729C4.04429 397.455 2.62142 406.303 2.019 415V414.989ZM377.742 128.998C378.012 124.437 377.438 118.556 376.09 112.715C374.868 107.408 374.914 107.489 369.377 106.812C353.76 104.901 338.12 103.22 322.601 100.523C303.92 97.2761 285.222 94.1607 266.334 92.1698C251.411 90.592 236.483 89.1692 221.514 88.1766C212.672 87.5914 203.871 86.639 195.059 85.7669C183.033 84.5735 171.042 83.0359 158.965 82.2958C152.522 81.8999 146.079 81.4352 139.659 80.6492C133.038 79.8402 126.405 79.1517 119.773 78.469C117.214 78.205 116.755 78.8075 117.874 80.9762C120.651 86.3808 121.775 92.2329 122.114 98.1654C122.883 111.625 119.847 124.437 114.896 136.881C113.783 139.681 111.913 141.431 109.296 142.825C94.4424 150.731 78.6646 156.509 63.1909 162.986C62.8122 163.147 62.3991 163.244 61.9918 163.319C61.6762 163.376 61.309 163.262 61.2459 162.935C61.2 162.676 61.3033 162.298 61.4869 162.108C62.227 161.334 63.231 160.984 64.1892 160.588C69.8807 158.253 75.5893 155.964 81.2636 153.6C90.0188 149.957 98.7798 146.336 107.283 142.096C110.932 140.278 113.06 137.472 114.483 133.886C114.867 132.917 115.217 131.936 115.516 130.937C117.799 123.335 119.641 115.659 120.352 107.712C121.012 100.334 120.255 93.1452 118.155 86.071C117.53 83.9596 116.612 81.9688 115.212 80.2475C113.163 77.7288 112.039 77.3731 108.958 78.5263C106.129 79.582 103.341 80.7582 100.558 81.9401C86.3527 87.9586 72.1584 93.9886 57.9641 100.036C56.9142 100.483 55.8929 101.023 54.9348 101.642C54.2635 102.078 54.2865 102.847 55.061 103.088C57.7289 103.903 60.3853 105.039 63.2368 103.696C70.5864 100.231 78.24 97.4539 85.5552 93.8796C92.3884 90.5404 99.4626 87.7061 106.537 84.9006C107.696 84.4416 108.901 84.0629 110.117 83.776C112.326 83.2597 113.416 83.8219 114.368 85.8817C115.034 87.3217 115.212 88.8708 115.355 90.4371C115.831 95.7385 115.573 101.04 115.527 106.353C115.447 116.416 112.194 125.579 108.688 134.747C107.587 137.627 105.584 139.555 102.773 140.84C97.2824 143.359 91.8376 145.946 86.2322 148.235C76.0139 152.424 65.9792 157.065 55.652 161.001C54.7856 161.334 53.948 161.793 53.1792 162.315C52.33 162.889 52.003 163.789 52.2268 164.788C52.4448 165.775 53.3169 165.981 54.1603 166.084C55.5028 166.251 56.8511 166.377 58.1994 166.503C66.1858 167.272 74.2009 167.737 82.1529 168.844C94.1268 170.514 106.17 171.621 118.178 172.964C120.261 173.199 122.091 172.826 123.818 171.673C124.684 171.093 125.614 170.611 126.491 170.055C136.778 163.514 148.202 159.945 160.026 157.662C169.286 155.872 178.684 156.044 188.071 156.847C192.844 157.255 197.635 157.817 202.414 157.788C213.045 157.725 223.648 158.792 234.279 158.419C234.486 158.414 234.698 158.425 234.905 158.431C241.79 158.568 247.957 160.869 252.605 165.861C255.99 169.498 259.702 172.172 264.343 173.692C264.733 173.818 265.095 174.048 265.473 174.226C275.405 178.856 284.005 185.419 292.101 192.689C293.621 194.054 295.044 194.737 297.155 194.06C306.582 191.036 316.1 188.282 325.486 185.132C338.04 180.916 350.232 175.758 362.441 170.628C368.867 167.932 372.923 163.715 374.501 157.008C374.57 156.704 374.667 156.405 374.753 156.107C377.151 147.708 377.771 139.102 377.765 129.009L377.742 128.998ZM390.175 66.3402C389.957 62.7486 389.774 59.5242 389.556 56.2998C388.97 47.7109 386.951 39.4319 384.18 31.3078C383.491 29.2939 382.172 28.2612 380.072 28.0432C371.357 27.1596 362.768 25.3983 354.093 24.2336C340.461 22.3976 326.789 21.0551 313.036 20.2977C300.77 19.6265 288.509 18.6109 276.231 18.1347C264.756 17.6872 253.414 15.9947 241.99 15.1111C233.878 14.4858 225.88 12.9482 217.779 12.2367C208.955 11.4622 200.136 10.6647 191.375 9.33361C182.723 8.02549 174.117 6.40182 165.431 5.2945C159.739 4.57159 153.985 4.57159 148.311 3.79705C138.7 2.48893 129.079 1.40456 119.354 1.60537C118.098 1.63406 116.864 1.60537 115.676 2.12173C104.116 7.17062 92.0843 11.0204 80.5579 16.1783C71.6191 20.1772 62.445 23.6541 53.6668 28.0202C52.8292 28.4391 51.9571 28.8235 51.1998 29.3628C49.7941 30.3611 49.9318 31.4512 51.5555 32.088C53.6095 32.8913 55.629 32.6216 57.6314 31.761C67.8726 27.349 78.1253 22.9599 88.3722 18.5593C94.5973 15.8857 100.805 13.1777 107.047 10.5385C109.377 9.55163 110.203 9.91308 111.264 12.1277C111.626 12.8793 111.872 13.6825 112.165 14.4571C114.483 20.5502 115.43 26.9359 116.342 33.3445C117.845 43.907 116.778 54.1138 112.458 63.9419C111.442 66.2484 110.037 67.895 107.661 68.9564C96.3414 74.0168 84.8839 78.7788 73.6903 84.126C66.1743 87.7176 58.6125 91.2231 51.0735 94.7688C50.6031 94.9926 50.1269 95.2221 49.7195 95.5377C48.9909 96.0999 48.8933 96.863 49.6966 97.3334C51.9514 98.6588 54.2176 99.9267 57.0175 98.6702C62.0549 96.404 67.1497 94.2754 72.1986 92.0321C83.8225 86.8742 95.5267 81.8999 107.317 77.1436C109.159 76.3978 111.035 75.8068 113.083 76.0191C120.025 76.7535 126.968 77.4707 133.915 78.1591C140.863 78.8534 147.8 79.6451 154.759 80.15C163.905 80.8213 173.044 81.4983 182.167 82.4736C192.425 83.5695 202.672 84.7915 212.942 85.7267C228.295 87.1267 243.706 87.6602 259.042 89.479C275.806 91.4699 292.6 93.237 309.204 96.3351C329.302 100.082 349.572 102.554 369.831 105.159C375.384 105.871 379.142 104.081 381.672 99.2669C382.16 98.3432 382.694 97.4482 383.153 96.513C387.892 86.88 389.619 76.5584 390.175 66.323V66.3402ZM255.45 345.228C255.45 344.953 255.41 344.832 255.456 344.758C256.047 343.788 257.166 343.633 258.044 343.111C263.328 339.973 265.64 333.329 263.362 327.632C262.197 324.729 260.975 321.86 259.478 319.1C256.764 314.109 254.911 308.825 254.372 303.127C254.165 300.947 253.93 298.773 253.689 296.598C253.402 293.959 252.909 293.311 250.321 292.892C246.902 292.341 243.465 292.375 240.057 293.047C236.494 293.752 235.92 294.269 235.295 297.815C234.451 302.565 233.017 307.103 231.009 311.498C228.45 317.092 225.943 322.709 222.885 328.051C219.988 333.122 216.086 336.984 209.93 337.884C206.734 338.355 203.561 338.929 200.308 338.946C194.158 338.98 188.025 338.762 181.88 338.366C171.811 337.712 162.086 335.618 152.591 332.296C149.688 331.281 147.863 329.416 147.066 326.444C145.419 320.282 144.174 314.063 144.26 307.643C144.352 300.976 144.048 294.297 144.644 287.642C144.753 286.449 144.581 285.261 143.462 284.607C141.661 283.551 139.785 284.32 138 284.733C136.4 285.1 136.153 286.586 136.061 287.969C135.837 291.503 135.407 295.055 135.528 298.578C135.918 310.19 137.869 321.59 140.961 332.778C142.028 336.634 142.745 340.483 142.808 344.465C142.877 348.843 142.837 353.226 143.032 357.598C143.319 363.961 143.044 370.312 142.43 376.629C141.604 385.132 140.502 393.606 140.066 402.149C139.963 404.162 140.41 405.809 141.661 407.347C143.64 409.785 145.792 412.051 148.173 414.082C152.539 417.806 157.14 421.225 161.988 424.306C172.247 430.818 183.372 435.552 194.594 440.073C197.394 441.203 200.326 441.966 203.28 442.655C207.744 443.699 212.236 444.68 216.614 446.04C222.724 447.933 228.99 448.971 235.295 449.757C239.214 450.245 243.241 450.761 247.131 450.377C254.854 449.62 262.295 447.606 268.916 443.263C278.233 437.147 286.335 429.682 293.288 421.002C295.83 417.829 298.045 414.381 299.037 410.342C301.246 401.328 303.168 392.257 304.545 383.078C305.859 374.317 307.035 365.533 309.548 357.001C310.896 352.429 310.569 351.998 305.715 352.015C297.66 352.044 289.72 351.327 281.888 349.233C275.91 347.632 270.958 344.786 267.321 339.692C265.628 337.322 265.353 337.385 263.655 339.973C262.249 342.107 260.534 343.88 258.227 345.016C257.332 345.458 256.38 345.997 255.45 345.234V345.228ZM297.236 561.177C303.116 561.269 308.837 560.265 314.43 558.423C317.047 557.563 319.376 556.237 321.424 554.396C326.754 549.605 331.011 544 334.339 537.654C336.806 532.949 338.269 527.981 338.361 522.691C338.441 518.009 338.505 513.293 338.08 508.634C336.737 493.947 333.605 479.603 329.193 465.529C326.571 457.17 324.345 448.713 323.203 439.992C321.608 427.841 321.906 415.649 322.13 403.457C322.222 398.563 322.486 393.663 322.945 388.792C323.691 380.909 324.723 373.049 325.527 365.171C325.928 361.235 326.198 357.277 326.301 353.324C326.37 350.759 325.613 350.22 323.031 350.495C320.856 350.73 318.699 351.235 316.525 351.333C313.931 351.453 312.566 352.733 311.86 355.119C310.529 359.623 309.416 364.167 308.584 368.797C306.278 381.615 304.608 394.535 301.625 407.249C299.99 414.214 296.754 420.049 292.095 425.247C288.618 429.132 284.992 432.901 281.039 436.298C275.342 441.186 269.513 446.022 262.306 448.57C255.41 451.014 250.637 455.707 247.252 461.944C242.352 470.974 239.179 480.688 236.264 490.493C235.742 492.254 235.88 493.752 237.297 495.054C238.973 496.597 239.753 498.628 240.269 500.797C240.998 503.844 241.463 506.925 241.704 510.057C242.214 516.707 243.132 523.339 243.293 529.995C243.442 536.231 246.334 540.62 250.946 544.275C251.107 544.407 251.268 544.539 251.428 544.677C264.733 555.612 279.926 561.326 297.23 561.183L297.236 561.177ZM297.712 264.285C300.529 264.285 303.34 264.262 306.157 264.285C309.215 264.314 309.749 263.889 309.657 260.969C309.209 247.136 305.612 234.164 298.234 222.443C292.898 213.969 286.88 205.982 279.083 199.476C274.034 195.265 268.979 191.082 263.385 187.6C261.079 186.165 258.755 184.553 256.064 184.169C252.002 183.595 248.181 182.218 244.228 181.3C239.518 180.204 234.773 179.659 229.965 180.6C226.769 181.225 223.545 181.277 220.309 181.288C215.409 181.306 210.509 181.34 205.61 181.288C202.15 181.248 198.765 181.759 195.357 182.27C190.32 183.027 185.902 185.482 181.18 187.083C178.776 187.898 176.986 189.326 175.546 191.317C173.945 193.532 172.706 195.919 171.931 198.558C170.933 201.983 170.371 205.443 170.445 209.034C170.595 215.919 170.537 222.781 168.804 229.54C167.783 233.51 165.901 236.878 163.027 239.729C160.95 241.795 158.603 243.539 156.274 245.295C153.182 247.63 150.37 250.263 147.766 253.115C145.987 255.054 144.541 257.228 143.617 259.69C143.044 261.216 143.589 261.99 145.184 261.784C148.276 261.394 151.478 261.124 153.738 258.536C157.295 254.463 161.948 252.977 167.152 252.891C172.78 252.799 178.415 252.747 184.043 252.811C199.109 252.971 213.676 255.496 227.521 261.767C232.495 264.016 236.735 266.643 237.928 272.455C238.238 273.964 239.294 274.549 240.751 273.958C246.207 271.755 251.727 271.841 257.321 273.322C258.979 273.763 260.379 273.241 261.532 271.945C264.074 269.105 267.401 267.538 271.027 266.873C279.846 265.255 288.687 263.677 297.723 264.28L297.712 264.285ZM289.903 563.076C290.93 564.029 292.009 564.069 292.99 564.264C303.197 566.278 313.513 566.817 323.777 565.291C335.573 563.541 346.474 559.393 356.187 552.17C363.02 547.086 368.62 540.769 374.759 534.992C378.024 531.917 379.859 528.256 380.772 523.947C381.839 518.893 381.621 513.832 381.604 508.715C381.575 500.091 379.177 492.277 374.966 484.91C369.326 475.053 363.181 465.489 358.327 455.179C353.227 444.336 349.755 433.073 348.189 421.168C347.197 413.629 346.841 406.004 345.171 398.551C344.305 394.679 344.047 390.737 343.857 386.767C343.467 378.442 342.785 370.134 342.291 361.809C341.849 354.322 340.404 346.909 340.673 339.37C340.708 338.395 340.943 337.276 339.927 336.456C338.809 337.024 338.786 338.165 338.418 339.083C337.764 340.73 337.173 342.4 336.525 344.046C335.796 345.894 334.511 347.173 332.584 347.781C331.889 347.999 331.224 348.309 330.53 348.544C328.831 349.112 328.028 350.3 327.999 352.073C327.976 353.427 327.931 354.781 327.856 356.135C326.995 371.115 324.396 385.941 323.949 400.973C323.679 409.94 323.478 418.902 323.823 427.852C324.218 438.088 325.842 448.174 328.728 458.031C330.225 463.131 331.843 468.197 333.238 473.327C337.569 489.282 340.564 505.427 340.031 522.077C339.847 527.803 338.7 533.213 336.032 538.314C333.261 543.621 329.864 548.521 325.768 552.824C322.388 556.369 318.349 559.066 313.49 560.575C307.11 562.554 300.644 563.128 294.034 562.91C292.737 562.87 291.412 562.686 289.903 563.076ZM139.773 418.718C139.957 431.897 141.948 444.852 144.794 457.692C145.069 458.926 145.522 460.085 146.411 461.026C148.77 463.521 151.001 466.166 153.686 468.324C160.124 473.487 166.894 478.18 174.318 481.806C188.18 488.571 201.892 495.605 215.357 503.132C216.861 503.976 218.41 504.394 220.148 504.125C224.05 503.522 227.544 502.042 230.585 499.495C231.904 498.387 232.782 497.079 233.201 495.364C234.796 488.777 236.746 482.271 239.162 475.954C242.203 467.985 245.215 459.93 251.377 453.642C251.52 453.492 251.652 453.326 251.75 453.142C252.237 452.247 251.95 451.679 250.952 451.72C249.397 451.777 247.831 452.156 246.293 452.058C243.178 451.869 240.057 451.691 236.942 451.502C231.015 451.134 225.111 450.411 219.385 448.776C216.482 447.944 213.613 446.998 210.664 446.321C201.921 444.313 193.326 441.932 185.099 438.208C172.912 432.7 160.956 426.882 150.56 418.276C147.582 415.809 144.759 413.205 142.103 410.405C141.684 409.963 141.231 409.384 140.531 409.624C139.825 409.865 139.796 410.611 139.791 411.214C139.756 413.715 139.779 416.211 139.779 418.712L139.773 418.718ZM145.935 300.838C145.935 303.276 145.952 305.256 145.935 307.235C145.878 313.334 147.002 319.255 148.483 325.142C149.274 328.28 151.082 330.191 154.191 331.114C159.189 332.6 164.169 334.109 169.327 334.998C178.707 336.622 188.174 337.11 197.658 337.27C202.368 337.351 207.01 336.668 211.594 335.578C214.445 334.901 216.769 333.398 218.553 331.097C219.638 329.697 220.837 328.337 221.646 326.783C226.729 316.983 232.225 307.333 233.757 296.128C234.027 294.148 235.111 292.817 236.947 292.266C243.752 290.212 250.505 290.23 257.126 293.035C258.824 293.752 259.725 295.061 259.748 296.937C259.771 298.71 259.799 300.482 259.816 302.255C259.874 310.15 261.016 317.832 264.2 325.13C264.997 326.96 265.496 328.877 265.789 330.839C267.034 339.158 271.974 344.264 279.76 346.823C283.225 347.959 286.782 348.826 290.408 349.313C299.026 350.466 307.66 350.421 316.289 349.52C321.269 348.998 326.186 348.154 330.948 346.467C333.421 345.59 334.999 344.127 335.894 341.694C337.592 337.087 338.952 332.382 339.973 327.586C342.509 315.675 342.894 303.604 342.549 291.486C342.446 287.722 341.574 284.056 340.639 280.413C339.859 277.372 338.143 275.272 335.24 273.976C328.166 270.826 320.902 268.198 313.249 266.988C299.284 264.779 285.394 265.788 271.607 268.611C268.095 269.328 264.791 270.591 262.381 273.488C261.119 275.008 259.363 275.479 257.562 275.037C251.388 273.505 245.398 273.586 239.563 276.42C238.318 277.022 237.32 276.54 236.913 275.14C236.741 274.538 236.563 273.936 236.454 273.322C235.702 269.185 233.304 266.362 229.523 264.67C222.374 261.468 215.099 258.582 207.394 257.039C194.439 254.44 181.312 254.119 168.156 254.566C162.832 254.744 158.121 256.379 154.765 260.843C153.629 262.346 152.103 263.103 150.221 263.258C148.557 263.396 146.911 263.694 145.253 263.832C142.55 264.056 140.909 265.358 140.135 268.043C139.085 271.652 138.121 275.278 137.346 278.944C136.704 281.979 137.105 282.387 140.232 282.329C144.891 282.249 146.739 284.119 146.302 288.79C145.912 292.955 146.027 297.12 145.935 300.832V300.838ZM115.407 43.3964C114.982 39.1393 114.873 34.5494 114.139 30.0111C113.307 24.8589 112.446 19.7183 110.421 14.8644C109.187 11.904 108.585 11.6515 105.716 12.9137C103.525 13.8776 101.39 14.9792 99.1872 15.9201C87.1157 21.0895 75.0328 26.2302 62.9556 31.3823C62.1868 31.7094 61.4295 32.0536 60.6722 32.3979C59.3698 32.9945 58.7043 33.9469 59.1805 35.4042C60.6836 40.0228 60.7582 44.8193 61.1369 49.6042C62.1008 61.9568 61.986 74.1831 58.1822 86.1341C57.9354 86.9029 57.3789 87.8266 58.0387 88.4979C58.8936 89.3642 59.7599 88.3946 60.6033 88.1422C60.9017 88.0504 61.1713 87.8897 61.4582 87.7578C70.5519 83.5924 79.6342 79.3927 88.7509 75.2675C94.9186 72.4734 101.132 69.7654 107.34 67.0573C109.055 66.3115 110.277 65.1583 110.995 63.4141C113.588 57.0915 115.206 50.5509 115.418 43.3849L115.407 43.3964ZM216.098 508.227C216.224 506.408 215.811 505.479 214.87 504.853C213.745 504.108 212.609 503.35 211.41 502.742C199.712 496.804 188.214 490.47 176.343 484.864C169.35 481.56 162.769 477.572 156.658 472.822C154.036 470.785 151.145 469.058 148.999 466.436C148.626 465.977 148.133 465.334 147.45 465.788C146.825 466.201 147.14 466.929 147.255 467.526C147.352 468.037 147.53 468.53 147.656 469.035C149.194 475.208 151.346 481.192 153.377 487.211C158.517 502.467 166.137 516.368 176.338 528.836C178.908 531.98 181.805 534.906 184.014 538.285C186.103 541.475 188.971 543.19 192.288 544.533C197.044 546.461 201.473 548.968 205.524 552.129C205.931 552.451 206.35 552.778 206.809 553.019C207.974 553.621 208.501 553.277 208.582 551.906C208.599 551.596 208.57 551.28 208.53 550.97C207.71 544.889 208.564 538.916 209.798 532.984C211.284 525.846 213.149 518.795 215.203 511.796C215.61 510.401 215.92 508.979 216.109 508.227H216.098ZM114.213 99.2268C114.001 96.1114 113.823 92.9903 113.548 89.8806C113.467 88.9626 113.181 88.0446 112.882 87.1611C112.412 85.7554 111.436 85.153 109.968 85.6522C108.292 86.2259 106.6 86.7595 104.976 87.4537C91.9638 93.0419 78.9687 98.6645 65.9735 104.287C62.8983 105.618 62.4795 106.249 62.8811 109.531C63.7933 117.013 63.6786 124.54 63.1851 131.993C62.6803 139.543 62.0434 147.174 59.4903 154.432C59.2206 155.195 58.6698 156.073 59.2837 156.796C60.0697 157.725 61.0107 156.939 61.8713 156.704C62.1696 156.623 62.4622 156.497 62.7491 156.371C75.3484 150.622 88.3091 145.705 100.84 139.79C104.603 138.011 106.904 135.476 108.35 131.609C112.268 121.144 114.483 110.426 114.219 99.221L114.213 99.2268ZM258.457 175.826C258.612 177.094 258.985 178.552 258.91 179.986C258.789 182.315 259.954 183.486 261.83 184.61C274.636 192.304 285.692 201.903 294.682 213.963C304.774 227.497 310.34 242.518 311.126 259.345C311.367 264.566 311.35 264.566 316.645 265.725C320.81 266.638 321.097 266.397 320.386 262.271C319.078 254.675 317.397 247.148 316.043 239.569C312.881 221.863 303.937 207.29 291.59 194.748C285.25 188.305 277.883 182.895 269.874 178.523C266.856 176.876 263.827 175.23 260.562 174.122C258.916 173.566 258.468 173.956 258.457 175.821V175.826ZM242.277 535.279C241.285 528.245 240.935 521.061 240.327 513.901C239.965 509.65 239.959 505.353 238.772 501.204C238.37 499.799 238.009 498.376 237.079 497.2C235.966 495.788 235.083 495.777 234.314 497.389C233.166 499.787 231.193 501.239 229.07 502.593C227.389 503.66 225.541 504.371 223.688 505.071C221.152 506.024 220.848 506.649 221.497 509.334C221.967 511.268 222.747 513.081 223.757 514.802C226.471 519.421 228.387 524.366 229.626 529.564C231.118 535.847 232.839 542.083 233.78 548.486C233.872 549.106 234.01 549.72 234.165 550.322C234.297 550.827 234.469 551.383 235.083 551.452C235.668 551.515 236.018 551.045 236.305 550.615C239.099 546.415 241.405 542.003 242.163 536.931C242.237 536.42 242.243 535.893 242.289 535.273L242.277 535.279ZM232.334 160.031C230.923 160.031 229.982 159.991 229.047 160.043C228.037 160.1 226.643 159.653 226.15 160.651C225.495 161.976 227.05 162.579 227.785 163.325C231.21 166.779 233.551 170.663 233.528 175.735C233.516 177.915 233.929 178.339 236.11 178.368C241.193 178.437 245.984 179.831 250.792 181.237C251.692 181.501 252.593 181.788 253.517 181.931C256.248 182.35 257.166 181.501 257.034 178.73C256.776 173.394 254.4 169.228 250.224 165.918C244.813 161.632 238.646 159.911 232.329 160.037L232.334 160.031ZM258.853 310.666C257.923 305.772 258.439 301.452 258.107 297.138C258.067 296.65 257.837 296.139 257.573 295.715C257.292 295.267 256.804 294.997 256.242 295.095C255.674 295.193 255.347 295.623 255.261 296.156C255.186 296.661 255.186 297.189 255.227 297.7C255.508 301.108 255.984 304.499 256.781 307.826C256.988 308.681 257.017 309.697 258.853 310.666Z" fill="black"/>
<path d="M215.115 528.43C215.276 526.221 215.626 524.07 216.71 522.119C217.479 520.736 218.603 519.864 220.284 520.214C221.954 520.564 222.66 521.798 222.826 523.37C223.13 526.215 222.189 528.7 220.52 530.949C219.745 531.993 218.827 532.894 217.381 532.481C216.022 532.09 215.488 530.943 215.23 529.658C215.15 529.25 215.144 528.832 215.109 528.424L215.115 528.43ZM216.722 527.747C216.767 528.143 216.75 528.78 216.917 529.365C217.255 530.541 218.202 530.868 218.999 530.008C220.623 528.258 221.38 526.147 221.088 523.743C220.996 523.002 220.617 522.343 219.803 522.153C218.793 521.918 218.276 522.607 217.869 523.352C217.163 524.649 216.911 526.078 216.716 527.747H216.722Z" fill="black"/>
<path d="M115.367 141.301C117.174 140.056 118.437 140.36 119.624 140.503C122.321 140.83 125.029 140.87 127.737 140.899C138.89 141.008 150.009 141.869 161.134 142.511C169.872 143.022 178.605 143.659 187.348 143.98C202.248 144.536 217.068 145.908 231.888 147.497C241.836 148.564 251.687 150.36 261.67 151.152C271.848 151.955 282.021 152.85 292.164 153.963C303.346 155.191 314.506 156.688 325.665 158.128C337.547 159.66 349.423 161.261 361.3 162.85C362.281 162.982 363.996 162.833 363.847 163.98C363.646 165.535 361.977 164.726 360.978 164.594C346.928 162.787 332.888 160.859 318.826 159.086C304.253 157.25 289.68 155.455 275.033 154.233C263.621 153.28 252.249 151.823 240.872 150.457C224.647 148.512 208.433 146.275 192.019 146.086C184.009 145.994 176.011 145.133 168.013 144.571C163.75 144.273 159.482 144.129 155.219 143.9C145.133 143.355 135.052 142.603 124.943 142.471C121.954 142.431 118.987 142.144 115.367 141.289V141.301Z" fill="black"/>
<path d="M375.166 99.2424C374.713 100.126 373.887 99.8965 373.244 99.753C366.187 98.1638 358.952 98.2441 351.804 97.5843C340.799 96.5688 329.852 95.1 318.911 93.6141C308.171 92.1568 297.367 91.2617 286.615 89.9192C278.348 88.8865 270.149 87.3431 261.83 86.6145C251.761 85.7309 241.709 84.6924 231.651 83.6999C224.497 82.9942 217.348 82.2024 210.194 81.5426C205.942 81.1467 201.674 80.9459 197.417 80.6361C185.047 79.7296 172.723 78.3985 160.388 77.1421C146.073 75.679 131.867 73.4586 117.627 71.4506C117.214 71.3932 116.801 71.3473 116.388 71.2785C113.37 70.7449 113.071 70.1138 114.598 67.3426C120.421 56.7572 122.435 45.489 120.886 33.5151C120.26 28.6555 119.773 23.7787 118.344 19.0626C117.374 15.8612 116.187 12.7515 114.523 9.83692C114.075 9.05663 113.525 8.26487 113.657 7.22067C114.85 7.03134 115.131 7.94358 115.544 8.58043C117.782 12.0286 119.13 15.8669 120.249 19.7855C122.177 26.5441 122.963 33.5265 123.129 40.486C123.336 48.9027 121.482 57.0555 117.971 64.7608C115.934 69.2302 115.911 69.1671 120.61 69.9474C138.815 72.9825 157.14 75.0995 175.494 76.9126C186.688 78.0199 197.91 78.9034 209.138 79.6608C217.865 80.2517 226.557 81.3705 235.272 82.2254C245.639 83.2466 256.018 84.2105 266.386 85.249C270.947 85.7022 275.508 86.1842 280.006 87.1079C285.944 88.3242 291.986 88.7143 297.998 89.2881C307.545 90.2003 317.029 91.6002 326.536 92.8338C339.87 94.5665 353.221 96.0811 366.635 97.0507C368.93 97.2171 371.179 97.6819 373.41 98.1982C374.07 98.3531 374.914 98.3187 375.166 99.2367V99.2424Z" fill="black"/>
<path d="M242.649 388.36C238.001 388.13 233.761 387.539 229.694 386.203C225.31 384.763 220.818 383.954 216.297 383.208C212.986 382.663 209.733 381.934 207.054 379.725C206.411 379.197 205.734 378.675 205.241 378.021C204.311 376.811 204.524 375.623 205.855 374.866C206.744 374.355 207.765 374.045 208.764 373.77C214.576 372.192 219.762 369.369 224.645 365.915C225.746 365.135 226.922 364.452 228.047 363.701C231.53 361.371 235.161 361.033 239.023 362.743C241.639 363.902 244.381 364.424 247.256 363.873C248.753 363.586 250.136 363.976 251.478 364.642C253.263 365.525 254.984 366.529 256.413 367.912C259.855 371.24 263.475 374.407 265.982 378.572C267.629 381.309 267.245 383.242 264.273 383.799C256.917 385.176 249.86 387.998 242.654 388.366L242.649 388.36ZM241.57 386.484C242.505 386.432 243.44 386.403 244.376 386.323C250.738 385.772 256.717 383.357 263.022 382.485C265.214 382.181 265.564 381.033 264.227 379.088C260.962 374.338 257.055 370.161 252.264 366.891C250.853 365.927 249.287 365.456 247.525 365.686C244.031 366.139 240.681 365.606 237.468 364.12C235.012 362.984 232.597 363.23 230.267 364.527C229.085 365.187 227.869 365.818 226.773 366.604C221.306 370.522 215.453 373.626 208.924 375.388C208.242 375.571 207.369 375.675 207.134 376.472C206.842 377.47 207.719 377.958 208.351 378.457C210.382 380.064 212.82 380.637 215.287 381.119C219.682 381.974 224.163 382.456 228.397 384.005C232.654 385.56 237.055 386.26 241.564 386.495L241.57 386.484Z" fill="black"/>
<path d="M218.904 337.185C220.304 339.486 221.154 341.58 223.081 342.963C224.929 344.294 227.281 344.61 229.174 346.084C226.845 347.002 223.54 345.878 220.953 343.181C219.547 341.712 217.866 340.18 218.904 337.18V337.185Z" fill="black"/>
<path d="M238.078 338.259C234.584 337.117 231.589 336.991 228.801 338.965C230.476 335.086 235.284 334.604 238.078 338.259Z" fill="black"/>
<path d="M193.046 329.674C182.036 329.054 171.026 328.457 160.303 325.416C157.285 324.562 155.902 323.03 155.317 319.931C151.984 302.289 154.055 285.111 159.213 268.123C159.993 265.547 161.301 263.998 164.141 263.751C176.735 262.65 189.282 262.254 201.778 264.864C209.386 266.453 216.575 269.098 223.523 272.501C226.151 273.786 227.614 275.587 228.084 278.651C229.788 289.741 227.677 300.206 223.477 310.396C221.566 315.032 219.208 319.398 216.024 323.339C213.792 326.105 210.981 327.568 207.642 328.348C202.834 329.473 197.957 329.685 193.04 329.674H193.046ZM155.317 303.144C155.202 308.812 156.355 314.338 157.101 319.909C157.405 322.192 158.564 323.317 160.785 323.907C166.247 325.359 171.818 326.007 177.389 326.799C181.204 327.344 184.337 326.397 187.349 324.309C192.013 321.079 197.28 319.054 202.455 316.862C204.28 316.087 206.179 315.479 208.193 315.462C210.092 315.445 210.459 315.783 210.597 317.786C210.642 318.434 210.528 319.019 211.319 319.277C213.505 319.983 217.074 318.795 218.256 316.948C219.799 314.544 219.484 313.666 216.724 313.098C213.528 312.444 210.304 312.438 207.091 312.989C202.656 313.752 198.364 314.986 194.205 316.707C189.931 318.48 185.496 319.547 180.831 319.467C169.11 319.266 160.504 307.912 163.889 296.747C165.845 290.286 170.429 286.46 176.912 286.683C180.728 286.815 183.47 288.445 184.962 292.036C185.524 293.379 186.115 294.716 186.775 296.018C187.205 296.861 187.768 297.688 188.921 297.481C189.936 297.298 190.556 296.609 190.912 295.68C191.095 295.198 191.21 294.681 191.348 294.182C192.38 290.413 193.344 289.873 197.2 290.952C197.498 291.038 197.791 291.153 198.095 291.233C198.892 291.445 199.747 291.801 200.373 290.929C200.866 290.235 200.568 289.529 200.189 288.881C199.369 287.481 199.414 286.224 200.367 284.819C201.686 282.879 201.377 281.675 199.426 280.481C198.64 279.999 197.71 279.753 196.838 279.408C194.641 278.536 194.44 278.135 195.146 275.914C196.115 272.862 195.438 271.439 192.357 270.567C189.007 269.62 185.576 269.362 182.162 270.246C173.424 272.506 165.736 276.752 158.989 282.719C157.704 283.855 156.786 285.192 156.591 286.97C156.005 292.352 155.346 297.734 155.311 303.155L155.317 303.144ZM219.438 311.285C218.491 310.39 217.441 310.264 216.437 310.017C213.563 309.312 210.637 309.518 207.716 309.535C206.156 309.547 204.481 309.742 203.23 308.612C201.663 307.2 199.994 307.355 198.261 307.963C195.702 308.858 193.161 309.805 190.642 310.786C188.307 311.698 185.972 312.651 183.476 312.966C179.529 313.465 175.96 312.662 173.464 309.248C169.574 303.924 170.63 295.588 175.667 291.371C176.149 290.969 176.666 290.619 177.148 290.218C177.463 289.954 177.796 289.621 177.67 289.168C177.498 288.565 176.93 288.45 176.413 288.45C175.794 288.45 175.163 288.519 174.554 288.634C168.283 289.816 162.908 298.233 164.732 304.561C167.159 312.989 174.554 318.141 182.42 317.602C186.643 317.315 190.596 316.179 194.509 314.647C202.094 311.675 209.874 310.006 218.061 311.647C218.457 311.727 218.887 311.784 219.432 311.285H219.438ZM222.272 277.957C222.238 277.228 222.129 276.5 222.175 275.777C222.255 274.457 221.664 273.602 220.522 273.04C213.173 269.414 205.421 267.107 197.297 266.092C196.041 265.937 194.79 266.207 193.74 266.981C193.218 267.366 192.696 267.991 193.333 268.525C194.75 269.712 196.19 271.336 198.106 271.192C200.958 270.986 202.381 272.128 203.086 274.727C203.448 276.046 204.44 276.494 205.777 276.046C206.173 275.914 206.575 275.777 206.982 275.731C208.738 275.513 209.501 276.115 209.598 277.934C209.667 279.173 209.455 280.435 209.552 281.675C209.753 284.228 210.78 285.421 213.196 286.15C218.726 287.825 222.869 284.096 222.272 277.951V277.957ZM172.839 300.333C172.764 308.365 177.303 312.186 184.377 310.889C186.436 310.511 188.37 309.713 190.303 308.939C193.109 307.82 195.892 306.638 198.823 305.869C200.677 305.387 202.61 305.066 204.176 306.472C205.565 307.722 207.12 307.849 208.818 307.82C212.048 307.768 215.267 307.734 218.434 308.617C221.693 309.524 222.157 309.237 223.236 306.133C224.131 303.563 223.815 302.857 221.176 302.582C216.621 302.1 212.054 301.761 207.487 301.44C204.113 301.205 200.837 301.778 197.665 302.914C194.331 304.108 191.009 305.341 187.693 306.575C186.023 307.194 184.331 307.676 182.524 307.631C179.299 307.544 176.935 305.657 176.385 302.49C175.805 299.145 176.694 296.288 179.643 294.308C180.246 293.901 180.894 293.562 181.508 293.167C182.047 292.817 182.558 292.381 182.323 291.652C182.053 290.814 181.342 290.596 180.561 290.751C179.959 290.866 179.351 291.072 178.8 291.348C174.732 293.367 172.948 296.781 172.839 300.344V300.333ZM206.942 299.856C209.432 299.627 212.042 300.396 214.395 299.461C219.243 297.538 223.035 294.102 226.38 290.183C227.034 289.414 227.7 288.169 226.627 287.435C225.692 286.792 224.98 288.009 224.389 288.646C221.733 291.508 218.635 293.78 215.164 295.53C210.803 297.722 206.328 295.639 205.232 290.872C204.607 288.164 204.727 285.484 206.322 283.04C206.89 282.168 207.498 281.313 207.636 280.235C207.837 278.703 207.412 278.008 205.852 278.146C203.425 278.353 202.134 277.263 201.457 275.088C201.176 274.182 200.82 273.218 199.678 273.166C198.456 273.114 197.86 274.027 197.366 274.979C196.471 276.7 196.655 277.257 198.393 278.146C199.133 278.525 199.931 278.823 200.608 279.294C202.673 280.734 203.448 282.885 202.323 284.991C201.543 286.46 201.468 287.647 202.231 289.064C202.874 290.264 202.748 291.508 201.801 292.553C200.757 293.706 199.472 293.798 198.078 293.287C197.297 293 196.523 292.667 195.714 292.495C194.647 292.272 194.084 292.742 194.348 293.878C195.043 296.861 199.133 299.931 202.272 299.874C203.832 299.845 205.399 299.874 206.959 299.874L206.942 299.856ZM187.171 326.96C187.836 327.786 188.588 327.815 189.299 327.849C195.335 328.142 201.336 327.872 207.257 326.57C208.887 326.214 210.447 325.6 211.83 324.659C212.828 323.976 214.406 323.271 214.022 321.974C213.632 320.66 212.019 321.503 210.952 321.423C209.684 321.331 208.468 321.354 207.848 319.897C206.753 317.327 206.695 317.275 204.211 318.17C199.128 320.006 194.165 322.117 189.512 324.894C188.651 325.405 187.59 325.738 187.171 326.96ZM183.287 305.892C183.82 305.772 184.761 305.651 185.628 305.336C188.754 304.211 191.876 303.075 194.956 301.836C197.068 300.987 197.137 300.493 195.714 298.692C195.393 298.284 195.031 297.911 194.698 297.516C193.832 296.489 193.086 296.638 192.088 297.498C188.255 300.82 187.687 300.7 184.813 296.385C184.291 295.599 183.815 294.79 182.684 294.813C180.32 294.859 177.756 297.94 177.727 300.797C177.698 303.62 180.062 305.961 183.281 305.892H183.287ZM158.352 277.796C158.341 279.649 158.903 279.959 160.286 279.167C165.593 276.109 169.787 271.847 173.39 266.958C174.193 265.868 173.906 265.231 172.512 265.14C169.379 264.933 166.287 265.363 163.217 265.92C162.231 266.098 161.508 266.694 161.117 267.612C159.689 270.986 159.029 274.566 158.352 277.79V277.796ZM224.125 278.823C224.682 285.433 219.839 289.018 213.465 288.089C211.658 287.825 210.138 286.942 208.881 285.61C208.043 284.727 207.28 284.704 206.701 285.897C205.731 287.888 206.5 291.411 208.267 293.144C210.023 294.859 212.065 295.094 214.573 293.798C218.692 291.663 222.22 288.829 225.101 285.146C226.661 283.155 227.16 281.101 226.415 278.743C226.099 277.733 226.231 275.983 224.756 276.213C223.465 276.413 224.263 277.974 224.12 278.829L224.125 278.823ZM172.455 270.55C173.527 271.416 174.21 270.952 174.853 270.705C179.052 269.104 183.275 267.641 187.877 267.876C188.726 267.922 189.552 267.693 190.189 267.096C190.476 266.826 190.797 266.442 190.831 266.086C190.883 265.472 190.344 265.226 189.816 265.111C186.735 264.457 183.608 264.267 180.498 264.738C176.826 265.294 174.692 267.934 172.455 270.55ZM222.232 300.683C224.613 300.757 225.439 299.891 225.864 296.97C225.967 296.271 226.26 295.456 225.571 294.945C224.837 294.4 224.206 295.003 223.632 295.41C222.794 296.007 221.928 296.598 221.194 297.315C220.43 298.061 218.772 298.474 219.249 299.77C219.679 300.935 221.268 300.401 222.232 300.683Z" fill="black"/>
<path d="M295.756 273.501C304.787 273.094 313.6 274.442 322.234 277.041C324.529 277.73 326.796 278.51 329.085 279.21C331.472 279.939 332.992 281.499 333.721 283.869C334.61 286.76 335.448 289.664 335.545 292.716C335.895 303.146 335.603 313.537 333.629 323.83C332.877 327.731 331.713 331.495 330.232 335.178C329.4 337.255 328.018 338.615 325.906 339.361C320.479 341.294 314.948 342.654 309.142 342.688C301.723 342.734 294.431 342.143 287.185 340.239C280.03 338.357 275.412 333.922 272.227 327.576C267.947 319.039 266.232 309.871 265.75 300.433C265.578 297.002 265.687 293.559 265.681 290.123C265.675 287.059 266.427 284.15 267.42 281.276C268.533 278.051 270.661 276.141 274.041 275.343C278.837 274.207 283.702 273.817 288.579 273.513C290.966 273.364 293.364 273.49 295.756 273.49V273.501ZM267.345 293.978C267.356 298.74 267.793 299.182 272.468 299.193C273.094 299.193 273.719 299.199 274.345 299.182C279.319 299.021 284.081 299.939 288.636 301.947C290.254 302.659 291.895 303.336 293.536 304.001C294.655 304.455 295.401 304.437 295.814 302.928C296.439 300.628 297.317 300.203 299.692 300.473C301.064 300.628 302.291 301.196 303.513 301.792C307.013 303.508 309.997 305.94 312.837 308.562C316.061 311.546 319.515 314.202 323.37 316.331C325.39 317.444 327.473 318.391 329.75 318.804C331.741 319.165 332.476 318.712 332.912 316.778C333.21 315.465 333.13 314.065 333.457 312.762C334.335 309.228 332.923 306.876 330.129 304.759C323.135 299.452 315.625 294.988 307.96 290.777C302.555 287.81 296.795 285.659 290.753 284.322C288.493 283.823 286.215 283.657 283.926 283.949C282.779 284.098 282.566 284.856 283.415 285.665C284.012 286.233 284.746 286.663 285.406 287.174C286.238 287.822 287.173 288.487 286.835 289.715C286.468 291.063 285.257 291.236 284.087 291.322C282.624 291.431 281.184 291.236 279.749 290.926C277.305 290.404 274.861 289.853 272.394 289.509C267.798 288.872 267.351 289.319 267.368 293.99L267.345 293.978ZM299.767 315.631C300.071 315.189 299.807 314.833 299.623 314.472C299.273 313.795 298.998 313.089 299.601 312.447C300.26 311.735 301.127 311.816 301.924 312.137C302.79 312.481 303.64 312.894 304.431 313.382C306.399 314.598 308.052 316.182 309.52 317.955C311.919 320.835 314.311 323.715 316.698 326.607C319.234 329.682 322.034 332.453 325.608 334.323C327.668 335.402 328.328 335.241 329.263 333.159C330.548 330.301 331.443 327.301 331.885 324.191C332.2 321.948 331.919 321.431 329.676 320.806C323.089 318.97 317.599 315.333 312.636 310.748C309.647 307.989 306.485 305.441 302.865 303.531C301.758 302.946 300.633 302.36 299.354 302.297C298.442 302.251 297.971 302.733 298.264 303.68C298.384 304.07 298.631 304.42 298.832 304.787C299.182 305.436 299.601 306.113 299.073 306.818C298.476 307.61 297.587 307.547 296.789 307.272C295.32 306.761 293.869 306.181 292.44 305.55C287.965 303.577 283.542 301.471 278.556 301.024C275.641 300.765 272.738 300.737 269.824 300.92C268.808 300.983 267.953 301.425 267.844 302.544C267.724 303.812 268.504 304.437 269.674 304.644C270.185 304.736 270.701 304.799 271.223 304.845C281.298 305.648 290.696 308.218 298.413 315.224C298.774 315.551 299.21 315.912 299.773 315.637L299.767 315.631ZM303.445 315.172C303.341 315.608 303.227 315.889 303.215 316.176C303.135 319.108 302.108 319.779 299.664 318.385C298.677 317.823 297.787 317.077 296.898 316.36C290.885 311.471 284.31 307.891 276.387 307.306C274.522 307.168 272.686 306.738 270.828 306.52C269.846 306.405 268.802 306.629 268.624 307.771C268.246 310.192 268.785 312.538 269.623 314.793C270.208 316.377 271.774 316.692 273.157 317.054C277.776 318.259 281.82 320.536 285.55 323.457C286.611 324.289 287.747 325.034 288.912 325.723C289.813 326.257 290.862 326.727 291.878 326.222C294.575 324.88 296.697 326.125 298.814 327.565C299.675 328.15 300.518 328.764 301.385 329.332C301.735 329.561 302.171 329.693 302.527 329.366C302.877 329.045 302.785 328.603 302.653 328.207C302.521 327.811 302.331 327.438 302.188 327.048C301.855 326.176 301.327 325.252 302.096 324.415C302.974 323.457 304.041 323.979 304.999 324.34C305.774 324.633 306.508 325.04 307.231 325.453C309.876 326.974 312.148 328.953 314.059 331.323C315.711 333.371 317.662 335.069 319.882 336.469C320.944 337.135 322.068 337.691 323.342 337.817C323.881 337.869 324.397 337.737 324.696 337.244C325.04 336.676 324.673 336.257 324.283 335.895C323.979 335.614 323.646 335.35 323.29 335.138C319.349 332.803 316.543 329.332 313.789 325.78C311.689 323.067 309.463 320.45 307.197 317.869C306.204 316.738 305.2 315.482 303.445 315.183V315.172ZM299.583 275.096C298.419 275.096 297.065 275.068 295.711 275.114C295.114 275.137 294.357 275.091 294.179 275.877C294.052 276.439 294.546 276.806 294.919 277.162C297.868 279.962 300.811 282.767 303.772 285.55C304.919 286.628 306.198 287.524 307.621 288.195C308.522 288.619 309.452 288.855 310.203 287.988C312.481 285.355 315 285.969 317.507 287.478C320.1 289.032 322.625 290.691 325.16 292.337C327.094 293.599 329.108 294.707 331.363 295.235C333.256 295.676 334.145 294.684 333.698 292.813C333.457 291.809 332.826 291.167 331.89 290.823C330.915 290.461 329.94 290.071 328.93 289.83C322.906 288.373 318.138 285.022 314.294 280.243C313.64 279.428 312.94 278.659 312.251 277.873C311.167 276.64 309.813 275.957 308.178 275.802C305.378 275.538 302.601 274.993 299.583 275.108V275.096ZM319.165 338.638C319.102 338.058 318.689 337.714 318.27 337.421C315.522 335.488 313.33 332.986 311.052 330.548C310.071 329.498 308.861 328.626 307.644 327.834C305.487 326.429 305.126 326.629 304.816 329.102C304.472 331.816 303.204 332.499 300.794 331.128C299.44 330.359 298.229 329.355 296.921 328.5C295.848 327.806 294.695 327.238 293.416 327.955C291.62 328.959 289.944 328.448 288.395 327.507C286.709 326.486 285.114 325.31 283.519 324.145C280.725 322.108 277.787 320.358 274.448 319.377C273.754 319.171 273.036 318.982 272.319 318.918C271.413 318.838 271.011 319.354 271.051 320.267C271.218 323.755 274.041 327.272 277.517 328.041C282.842 329.223 287.954 330.892 292.532 333.95C292.962 334.237 293.433 334.472 293.909 334.673C294.729 335.029 295.556 335.086 296.198 334.335C297.713 332.573 299.325 333.193 300.977 334.071C302.171 334.702 303.358 335.356 304.586 335.913C306.044 336.572 307.243 336.544 308.367 335.012C309.543 333.417 310.461 333.422 312.039 334.725C313.319 335.775 314.432 337.037 315.642 338.179C316.325 338.827 317.042 339.464 318.058 339.47C318.603 339.47 319.067 339.263 319.165 338.626V338.638ZM306.009 340.973C308.086 340.956 310.18 341.111 312.228 340.629C312.934 340.462 313.806 340.313 313.623 339.309C313.405 338.104 312.469 337.364 311.506 336.727C310.628 336.142 309.905 336.555 309.337 337.261C308.034 338.873 306.445 338.672 304.81 337.989C303.468 337.427 302.171 336.762 300.857 336.131C299.962 335.7 299.044 335.442 298.264 336.263C296.6 338.03 294.896 337.416 293.18 336.412C292.102 335.781 291.052 335.104 289.985 334.455C286.382 332.275 282.503 330.829 278.372 330.026C277.776 329.911 277.053 329.63 276.611 330.198C276.026 330.944 276.703 331.541 277.087 332.126C279.262 335.494 282.652 336.997 286.284 338.162C292.698 340.221 299.337 340.72 306.009 340.967V340.973ZM281.625 289.583C282.538 289.6 283.318 289.841 283.651 289.216C284.138 288.304 283.157 288 282.67 287.552C282.061 286.99 281.327 286.56 280.748 285.974C279.56 284.758 279.445 283.657 280.868 282.905C283.014 281.769 282.652 279.853 283.014 278.103C283.306 276.68 282.675 276.095 281.35 276.301C279.302 276.628 277.265 277.036 275.234 277.46C270.799 278.378 268.814 280.501 268.148 284.896C267.947 286.215 268.183 287.191 269.674 287.415C273.782 288.023 277.885 288.631 281.625 289.589V289.583ZM333.91 301.546C333.933 298.74 333.646 298.052 331.254 297.26C327.731 296.095 324.667 294.19 321.712 292.027C320.203 290.926 318.568 289.985 316.95 289.044C316.239 288.631 315.441 288.338 314.655 288.074C313.944 287.839 313.164 287.776 312.642 288.453C312.028 289.256 312.441 290.036 312.883 290.765C313.502 291.781 314.518 292.354 315.476 292.98C319.406 295.539 323.353 298.063 327.272 300.639C328.752 301.615 330.123 302.745 331.604 303.714C333.199 304.759 333.732 304.449 333.91 302.487C333.939 302.177 333.91 301.861 333.91 301.551V301.546ZM317.065 277.518C315.986 277.443 315.436 277.386 315.189 277.988C315.017 278.418 315.235 278.82 315.51 279.118C316.56 280.266 317.587 281.442 318.717 282.503C322.068 285.653 326.182 287.317 330.565 288.396C331.5 288.625 332.499 288.757 332.717 287.392C332.992 285.688 331.495 282.188 329.888 281.471C325.608 279.566 321.075 278.436 317.065 277.512V277.518ZM298.878 284.001C297.483 281.264 292.555 276.972 289.985 276.353C289.296 276.186 288.545 276.152 287.839 276.232C285.997 276.456 284.741 277.644 284.672 279.101C284.609 280.472 285.446 281.471 287.495 281.849C290.857 282.463 294.15 283.335 297.443 284.213C297.919 284.339 298.464 284.494 298.878 284.001Z" fill="black"/>
<path d="M260.333 380.333C258.09 381.114 256.087 380.77 254.102 380.202C250.895 379.289 247.717 378.28 244.504 377.402C237.326 375.434 230.091 375.44 222.822 376.868C220.269 377.367 217.699 377.803 215.123 378.193C213.442 378.452 213.43 378.389 211.703 377.591C211.824 377.43 211.921 377.144 212.065 377.121C218.949 376.053 225.702 374.16 232.754 374.137C238.347 374.114 243.746 375.084 249.053 376.725C252.243 377.712 255.399 378.779 258.727 379.22C259.232 379.289 259.765 379.352 260.345 380.339L260.333 380.333Z" fill="black"/>
<path d="M185.395 286.312C184.34 286.312 183.324 286.071 182.354 285.704C179.377 284.574 176.313 284.241 173.157 284.551C172.641 284.603 172.113 284.643 171.603 284.585C170.65 284.476 170.335 283.96 170.794 283.065C170.84 282.973 170.897 282.887 170.966 282.807C174.018 279.032 181.144 275.853 186.738 277.907C187.03 278.016 187.312 278.148 187.587 278.297C189.825 279.514 190.926 281.499 190.387 283.329C189.865 285.119 187.805 286.352 185.395 286.307V286.312ZM175.412 281.246C175.452 281.493 175.493 281.734 175.533 281.981C178.499 282.784 181.471 283.593 184.437 284.39C185.149 284.58 185.871 284.603 186.577 284.379C187.495 284.092 188.327 283.65 188.58 282.635C188.843 281.579 188.207 280.862 187.449 280.271C187.048 279.961 186.577 279.703 186.095 279.536C182.159 278.177 178.694 279.261 175.407 281.24L175.412 281.246Z" fill="black"/>
<path d="M298.958 291.785C299.331 291.854 299.853 291.911 300.358 292.038C308.144 293.96 315.344 297.069 321.455 302.405C322.401 303.231 323.354 304.052 323.778 305.285C324.323 306.863 323.623 307.987 321.971 308.16C320.692 308.292 319.458 307.953 318.339 307.397C311.259 303.862 304.283 300.139 297.897 295.417C297.731 295.291 297.564 295.164 297.415 295.021C296.795 294.442 296.159 293.816 296.474 292.875C296.853 291.751 297.874 291.802 298.964 291.791L298.958 291.785ZM301.041 294.396C300.995 295.428 301.42 295.773 301.844 296.037C307.381 299.519 313.015 302.835 318.924 305.652C319.475 305.916 320.106 306.077 320.715 306.123C321.546 306.186 321.862 305.715 321.518 304.935C321.174 304.149 320.508 303.621 319.848 303.122C316.607 300.684 313.262 298.389 309.458 296.903C306.784 295.859 304.122 294.711 301.041 294.401V294.396Z" fill="black"/>
<path d="M314.43 558.425C317.046 557.564 319.375 556.239 321.424 554.397C326.754 549.606 331.011 544.001 334.338 537.655C336.805 532.951 338.269 527.982 338.36 522.692C338.441 518.01 338.504 513.294 338.079 508.636C336.737 493.948 333.604 479.605 329.192 465.531C326.57 457.171 324.344 448.714 323.202 439.988C321.607 427.836 321.906 415.644 322.129 403.452C322.221 398.558 322.485 393.659 322.944 388.788C323.69 380.904 324.723 373.044 325.526 365.167C325.927 361.231 326.197 357.272 326.3 353.319C326.369 350.755 325.612 350.215 323.03 350.491C320.856 350.726 318.698 351.231 316.524 351.328C313.931 351.449 312.565 352.728 311.859 355.115C310.528 359.619 309.415 364.163 308.583 368.793C306.277 381.61 304.607 394.531 301.624 407.245C299.989 414.21 296.753 420.045 292.094 425.243C288.617 429.127 284.991 432.897 281.038 436.293C275.341 441.181 269.512 446.018 262.306 448.565C255.409 451.009 250.636 455.703 247.251 461.939C242.351 470.97 239.178 480.683 236.264 490.488C235.742 492.25 235.879 493.747 237.296 495.049C238.972 496.593 239.752 498.624 240.268 500.793C240.997 503.839 241.462 506.92 241.703 510.053C242.213 516.702 243.131 523.335 243.292 529.99C243.441 536.227 246.333 540.616 250.946 544.27C251.106 544.402 251.267 544.534 251.428 544.672C264.733 555.607 279.925 561.322 297.229 561.178C303.11 561.27 308.83 560.266 314.424 558.425H314.43Z" fill="#FFCB2A"/>
<path d="M219.805 522.152C218.796 521.917 218.279 522.606 217.872 523.351C217.166 524.648 216.914 526.077 216.719 527.746C216.765 528.142 216.747 528.779 216.914 529.364C217.252 530.54 218.199 530.867 218.996 530.007C220.62 528.257 221.377 526.146 221.085 523.742C220.993 523.001 220.614 522.342 219.8 522.152H219.805Z" fill="#F4CCB5"/>
<path d="M61.8649 156.711C62.1633 156.631 62.4559 156.505 62.7428 156.378C75.342 150.63 88.3028 145.713 100.833 139.797C104.597 138.019 106.898 135.483 108.343 131.616C112.262 121.151 114.477 110.433 114.213 99.2284C114 96.113 113.823 92.9918 113.547 89.8822C113.467 88.9642 113.18 88.0462 112.882 87.1627C112.411 85.757 111.436 85.1546 109.967 85.6537C108.292 86.2275 106.599 86.7611 104.976 87.4553C91.9632 93.0435 78.9681 98.6661 65.9729 104.289C62.8977 105.62 62.4788 106.251 62.8805 109.533C63.7927 117.014 63.678 124.542 63.1845 131.995C62.6797 139.545 62.0428 147.176 59.4897 154.433C59.22 155.196 58.6692 156.074 59.2831 156.797C60.0691 157.727 61.0101 156.941 61.8707 156.705L61.8649 156.711Z" fill="#F8F8F8"/>
<path d="M60.5909 88.1501C60.8893 88.0583 61.1589 87.8976 61.4458 87.7657C70.5395 83.6003 79.6218 79.4006 88.7385 75.2754C94.9062 72.4813 101.12 69.7732 107.328 67.0652C109.043 66.3193 110.265 65.1661 110.982 63.422C113.576 57.0994 115.194 50.5588 115.406 43.3928C114.981 39.1357 114.872 34.5458 114.138 30.0075C113.306 24.8554 112.445 19.7147 110.42 14.8608C109.186 11.9004 108.584 11.6479 105.715 12.9101C103.524 13.874 101.389 14.9756 99.1863 15.9165C87.1148 21.0859 75.0319 26.2266 62.9547 31.3787C62.1859 31.7058 61.4286 32.05 60.6713 32.3943C59.3689 32.9909 58.7033 33.9433 59.1795 35.4006C60.6827 40.0192 60.7573 44.8157 61.136 49.6006C62.0999 61.9532 61.9851 74.1796 58.1812 86.1305C57.9345 86.8993 57.378 87.823 58.0378 88.4943C58.8927 89.3606 59.7533 88.391 60.6024 88.1386L60.5909 88.1501Z" fill="#F8F8F8"/>
<path d="M163.022 239.742C160.945 241.808 158.598 243.552 156.269 245.307C153.177 247.643 150.365 250.276 147.761 253.128C145.982 255.067 144.536 257.241 143.612 259.703C143.039 261.229 143.584 262.003 145.179 261.797C148.271 261.407 151.473 261.137 153.733 258.549C157.29 254.476 161.943 252.99 167.147 252.904C172.776 252.812 178.41 252.76 184.038 252.823C199.104 252.984 213.672 255.509 227.516 261.78C232.49 264.029 236.73 266.656 237.923 272.468C238.233 273.977 239.289 274.562 240.746 273.971C246.202 271.768 251.722 271.854 257.316 273.335C258.974 273.776 260.374 273.254 261.527 271.958C264.069 269.118 267.396 267.551 271.022 266.886C279.841 265.268 288.682 263.69 297.718 264.292C300.535 264.292 303.347 264.27 306.164 264.292C309.222 264.321 309.755 263.897 309.664 260.976C309.216 247.143 305.619 234.171 298.24 222.45C292.905 213.976 286.886 205.989 279.089 199.483C274.04 195.272 268.986 191.089 263.392 187.607C261.085 186.172 258.762 184.56 256.071 184.176C252.009 183.602 248.188 182.225 244.235 181.307C239.524 180.211 234.779 179.666 229.971 180.607C226.776 181.232 223.551 181.284 220.315 181.296C215.416 181.313 210.516 181.347 205.616 181.296C202.157 181.255 198.772 181.766 195.364 182.277C190.326 183.034 185.908 185.49 181.187 187.09C178.783 187.905 176.993 189.334 175.552 191.325C173.952 193.539 172.712 195.926 171.944 198.565C170.945 201.99 170.383 205.45 170.458 209.042C170.607 215.926 170.549 222.788 168.817 229.547C167.795 233.517 165.914 236.885 163.039 239.736L163.022 239.742Z" fill="#FFDAC5"/>
<path d="M143.467 284.607C141.666 283.551 139.79 284.32 138.005 284.733C136.405 285.101 136.158 286.587 136.066 287.969C135.842 291.503 135.412 295.055 135.533 298.578C135.923 310.19 137.873 321.59 140.966 332.778C142.033 336.634 142.75 340.483 142.813 344.465C142.882 348.843 142.842 353.226 143.037 357.598C143.324 363.961 143.049 370.312 142.435 376.629C141.608 385.132 140.507 393.606 140.071 402.149C139.968 404.163 140.415 405.809 141.666 407.347C143.645 409.785 145.797 412.051 148.178 414.082C152.544 417.806 157.145 421.225 161.993 424.306C172.252 430.818 183.377 435.552 194.599 440.073C197.399 441.203 200.331 441.966 203.285 442.655C207.749 443.699 212.241 444.68 216.619 446.04C222.729 447.933 228.994 448.971 235.3 449.757C239.218 450.245 243.246 450.761 247.136 450.377C254.859 449.62 262.3 447.606 268.921 443.263C278.238 437.147 286.339 429.682 293.293 421.002C295.835 417.829 298.049 414.381 299.042 410.342C301.251 401.328 303.173 392.257 304.55 383.078C305.864 374.317 307.04 365.533 309.553 357.001C310.901 352.429 310.574 351.998 305.72 352.016C297.665 352.044 289.725 351.327 281.893 349.233C275.915 347.632 270.963 344.786 267.326 339.692C265.633 337.322 265.358 337.385 263.66 339.973C262.254 342.107 260.539 343.88 258.232 345.016C257.337 345.458 256.385 345.997 255.455 345.234C255.455 344.959 255.415 344.838 255.461 344.763C256.052 343.794 257.171 343.639 258.048 343.117C263.333 339.979 265.645 333.335 263.367 327.637C262.202 324.734 260.98 321.866 259.483 319.106C256.769 314.114 254.916 308.83 254.377 303.133C254.17 300.953 253.935 298.778 253.694 296.604C253.407 293.965 252.914 293.316 250.326 292.898C246.907 292.347 243.47 292.381 240.062 293.053C236.499 293.758 235.925 294.275 235.3 297.82C234.456 302.571 233.022 307.109 231.014 311.504C228.455 317.098 225.948 322.715 222.89 328.056C219.992 333.128 216.091 336.989 209.935 337.89C206.739 338.361 203.566 338.934 200.313 338.952C194.163 338.986 188.03 338.768 181.885 338.372C171.816 337.718 162.091 335.624 152.596 332.302C149.692 331.286 147.868 329.422 147.07 326.45C145.424 320.288 144.179 314.069 144.265 307.648C144.357 300.982 144.053 294.303 144.649 287.648C144.758 286.455 144.586 285.267 143.467 284.613V284.607ZM238.077 338.257C234.583 337.116 231.588 336.989 228.799 338.963C230.475 335.085 235.283 334.603 238.077 338.257ZM218.902 337.184C220.302 339.485 221.151 341.579 223.079 342.962C224.927 344.293 227.279 344.609 229.172 346.083C226.843 347.001 223.538 345.877 220.951 343.18C219.545 341.711 217.864 340.179 218.902 337.179V337.184ZM205.856 374.868C206.745 374.357 207.766 374.047 208.764 373.772C214.576 372.194 219.763 369.371 224.645 365.917C225.747 365.137 226.923 364.454 228.048 363.703C231.53 361.373 235.162 361.035 239.023 362.744C241.64 363.903 244.382 364.425 247.256 363.875C248.754 363.588 250.137 363.978 251.479 364.644C253.264 365.527 254.985 366.531 256.413 367.914C259.856 371.241 263.476 374.409 265.983 378.574C267.63 381.311 267.245 383.244 264.274 383.801C256.918 385.178 249.861 388 242.655 388.368C238.008 388.138 233.768 387.547 229.7 386.21C225.317 384.77 220.824 383.961 216.303 383.215C212.993 382.67 209.74 381.942 207.06 379.733C206.418 379.205 205.741 378.683 205.247 378.029C204.318 376.818 204.53 375.631 205.861 374.873L205.856 374.868Z" fill="#FFDAC5"/>
<path d="M233.203 495.366C234.798 488.78 236.748 482.274 239.164 475.957C242.205 467.987 245.217 459.932 251.379 453.644C251.522 453.495 251.654 453.328 251.752 453.145C252.239 452.25 251.952 451.682 250.954 451.722C249.399 451.779 247.833 452.158 246.295 452.06C243.18 451.871 240.059 451.693 236.943 451.504C231.017 451.137 225.113 450.414 219.387 448.779C216.484 447.947 213.615 447 210.666 446.323C201.922 444.315 193.328 441.934 185.1 438.211C172.914 432.703 160.958 426.885 150.561 418.279C147.584 415.812 144.761 413.207 142.105 410.407C141.686 409.965 141.232 409.386 140.533 409.627C139.827 409.868 139.798 410.614 139.792 411.216C139.758 413.718 139.781 416.213 139.781 418.715C139.965 431.894 141.955 444.849 144.801 457.689C145.077 458.922 145.53 460.081 146.419 461.022C148.777 463.518 151.009 466.163 153.694 468.32C160.131 473.484 166.901 478.177 174.326 481.803C188.187 488.567 201.899 495.601 215.365 503.129C216.868 503.972 218.417 504.391 220.156 504.121C224.057 503.519 227.551 502.039 230.592 499.491C231.912 498.384 232.789 497.076 233.208 495.36L233.203 495.366Z" fill="#EAC1AC"/>
<path d="M208.366 378.448C210.397 380.054 212.835 380.628 215.302 381.11C219.697 381.965 224.178 382.446 228.412 383.996C232.67 385.55 237.07 386.25 241.58 386.486C242.515 386.434 243.45 386.405 244.385 386.325C250.748 385.774 256.726 383.359 263.032 382.481C265.223 382.177 265.573 381.029 264.237 379.084C260.972 374.334 257.065 370.157 252.274 366.887C250.863 365.923 249.296 365.452 247.535 365.682C244.041 366.135 240.69 365.602 237.477 364.116C235.022 362.98 232.606 363.226 230.277 364.523C229.095 365.183 227.879 365.814 226.783 366.6C221.315 370.518 215.463 373.622 208.934 375.384C208.251 375.567 207.379 375.671 207.144 376.468C206.851 377.466 207.729 377.954 208.36 378.453L208.366 378.448ZM212.061 377.116C218.946 376.049 225.699 374.156 232.75 374.133C238.344 374.11 243.743 375.08 249.05 376.721C252.24 377.707 255.395 378.775 258.723 379.216C259.228 379.285 259.761 379.348 260.341 380.335C258.098 381.115 256.095 380.771 254.11 380.203C250.903 379.291 247.724 378.281 244.511 377.403C237.334 375.435 230.099 375.441 222.83 376.87C220.277 377.369 217.706 377.805 215.13 378.195C213.449 378.453 213.438 378.39 211.711 377.593C211.831 377.432 211.929 377.145 212.072 377.122L212.061 377.116Z" fill="#CC4036"/>
<path d="M214.871 504.853C213.746 504.107 212.61 503.35 211.411 502.742C199.713 496.804 188.215 490.47 176.344 484.864C169.351 481.56 162.77 477.572 156.66 472.822C154.038 470.785 151.146 469.058 149 466.436C148.627 465.977 148.134 465.334 147.451 465.787C146.826 466.201 147.141 466.929 147.256 467.526C147.354 468.037 147.531 468.53 147.658 469.035C149.195 475.208 151.347 481.192 153.378 487.211C158.518 502.467 166.138 516.368 176.339 528.835C178.909 531.98 181.806 534.906 184.015 538.285C186.104 541.475 188.972 543.19 192.289 544.533C197.045 546.461 201.474 548.968 205.525 552.129C205.932 552.451 206.351 552.778 206.81 553.019C207.975 553.621 208.502 553.277 208.583 551.905C208.6 551.596 208.571 551.28 208.531 550.97C207.711 544.889 208.566 538.916 209.799 532.984C211.285 525.846 213.15 518.795 215.204 511.795C215.611 510.401 215.921 508.978 216.11 508.227C216.236 506.408 215.823 505.479 214.882 504.853H214.871Z" fill="#F8F8F8"/>
<path d="M238.771 501.205C238.369 499.799 238.008 498.376 237.078 497.2C235.965 495.789 235.082 495.777 234.313 497.39C233.166 499.788 231.192 501.239 229.069 502.593C227.388 503.661 225.541 504.372 223.687 505.072C221.152 506.024 220.847 506.65 221.496 509.335C221.966 511.268 222.746 513.081 223.756 514.803C226.47 519.421 228.386 524.367 229.626 529.565C231.117 535.847 232.839 542.084 233.779 548.487C233.871 549.106 234.009 549.72 234.164 550.323C234.296 550.828 234.468 551.384 235.082 551.453C235.667 551.516 236.017 551.046 236.304 550.615C239.098 546.416 241.404 542.003 242.162 536.932C242.236 536.421 242.242 535.893 242.288 535.274C241.295 528.24 240.945 521.056 240.337 513.896C239.976 509.645 239.97 505.347 238.782 501.199L238.771 501.205Z" fill="#F8F8F8"/>
<path d="M250.225 165.921C244.815 161.635 238.647 159.914 232.33 160.04C230.919 160.04 229.978 160 229.043 160.052C228.033 160.109 226.639 159.661 226.145 160.66C225.491 161.985 227.046 162.587 227.78 163.333C231.206 166.787 233.546 170.671 233.524 175.743C233.512 177.923 233.925 178.348 236.105 178.377C241.189 178.446 245.979 179.84 250.787 181.245C251.688 181.509 252.589 181.796 253.513 181.94C256.244 182.358 257.161 181.509 257.03 178.738C256.771 173.402 254.396 169.237 250.219 165.927L250.225 165.921Z" fill="#FFEFC7"/>
<path d="M258.848 310.673C257.919 305.779 258.435 301.459 258.102 297.144C258.062 296.657 257.833 296.146 257.569 295.722C257.288 295.274 256.8 295.004 256.238 295.102C255.67 295.199 255.343 295.63 255.257 296.163C255.182 296.668 255.182 297.196 255.222 297.707C255.503 301.115 255.979 304.505 256.777 307.833C256.983 308.688 257.012 309.704 258.848 310.673Z" fill="#AA8B7B"/>
<path d="M271.606 268.612C268.095 269.329 264.79 270.591 262.381 273.489C261.118 275.009 259.363 275.48 257.561 275.038C251.388 273.506 245.398 273.586 239.563 276.421C238.318 277.023 237.32 276.541 236.912 275.141C236.74 274.539 236.562 273.936 236.453 273.322C235.702 269.186 233.304 266.363 229.523 264.67C222.374 261.469 215.099 258.583 207.394 257.04C194.439 254.441 181.311 254.119 168.156 254.567C162.831 254.745 158.121 256.38 154.765 260.844C153.629 262.347 152.102 263.104 150.221 263.259C148.557 263.397 146.91 263.695 145.252 263.833C142.55 264.057 140.909 265.359 140.134 268.044C139.084 271.653 138.12 275.279 137.346 278.945C136.703 281.98 137.105 282.388 140.232 282.33C144.891 282.25 146.738 284.12 146.302 288.79C145.912 292.956 146.027 297.121 145.935 300.833C145.935 303.272 145.952 305.251 145.935 307.23C145.877 313.329 147.002 319.25 148.482 325.137C149.274 328.275 151.081 330.186 154.191 331.109C159.188 332.595 164.168 334.104 169.326 334.993C178.707 336.617 188.173 337.105 197.657 337.266C202.368 337.346 207.009 336.663 211.593 335.573C214.445 334.896 216.768 333.393 218.553 331.092C219.637 329.692 220.836 328.332 221.645 326.778C226.728 316.978 232.225 307.328 233.757 296.123C234.026 294.143 235.111 292.812 236.947 292.262C243.751 290.208 250.504 290.225 257.125 293.03C258.823 293.747 259.724 295.056 259.747 296.932C259.77 298.705 259.799 300.477 259.816 302.25C259.873 310.145 261.015 317.827 264.199 325.125C264.997 326.955 265.496 328.872 265.789 330.834C267.034 339.153 271.973 344.259 279.759 346.818C283.224 347.954 286.782 348.821 290.408 349.308C299.025 350.461 307.66 350.416 316.289 349.515C321.269 348.993 326.186 348.149 330.948 346.462C333.421 345.585 334.998 344.122 335.894 341.689C337.592 337.082 338.952 332.377 339.973 327.581C342.509 315.67 342.893 303.599 342.549 291.481C342.446 287.718 341.573 284.051 340.638 280.408C339.858 277.367 338.143 275.267 335.239 273.971C328.165 270.821 320.902 268.193 313.248 266.983C299.283 264.774 285.393 265.784 271.606 268.606V268.612ZM223.475 310.397C221.565 315.033 219.207 319.399 216.023 323.341C213.791 326.106 210.979 327.569 207.64 328.35C202.832 329.474 197.956 329.686 193.039 329.675C182.029 329.055 171.019 328.459 160.295 325.418C157.278 324.563 155.895 323.031 155.31 319.933C151.976 302.29 154.047 285.113 159.205 268.124C159.986 265.548 161.294 263.999 164.134 263.753C176.727 262.651 189.275 262.255 201.771 264.866C209.379 266.455 216.568 269.1 223.516 272.502C226.143 273.787 227.606 275.589 228.077 278.652C229.781 289.743 227.669 300.208 223.47 310.397H223.475ZM329.077 279.215C331.464 279.943 332.985 281.504 333.713 283.874C334.603 286.765 335.44 289.668 335.538 292.721C335.888 303.151 335.595 313.541 333.621 323.834C332.87 327.736 331.705 331.499 330.225 335.183C329.393 337.26 328.01 338.62 325.899 339.365C320.471 341.299 314.941 342.659 309.134 342.693C301.716 342.739 294.424 342.148 287.177 340.243C280.023 338.361 275.404 333.926 272.22 327.581C267.94 319.044 266.225 309.875 265.743 300.437C265.57 297.006 265.68 293.564 265.674 290.127C265.668 287.063 266.42 284.155 267.412 281.28C268.525 278.056 270.654 276.145 274.033 275.348C278.83 274.212 283.695 273.822 288.572 273.518C290.958 273.368 293.357 273.495 295.749 273.495C304.78 273.087 313.592 274.435 322.227 277.035C324.522 277.723 326.788 278.503 329.077 279.203V279.215Z" fill="#B8EDF4"/>
<path d="M225.563 294.952C224.829 294.407 224.198 295.009 223.624 295.417C222.786 296.013 221.92 296.604 221.186 297.321C220.423 298.067 218.765 298.48 219.241 299.777C219.671 300.942 221.26 300.408 222.224 300.689C224.605 300.764 225.431 299.897 225.856 296.977C225.959 296.277 226.252 295.462 225.563 294.952Z" fill="#F8F8F8"/>
<path d="M340.672 339.368C340.707 338.392 340.942 337.274 339.927 336.453C338.808 337.021 338.785 338.163 338.418 339.081C337.764 340.727 337.173 342.397 336.524 344.044C335.796 345.891 334.51 347.171 332.583 347.779C331.888 347.997 331.223 348.307 330.529 348.542C328.83 349.11 328.027 350.297 327.999 352.07C327.976 353.424 327.93 354.778 327.855 356.132C326.994 371.113 324.395 385.938 323.948 400.97C323.678 409.937 323.477 418.899 323.822 427.849C324.218 438.085 325.841 448.171 328.727 458.028C330.225 463.129 331.843 468.195 333.237 473.324C337.568 489.28 340.563 505.425 340.03 522.074C339.846 527.8 338.699 533.211 336.031 538.311C333.26 543.618 329.863 548.518 325.767 552.821C322.387 556.367 318.348 559.063 313.489 560.572C307.109 562.552 300.643 563.125 294.033 562.907C292.737 562.867 291.411 562.684 289.902 563.074C290.929 564.026 292.008 564.066 292.989 564.261C303.196 566.275 313.512 566.814 323.776 565.288C335.572 563.538 346.473 559.39 356.186 552.167C363.019 547.084 368.619 540.767 374.758 534.989C378.023 531.914 379.859 528.254 380.771 523.945C381.838 518.89 381.62 513.83 381.603 508.712C381.574 500.089 379.176 492.274 374.965 484.908C369.325 475.051 363.18 465.487 358.326 455.177C353.226 444.333 349.755 433.071 348.188 421.165C347.196 413.627 346.84 406.002 345.17 398.549C344.304 394.676 344.046 390.734 343.857 386.764C343.466 378.439 342.784 370.132 342.29 361.807C341.849 354.319 340.403 346.907 340.672 339.368Z" fill="#FFD180"/>
<path d="M182.408 538.482C179.792 536.199 177.778 533.399 175.592 530.754C166.349 519.572 159.086 507.213 153.859 493.685C149.568 482.583 146.142 471.206 143.446 459.616C140.68 447.711 138.621 435.68 138.104 423.471C137.554 410.435 138.334 397.423 139.86 384.462C140.554 378.564 141.036 372.655 141.392 366.717C141.736 360.962 141.03 355.265 141.237 349.539C141.449 343.681 140.663 338.024 139.103 332.281C135.54 319.182 133.417 305.849 134.14 292.125C134.748 280.512 137.135 269.428 141.977 258.877C144.054 254.356 147.037 250.5 150.904 247.356C153.98 244.86 157.078 242.388 160.17 239.915C161.484 238.865 162.626 237.672 163.636 236.329C165.288 234.132 166.39 231.71 167.112 229.048C168.92 222.41 168.908 215.64 168.759 208.858C168.662 204.509 169.35 200.298 170.951 196.311C173.154 190.82 176.441 186.242 182.603 184.578C183.699 184.28 184.732 183.74 185.788 183.281C191.313 180.877 197.09 179.684 203.109 179.661C208.324 179.644 213.534 179.621 218.749 179.644C221.675 179.655 224.584 179.397 227.481 179.036C230.832 178.622 232.054 176.964 231.652 173.711C230.918 167.733 224.486 160.963 218.548 160.137C215.668 159.735 212.77 159.368 209.833 159.477C201.795 159.769 193.791 159.15 185.799 158.444C175.644 157.549 165.586 158.025 155.678 160.423C144.886 163.04 134.685 167.01 125.138 172.902C114.059 179.735 104.047 187.808 94.6896 196.77C93.5651 197.843 92.6241 199.116 91.643 200.327C87.4433 205.519 83.6107 210.976 79.8069 216.46C76.766 220.85 74.2473 225.503 72.3884 230.528C69.8066 237.494 66.4961 244.086 62.3939 250.294C57.0524 258.383 51.4126 266.278 46.4727 274.632C41.3664 283.266 36.7708 292.131 34.189 301.913C33.7128 303.72 32.9497 305.453 32.2727 307.203C29.2032 315.178 25.8296 323.055 23.0986 331.145C16.6957 350.113 10.7977 369.241 6.13323 388.719C4.04483 397.446 2.62196 406.293 2.01953 414.991C2.16297 417.039 2.20887 418.818 2.42115 420.573C3.60879 430.378 7.92329 438.801 13.6951 446.673C20.0693 455.37 28.0787 462.318 36.7593 468.498C49.5824 477.626 62.7668 486.226 76.0144 494.729C85.8024 501.011 94.4429 508.699 102.234 517.323C105.447 520.88 108.454 524.621 111.586 528.252C118.259 535.986 124.708 543.956 133.216 549.836C146.074 558.729 159.688 561.059 174.278 554.34C179.127 552.108 182.225 548.436 183.693 543.307C184.25 541.379 183.883 539.773 182.408 538.493V538.482Z" fill="#FFD180"/>
<path d="M269.874 178.532C266.857 176.886 263.827 175.239 260.563 174.132C258.916 173.575 258.469 173.965 258.457 175.83C258.612 177.098 258.985 178.555 258.91 179.99C258.79 182.319 259.954 183.489 261.831 184.614C274.636 192.308 285.692 201.906 294.683 213.966C304.775 227.501 310.34 242.521 311.126 259.349C311.367 264.57 311.35 264.57 316.646 265.729C320.811 266.641 321.098 266.4 320.386 262.275C319.078 254.679 317.397 247.151 316.043 239.572C312.882 221.867 303.937 207.294 291.59 194.752C285.251 188.309 277.884 182.899 269.874 178.527V178.532Z" fill="#FFD180"/>
<path d="M384.18 31.3085C383.491 29.2947 382.172 28.2619 380.072 28.0439C371.357 27.1604 362.768 25.399 354.093 24.2343C340.461 22.3983 326.789 21.0558 313.036 20.2985C300.77 19.6272 288.509 18.6117 276.231 18.1355C264.756 17.688 253.414 15.9954 241.99 15.1119C233.878 14.4865 225.88 12.9489 217.779 12.2374C208.955 11.4629 200.136 10.6654 191.375 9.33433C182.723 8.02621 174.117 6.40254 165.431 5.29523C159.74 4.57232 153.985 4.57232 148.311 3.79777C138.701 2.48965 129.079 1.40529 119.354 1.6061C118.098 1.63478 116.864 1.60609 115.676 2.12246C104.116 7.17134 92.0844 11.0211 80.558 16.179C71.6192 20.178 62.4451 23.6548 53.6669 28.021C52.8293 28.4398 51.9572 28.8242 51.1999 29.3635C49.7942 30.3618 49.9319 31.4519 51.5556 32.0888C53.6096 32.892 55.6291 32.6223 57.6315 31.7617C67.8727 27.3497 78.1254 22.9606 88.3723 18.56C94.5974 15.8864 100.805 13.1784 107.047 10.5392C109.377 9.55236 110.203 9.91381 111.264 12.1284C111.626 12.88 111.873 13.6833 112.165 14.4578C114.483 20.5509 115.43 26.9366 116.342 33.3452C117.845 43.9078 116.778 54.1145 112.458 63.9427C111.442 66.2491 110.037 67.8957 107.661 68.9571C96.3415 74.0175 84.884 78.7795 73.6904 84.1267C66.1744 87.7183 58.6126 91.2239 51.0737 94.7696C50.6032 94.9933 50.127 95.2228 49.7196 95.5384C48.991 96.1006 48.8934 96.8637 49.6967 97.3342C51.9515 98.6595 54.2177 99.9275 57.0176 98.671C62.055 96.4047 67.1498 94.2762 72.1987 92.0328C83.8226 86.8749 95.5268 81.9007 107.317 77.1444C109.159 76.3985 111.035 75.8075 113.083 76.0198C120.025 76.7542 126.968 77.4714 133.916 78.1599C140.864 78.8484 147.8 79.6459 154.759 80.1507C163.905 80.822 173.044 81.499 182.167 82.4744C192.425 83.5702 202.672 84.7923 212.942 85.7275C228.295 87.1274 243.706 87.661 259.042 89.4797C275.807 91.4706 292.6 93.2377 309.204 96.3359C329.302 100.082 349.572 102.555 369.831 105.16C375.384 105.871 379.142 104.081 381.673 99.2677C382.16 98.344 382.694 97.4489 383.153 96.5137C387.892 86.8807 389.619 76.5592 390.175 66.3237C389.957 62.7321 389.774 59.5077 389.556 56.2833C388.971 47.6944 386.951 39.4154 384.18 31.2913V31.3085ZM373.244 99.7553C366.187 98.1661 358.953 98.2464 351.804 97.5866C340.8 96.5711 329.853 95.1023 318.911 93.6164C308.171 92.1591 297.368 91.264 286.616 89.9215C278.348 88.8888 270.15 87.3454 261.83 86.6168C251.761 85.7332 241.709 84.6947 231.652 83.7022C224.497 82.9965 217.348 82.2047 210.194 81.5449C205.943 81.149 201.674 80.9482 197.417 80.6384C185.047 79.7319 172.723 78.4008 160.388 77.1444C146.073 75.6813 131.867 73.461 117.627 71.4529C117.214 71.3955 116.801 71.3496 116.388 71.2808C113.37 70.7472 113.072 70.1161 114.598 67.3449C120.421 56.7595 122.435 45.4913 120.886 33.5174C120.261 28.6578 119.773 23.781 118.344 19.0649C117.375 15.8635 116.187 12.7538 114.523 9.83923C114.076 9.05894 113.525 8.26718 113.657 7.22298C114.85 7.03365 115.131 7.94589 115.545 8.58274C117.782 12.0309 119.13 15.8692 120.249 19.7878C122.177 26.5465 122.963 33.5288 123.129 40.4883C123.336 48.905 121.483 57.0578 117.971 64.7631C115.935 69.2325 115.912 69.1694 120.611 69.9497C138.815 72.9848 157.14 75.1019 175.494 76.9149C186.688 78.0222 197.91 78.9057 209.138 79.6631C217.865 80.254 226.557 81.3728 235.272 82.2277C245.639 83.2489 256.018 84.2128 266.386 85.2513C270.947 85.7045 275.508 86.1865 280.006 87.1102C285.945 88.3265 291.986 88.7166 297.999 89.2904C307.546 90.2026 317.03 91.6025 326.536 92.8361C339.87 94.5688 353.221 96.0834 366.635 97.053C368.93 97.2194 371.179 97.6842 373.411 98.2005C374.071 98.3554 374.914 98.321 375.166 99.239C374.713 100.123 373.887 99.893 373.244 99.7496V99.7553Z" fill="#F4B8FF"/>
<path d="M369.379 106.812C353.762 104.902 338.122 103.221 322.602 100.524C303.921 97.2766 285.223 94.1612 266.336 92.1703C251.413 90.5926 236.484 89.1697 221.516 88.1771C212.674 87.5919 203.873 86.6395 195.061 85.7674C183.035 84.5741 171.044 83.0364 158.967 82.2963C152.524 81.9004 146.081 81.4357 139.66 80.6497C133.039 79.8407 126.407 79.1522 119.775 78.4695C117.216 78.2056 116.757 78.808 117.876 80.9767C120.653 86.3813 121.777 92.2334 122.116 98.1659C122.884 111.626 119.849 124.437 114.898 136.882C113.785 139.682 111.914 141.431 109.298 142.826C94.4442 150.732 78.6664 156.509 63.1927 162.987C62.814 163.147 62.4009 163.245 61.9936 163.32C61.678 163.377 61.3108 163.262 61.2477 162.935C61.2018 162.677 61.3051 162.298 61.4887 162.109C62.2288 161.334 63.2329 160.984 64.191 160.589C69.8825 158.253 75.5912 155.964 81.2654 153.6C90.0207 149.957 98.7816 146.337 107.284 142.097C110.933 140.278 113.062 137.473 114.485 133.887C114.869 132.917 115.219 131.936 115.518 130.938C117.801 123.336 119.643 115.659 120.354 107.713C121.014 100.335 120.257 93.1457 118.157 86.0715C117.531 83.9602 116.613 81.9693 115.213 80.2481C113.165 77.7294 112.041 77.3736 108.96 78.5269C106.131 79.5825 103.343 80.7587 100.56 81.9406C86.3545 87.9591 72.1602 93.9891 57.9659 100.036C56.916 100.484 55.8948 101.023 54.9366 101.643C54.2653 102.079 54.2883 102.848 55.0628 103.089C57.7307 103.903 60.3871 105.039 63.2386 103.697C70.5882 100.231 78.2418 97.4545 85.557 93.8801C92.3902 90.5409 99.4644 87.7067 106.539 84.9011C107.698 84.4421 108.902 84.0634 110.119 83.7766C112.328 83.2602 113.418 83.8225 114.37 85.8822C115.036 87.3223 115.213 88.8713 115.357 90.4377C115.833 95.739 115.575 101.04 115.529 106.353C115.449 116.416 112.196 125.579 108.69 134.747C107.588 137.628 105.586 139.555 102.775 140.84C97.2842 143.359 91.8394 145.947 86.234 148.236C76.0157 152.424 65.9811 157.066 55.6538 161.002C54.7874 161.334 53.9498 161.793 53.181 162.315C52.3318 162.889 52.0048 163.79 52.2286 164.788C52.4466 165.775 53.3187 165.982 54.1621 166.085C55.5046 166.251 56.8529 166.378 58.2012 166.504C66.1876 167.273 74.2027 167.737 82.1547 168.845C94.1286 170.514 106.171 171.621 118.18 172.964C120.262 173.199 122.093 172.826 123.82 171.673C124.686 171.094 125.615 170.612 126.493 170.055C136.78 163.515 148.203 159.946 160.028 157.662C169.288 155.872 178.686 156.045 188.072 156.848C192.846 157.255 197.637 157.817 202.416 157.789C213.047 157.726 223.65 158.793 234.281 158.42C234.488 158.414 234.7 158.426 234.907 158.431C241.791 158.569 247.959 160.87 252.606 165.861C255.991 169.499 259.703 172.172 264.345 173.693C264.735 173.819 265.097 174.048 265.475 174.226C275.407 178.856 284.007 185.42 292.102 192.689C293.623 194.055 295.046 194.737 297.157 194.06C306.584 191.037 316.102 188.283 325.488 185.133C338.042 180.916 350.233 175.758 362.443 170.629C368.868 167.932 372.925 163.715 374.503 157.008C374.571 156.704 374.669 156.406 374.755 156.108C377.153 147.708 377.773 139.102 377.767 129.01C378.037 124.449 377.463 118.568 376.115 112.727C374.893 107.42 374.939 107.501 369.402 106.824L369.379 106.812ZM363.848 163.985C363.647 165.54 361.978 164.731 360.98 164.599C346.929 162.792 332.889 160.864 318.827 159.091C304.254 157.255 289.681 155.459 275.034 154.237C263.622 153.285 252.251 151.828 240.873 150.462C224.648 148.517 208.434 146.28 192.02 146.09C184.01 145.998 176.012 145.138 168.015 144.576C163.752 144.277 159.483 144.134 155.22 143.904C145.134 143.359 135.053 142.608 124.944 142.476C121.955 142.435 118.989 142.149 115.368 141.294C117.176 140.049 118.438 140.353 119.626 140.496C122.322 140.823 125.03 140.863 127.738 140.892C138.892 141.001 150.011 141.862 161.135 142.504C169.873 143.015 178.606 143.652 187.349 143.973C202.249 144.53 217.069 145.901 231.889 147.49C241.837 148.557 251.688 150.353 261.671 151.145C271.85 151.948 282.022 152.843 292.166 153.956C303.348 155.184 314.507 156.681 325.666 158.121C337.548 159.653 349.425 161.254 361.301 162.843C362.282 162.975 363.997 162.826 363.848 163.974V163.985Z" fill="#B8EDF4"/>
<path d="M198.106 271.207C200.958 271 202.38 272.142 203.086 274.741C203.448 276.061 204.44 276.508 205.777 276.061C206.173 275.929 206.574 275.791 206.982 275.745C208.737 275.527 209.5 276.129 209.598 277.948C209.667 279.187 209.455 280.45 209.552 281.689C209.753 284.242 210.78 285.435 213.195 286.164C218.726 287.839 222.869 284.11 222.272 277.965C222.237 277.237 222.128 276.508 222.174 275.785C222.255 274.466 221.664 273.611 220.522 273.048C213.172 269.422 205.421 267.116 197.297 266.101C196.041 265.946 194.79 266.215 193.74 266.99C193.218 267.374 192.696 268 193.333 268.533C194.75 269.721 196.19 271.344 198.106 271.201V271.207Z" fill="#F8F8F8"/>
<path d="M210.953 321.427C209.685 321.335 208.469 321.358 207.849 319.901C206.754 317.33 206.696 317.279 204.212 318.174C199.129 320.01 194.166 322.121 189.513 324.898C188.652 325.409 187.591 325.741 187.172 326.963C187.837 327.79 188.589 327.818 189.3 327.853C195.336 328.145 201.337 327.876 207.258 326.573C208.888 326.218 210.448 325.604 211.831 324.663C212.829 323.98 214.407 323.274 214.023 321.978C213.633 320.664 212.02 321.507 210.953 321.427Z" fill="#F8F8F8"/>
<path d="M216.725 313.102C213.53 312.448 210.305 312.442 207.092 312.993C202.657 313.756 198.366 314.99 194.206 316.711C189.932 318.484 185.497 319.551 180.832 319.471C169.111 319.27 160.505 307.916 163.89 296.751C165.846 290.29 170.431 286.463 176.914 286.687C180.729 286.819 183.472 288.449 184.963 292.04C185.526 293.383 186.117 294.72 186.776 296.022C187.207 296.865 187.769 297.692 188.922 297.485C189.938 297.301 190.557 296.613 190.913 295.683C191.097 295.202 191.211 294.685 191.349 294.186C192.382 290.417 193.346 289.877 197.201 290.956C197.5 291.042 197.792 291.157 198.096 291.237C198.894 291.449 199.754 291.805 200.374 290.933C200.867 290.239 200.569 289.533 200.19 288.885C199.37 287.485 199.416 286.228 200.368 284.823C201.688 282.883 201.378 281.679 199.427 280.485C198.641 280.003 197.712 279.757 196.84 279.412C194.642 278.54 194.442 278.139 195.147 275.918C196.117 272.866 195.44 271.443 192.359 270.571C189.008 269.624 185.577 269.366 182.164 270.25C173.426 272.51 165.737 276.756 158.99 282.723C157.705 283.859 156.787 285.196 156.592 286.974C156.007 292.356 155.347 297.737 155.313 303.159C155.198 308.828 156.351 314.353 157.097 319.924C157.401 322.207 158.56 323.332 160.78 323.923C166.242 325.374 171.813 326.023 177.384 326.814C181.2 327.359 184.332 326.413 187.344 324.324C192.009 321.094 197.276 319.069 202.451 316.877C204.275 316.103 206.174 315.495 208.188 315.477C210.087 315.46 210.455 315.799 210.592 317.801C210.638 318.449 210.523 319.035 211.315 319.293C213.501 319.998 217.07 318.811 218.252 316.963C219.795 314.559 219.479 313.682 216.72 313.114L216.725 313.102ZM170.798 283.067C170.844 282.975 170.901 282.889 170.97 282.809C174.022 279.034 181.148 275.855 186.742 277.909C187.035 278.018 187.316 278.15 187.591 278.299C189.829 279.516 190.93 281.501 190.391 283.331C189.869 285.121 187.809 286.355 185.399 286.309C184.344 286.309 183.328 286.068 182.359 285.7C179.381 284.57 176.317 284.237 173.162 284.547C172.645 284.599 172.117 284.639 171.607 284.582C170.654 284.473 170.339 283.956 170.798 283.061V283.067Z" fill="#F8F8F8"/>
<path d="M330.117 304.758C323.123 299.451 315.613 294.988 307.948 290.776C302.543 287.81 296.783 285.659 290.741 284.322C288.481 283.823 286.203 283.656 283.914 283.949C282.767 284.098 282.554 284.856 283.403 285.664C284 286.232 284.734 286.663 285.394 287.173C286.226 287.822 287.161 288.487 286.823 289.715C286.456 291.063 285.245 291.235 284.075 291.322C282.612 291.431 281.172 291.235 279.737 290.926C277.293 290.404 274.849 289.853 272.382 289.508C267.786 288.872 267.339 289.319 267.356 293.989C267.367 298.751 267.803 299.193 272.479 299.205C273.105 299.205 273.73 299.21 274.356 299.193C279.33 299.033 284.092 299.951 288.647 301.959C290.265 302.67 291.906 303.347 293.547 304.013C294.666 304.466 295.412 304.449 295.825 302.94C296.45 300.639 297.328 300.214 299.703 300.484C301.074 300.639 302.302 301.207 303.524 301.804C307.024 303.519 310.008 305.952 312.848 308.574C316.072 311.557 319.526 314.214 323.381 316.342C325.401 317.455 327.484 318.402 329.761 318.815C331.752 319.176 332.487 318.723 332.923 316.79C333.221 315.476 333.141 314.076 333.468 312.774C334.345 309.239 332.934 306.887 330.14 304.77L330.117 304.758ZM321.97 308.161C320.691 308.293 319.457 307.954 318.338 307.398C311.258 303.863 304.282 300.14 297.896 295.418C297.73 295.292 297.563 295.166 297.414 295.022C296.794 294.443 296.158 293.817 296.473 292.876C296.852 291.752 297.873 291.803 298.963 291.792C299.336 291.855 299.858 291.918 300.363 292.044C308.149 293.966 315.349 297.076 321.459 302.412C322.406 303.238 323.358 304.058 323.783 305.292C324.328 306.87 323.628 307.994 321.976 308.166L321.97 308.161Z" fill="#F8F8F8"/>
<path d="M318.715 282.509C322.065 285.659 326.179 287.323 330.562 288.402C331.498 288.631 332.496 288.763 332.714 287.398C332.989 285.694 331.492 282.194 329.885 281.477C325.605 279.572 321.073 278.442 317.062 277.518C315.984 277.443 315.433 277.386 315.186 277.988C315.014 278.419 315.232 278.82 315.507 279.119C316.557 280.266 317.584 281.442 318.715 282.504V282.509Z" fill="#F8F8F8"/>
<path d="M311.514 336.728C310.636 336.143 309.913 336.556 309.345 337.262C308.043 338.874 306.454 338.673 304.819 337.99C303.476 337.428 302.179 336.763 300.866 336.132C299.971 335.701 299.053 335.443 298.272 336.264C296.608 338.031 294.904 337.417 293.189 336.413C292.11 335.782 291.06 335.105 289.993 334.456C286.39 332.276 282.512 330.83 278.381 330.027C277.784 329.912 277.061 329.631 276.619 330.199C276.034 330.945 276.711 331.542 277.096 332.127C279.27 335.495 282.661 336.998 286.293 338.163C292.707 340.222 299.345 340.721 306.018 340.968C308.095 340.951 310.189 341.106 312.237 340.624C312.943 340.458 313.815 340.308 313.631 339.304C313.413 338.1 312.478 337.359 311.514 336.723V336.728Z" fill="#F8F8F8"/>
<path d="M226.62 287.431C225.685 286.789 224.974 288.005 224.383 288.642C221.726 291.505 218.628 293.777 215.157 295.527C210.797 297.718 206.322 295.636 205.226 290.868C204.6 288.16 204.721 285.48 206.316 283.036C206.884 282.164 207.492 281.309 207.63 280.231C207.831 278.699 207.406 278.005 205.845 278.142C203.418 278.349 202.128 277.259 201.451 275.084C201.169 274.178 200.814 273.214 199.672 273.162C198.45 273.111 197.853 274.023 197.36 274.975C196.465 276.696 196.648 277.253 198.387 278.142C199.127 278.521 199.924 278.819 200.601 279.29C202.667 280.73 203.441 282.881 202.317 284.987C201.537 286.456 201.462 287.643 202.225 289.061C202.868 290.26 202.741 291.505 201.795 292.549C200.751 293.702 199.465 293.794 198.071 293.283C197.291 292.996 196.516 292.664 195.707 292.491C194.64 292.268 194.078 292.738 194.342 293.874C195.036 296.858 199.127 299.927 202.265 299.87C203.826 299.841 205.392 299.87 206.953 299.87C209.443 299.64 212.053 300.409 214.406 299.474C219.254 297.552 223.046 294.115 226.391 290.197C227.045 289.428 227.711 288.183 226.638 287.448L226.62 287.431Z" fill="#E26088"/>
<path d="M184.812 296.393C184.29 295.607 183.814 294.798 182.684 294.821C180.32 294.867 177.756 297.948 177.727 300.805C177.698 303.628 180.062 305.969 183.281 305.9C183.814 305.779 184.755 305.659 185.621 305.343C188.748 304.219 191.869 303.083 194.95 301.843C197.062 300.994 197.131 300.501 195.708 298.699C195.386 298.292 195.025 297.919 194.692 297.523C193.826 296.496 193.08 296.645 192.082 297.506C188.249 300.828 187.681 300.707 184.807 296.393H184.812Z" fill="#F692AC"/>
<path d="M287.494 281.838C290.856 282.452 294.149 283.324 297.443 284.202C297.919 284.328 298.464 284.483 298.877 283.99C297.483 281.253 292.554 276.961 289.984 276.342C289.296 276.175 288.544 276.141 287.838 276.221C285.997 276.445 284.74 277.633 284.671 279.09C284.608 280.461 285.446 281.459 287.494 281.838Z" fill="#F692AC"/>
<path d="M318.264 337.421C315.516 335.488 313.324 332.986 311.047 330.548C310.066 329.498 308.855 328.626 307.639 327.834C305.481 326.429 305.12 326.629 304.81 329.102C304.466 331.816 303.198 332.499 300.788 331.127C299.434 330.359 298.224 329.355 296.916 328.5C295.843 327.806 294.689 327.238 293.41 327.955C291.614 328.959 289.939 328.448 288.39 327.507C286.703 326.486 285.108 325.31 283.513 324.145C280.719 322.108 277.781 320.358 274.442 319.377C273.748 319.171 273.031 318.981 272.314 318.918C271.407 318.838 271.006 319.354 271.046 320.267C271.212 323.755 274.035 327.272 277.512 328.041C282.836 329.223 287.948 330.892 292.526 333.95C292.957 334.237 293.427 334.472 293.903 334.673C294.724 335.023 295.55 335.086 296.193 334.335C297.707 332.573 299.319 333.193 300.972 334.071C302.165 334.702 303.353 335.356 304.581 335.912C306.038 336.572 307.237 336.544 308.362 335.012C309.538 333.417 310.456 333.422 312.034 334.725C313.313 335.775 314.426 337.037 315.637 338.179C316.319 338.827 317.036 339.464 318.052 339.47C318.597 339.47 319.062 339.263 319.159 338.626C319.096 338.047 318.683 337.703 318.264 337.41V337.421Z" fill="#F692AC"/>
<path d="M174.847 270.705C179.047 269.104 183.27 267.641 187.871 267.876C188.72 267.922 189.547 267.693 190.183 267.096C190.47 266.826 190.792 266.442 190.826 266.086C190.878 265.472 190.338 265.225 189.81 265.111C186.73 264.457 183.603 264.267 180.493 264.738C176.821 265.294 174.687 267.933 172.449 270.55C173.522 271.416 174.205 270.951 174.847 270.705Z" fill="#FECDD8"/>
<path d="M213.465 288.088C211.658 287.824 210.137 286.941 208.881 285.61C208.043 284.726 207.28 284.703 206.701 285.897C205.731 287.887 206.5 291.41 208.267 293.143C210.023 294.858 212.065 295.094 214.572 293.797C218.692 291.663 222.22 288.828 225.1 285.145C226.661 283.154 227.16 281.1 226.414 278.742C226.099 277.732 226.231 275.982 224.756 276.212C223.465 276.413 224.263 277.973 224.119 278.828C224.676 285.438 219.833 289.023 213.459 288.094L213.465 288.088Z" fill="#FECDD8"/>
<path d="M207.716 309.534C206.156 309.546 204.48 309.741 203.23 308.61C201.663 307.199 199.994 307.354 198.261 307.962C195.702 308.857 193.161 309.804 190.642 310.785C188.307 311.697 185.972 312.649 183.476 312.965C179.529 313.464 175.96 312.661 173.464 309.247C169.574 303.923 170.63 295.586 175.667 291.37C176.149 290.968 176.666 290.618 177.148 290.216C177.463 289.952 177.796 289.62 177.67 289.166C177.498 288.564 176.93 288.449 176.413 288.449C175.794 288.449 175.162 288.518 174.554 288.633C168.283 289.815 162.907 298.231 164.732 304.56C167.159 312.988 174.554 318.14 182.42 317.601C186.643 317.314 190.596 316.178 194.509 314.646C202.094 311.674 209.874 310.005 218.061 311.645C218.457 311.726 218.887 311.783 219.432 311.284C218.485 310.389 217.435 310.263 216.431 310.016C213.557 309.31 210.631 309.517 207.711 309.534H207.716Z" fill="#FECDD8"/>
<path d="M184.441 284.39C185.152 284.579 185.875 284.602 186.581 284.378C187.499 284.091 188.331 283.649 188.583 282.634C188.847 281.578 188.21 280.861 187.453 280.27C187.051 279.96 186.581 279.702 186.099 279.536C182.163 278.176 178.698 279.26 175.41 281.24C175.45 281.487 175.49 281.727 175.531 281.974C178.497 282.777 181.463 283.586 184.435 284.384L184.441 284.39Z" fill="#FECDD8"/>
<path d="M319.846 303.119C316.604 300.681 313.259 298.386 309.455 296.9C306.782 295.856 304.12 294.708 301.039 294.398C300.993 295.431 301.417 295.775 301.842 296.039C307.378 299.522 313.012 302.838 318.922 305.655C319.473 305.919 320.104 306.08 320.712 306.126C321.544 306.189 321.86 305.718 321.515 304.938C321.171 304.152 320.505 303.624 319.846 303.125V303.119Z" fill="#FECDD8"/>
<path d="M331.254 297.259C327.732 296.094 324.668 294.19 321.713 292.027C320.204 290.925 318.569 289.984 316.951 289.043C316.24 288.63 315.442 288.337 314.656 288.074C313.945 287.838 313.164 287.775 312.642 288.452C312.028 289.255 312.442 290.036 312.883 290.764C313.503 291.78 314.518 292.354 315.477 292.979C319.407 295.538 323.354 298.062 327.273 300.638C328.753 301.614 330.124 302.744 331.604 303.714C333.199 304.758 333.733 304.448 333.911 302.486C333.939 302.176 333.911 301.86 333.911 301.551C333.934 298.745 333.647 298.057 331.254 297.265V297.259Z" fill="#FECDD8"/>
<path d="M269.674 287.406C273.782 288.014 277.884 288.622 281.625 289.58C282.537 289.597 283.317 289.838 283.65 289.213C284.138 288.301 283.157 287.997 282.669 287.549C282.061 286.987 281.326 286.557 280.747 285.971C279.559 284.755 279.444 283.653 280.867 282.902C283.013 281.766 282.652 279.85 283.013 278.1C283.306 276.677 282.675 276.092 281.349 276.298C279.301 276.625 277.264 277.032 275.233 277.457C270.798 278.375 268.813 280.498 268.148 284.893C267.947 286.212 268.182 287.188 269.674 287.411V287.406Z" fill="#FECDD8"/>
<path d="M329.676 320.804C323.089 318.968 317.599 315.331 312.636 310.747C309.647 307.987 306.485 305.44 302.865 303.529C301.758 302.944 300.633 302.359 299.354 302.295C298.442 302.25 297.971 302.732 298.264 303.678C298.384 304.068 298.631 304.418 298.832 304.785C299.182 305.434 299.601 306.111 299.073 306.817C298.476 307.608 297.587 307.545 296.789 307.27C295.321 306.759 293.869 306.18 292.44 305.549C287.965 303.575 283.542 301.469 278.556 301.022C275.641 300.764 272.738 300.735 269.824 300.919C268.808 300.982 267.953 301.423 267.844 302.542C267.724 303.81 268.504 304.436 269.674 304.642C270.185 304.734 270.701 304.797 271.224 304.843C281.298 305.646 290.696 308.216 298.413 315.222C298.774 315.549 299.21 315.91 299.773 315.635C300.077 315.193 299.813 314.837 299.629 314.476C299.279 313.799 299.004 313.093 299.606 312.451C300.266 311.739 301.133 311.82 301.93 312.141C302.796 312.485 303.645 312.898 304.437 313.386C306.405 314.602 308.058 316.186 309.526 317.959C311.924 320.839 314.317 323.719 316.704 326.61C319.24 329.686 322.04 332.457 325.614 334.327C327.674 335.406 328.333 335.245 329.269 333.163C330.554 330.305 331.449 327.305 331.891 324.195C332.206 321.952 331.925 321.435 329.682 320.81L329.676 320.804Z" fill="#FECDD8"/>
<path d="M160.277 279.17C165.584 276.112 169.779 271.849 173.382 266.961C174.185 265.871 173.898 265.234 172.504 265.143C169.371 264.936 166.279 265.366 163.209 265.923C162.222 266.101 161.499 266.697 161.109 267.615C159.681 270.989 159.021 274.569 158.344 277.793C158.332 279.647 158.895 279.956 160.277 279.165V279.17Z" fill="#F1ACBE"/>
<path d="M221.186 302.584C216.63 302.102 212.064 301.763 207.497 301.442C204.123 301.207 200.847 301.78 197.674 302.916C194.341 304.11 191.019 305.343 187.703 306.577C186.033 307.197 184.341 307.679 182.533 307.633C179.309 307.547 176.945 305.659 176.394 302.492C175.815 299.147 176.704 296.29 179.653 294.31C180.256 293.903 180.904 293.565 181.518 293.169C182.057 292.819 182.568 292.383 182.332 291.654C182.063 290.816 181.351 290.598 180.571 290.753C179.969 290.868 179.36 291.075 178.81 291.35C174.742 293.37 172.958 296.783 172.849 300.346C172.774 308.378 177.312 312.2 184.386 310.903C186.446 310.524 188.38 309.727 190.313 308.952C193.119 307.833 195.901 306.652 198.833 305.883C200.686 305.401 202.62 305.079 204.186 306.485C205.575 307.736 207.129 307.862 208.828 307.833C212.058 307.782 215.276 307.747 218.443 308.631C221.702 309.537 222.167 309.251 223.246 306.147C224.141 303.576 223.825 302.871 221.186 302.595V302.584Z" fill="#F1ACBE"/>
<path d="M295.708 275.115C295.112 275.138 294.354 275.092 294.176 275.878C294.05 276.44 294.544 276.808 294.917 277.163C297.866 279.963 300.809 282.769 303.769 285.551C304.917 286.63 306.196 287.525 307.619 288.196C308.52 288.621 309.449 288.856 310.201 287.99C312.479 285.356 314.997 285.97 317.505 287.479C320.098 289.034 322.622 290.692 325.158 292.339C327.092 293.601 329.106 294.708 331.36 295.236C333.254 295.678 334.143 294.685 333.695 292.815C333.454 291.811 332.823 291.168 331.888 290.824C330.913 290.463 329.937 290.072 328.928 289.831C322.903 288.374 318.136 285.024 314.292 280.244C313.638 279.43 312.938 278.661 312.249 277.875C311.165 276.641 309.811 275.959 308.176 275.804C305.376 275.54 302.599 274.995 299.581 275.109C298.416 275.109 297.062 275.081 295.708 275.127V275.115Z" fill="#F1ACBE"/>
<path d="M324.282 335.883C323.977 335.602 323.645 335.338 323.289 335.126C319.347 332.79 316.542 329.319 313.788 325.768C311.688 323.054 309.462 320.438 307.196 317.856C306.203 316.726 305.199 315.469 303.443 315.171C303.34 315.607 303.225 315.888 303.214 316.175C303.134 319.107 302.107 319.778 299.662 318.384C298.676 317.822 297.786 317.076 296.897 316.359C290.884 311.47 284.309 307.89 276.386 307.305C274.521 307.167 272.685 306.737 270.826 306.519C269.845 306.404 268.801 306.628 268.623 307.77C268.245 310.191 268.784 312.538 269.622 314.792C270.207 316.376 271.773 316.691 273.156 317.053C277.774 318.258 281.819 320.535 285.549 323.456C286.61 324.288 287.746 325.034 288.911 325.722C289.811 326.256 290.861 326.726 291.877 326.221C294.573 324.879 296.696 326.124 298.813 327.564C299.674 328.149 300.517 328.763 301.384 329.331C301.734 329.56 302.17 329.692 302.525 329.365C302.875 329.044 302.784 328.602 302.652 328.206C302.52 327.81 302.33 327.438 302.187 327.047C301.854 326.175 301.326 325.252 302.095 324.414C302.973 323.456 304.04 323.978 304.998 324.339C305.773 324.632 306.507 325.039 307.23 325.452C309.875 326.973 312.147 328.952 314.058 331.322C315.71 333.37 317.661 335.068 319.881 336.468C320.942 337.134 322.067 337.69 323.341 337.816C323.88 337.868 324.396 337.736 324.695 337.243C325.039 336.675 324.672 336.256 324.282 335.894V335.883Z" fill="#F1ACBE"/>
</g>
<defs>
<clipPath id="clip0_22_2678">
<rect width="391.863" height="568" fill="white"/>
</clipPath>
</defs>
</svg>
